{"glyphs":{"0":{"ha":463,"x_min":43,"x_max":420,"o":"m 178 784 q 158 721 165 755 q 146 652 151 687 q 141 582 142 616 q 140 515 140 547 q 141 478 140 504 q 144 417 142 452 q 151 343 147 383 q 161 263 155 303 q 173 185 166 222 q 190 120 180 149 q 210 74 199 92 q 233 57 220 57 q 250 66 242 57 q 264 87 258 75 q 274 111 270 99 q 281 130 279 123 q 309 260 301 195 q 317 393 317 326 q 315 499 317 444 q 307 611 313 555 q 290 722 300 667 q 262 823 279 776 q 250 854 256 839 q 231 882 243 870 q 221 866 229 880 q 204 835 213 852 q 187 803 195 818 q 178 784 179 787 m 420 439 q 420 384 420 416 q 417 315 419 352 q 409 238 414 277 q 395 161 404 199 q 373 89 387 123 q 340 30 359 55 q 295 -11 321 4 q 236 -26 269 -26 q 180 -13 204 -26 q 137 22 155 1 q 106 72 119 44 q 85 130 94 100 q 71 189 77 159 q 62 243 66 218 q 48 372 53 307 q 43 502 43 436 q 49 634 43 568 q 72 762 54 700 q 64 774 68 768 q 61 788 61 781 q 62 795 61 792 q 64 802 62 798 q 87 859 73 829 q 123 913 102 888 q 170 954 144 938 q 229 970 197 970 q 280 959 258 970 q 319 930 302 948 q 349 888 336 911 q 369 839 361 865 q 384 787 378 813 q 393 739 389 762 q 414 590 407 665 q 420 439 420 515 z "},"1":{"ha":257,"x_min":64,"x_max":206,"o":"m 206 26 q 195 5 206 10 q 171 0 184 0 q 146 3 161 0 q 122 9 132 5 q 102 24 109 16 q 94 42 96 32 q 92 63 92 52 q 91 87 92 75 q 71 502 79 296 q 64 917 64 708 q 68 939 64 930 q 88 947 72 947 q 126 938 106 947 q 153 911 145 929 q 157 893 156 906 q 159 866 158 880 q 159 838 159 852 q 160 817 159 824 q 172 468 165 642 q 197 119 179 294 q 202 73 199 96 q 206 26 206 50 z "},"2":{"ha":395,"x_min":6,"x_max":361,"o":"m 361 71 q 359 51 361 61 q 353 33 357 41 q 336 16 349 21 q 308 8 323 10 q 277 7 293 7 q 252 7 262 7 q 195 2 223 5 q 138 -3 166 -1 q 111 -20 129 -20 q 97 -18 105 -20 q 80 -12 89 -16 q 65 -4 72 -8 q 55 5 58 1 q 43 18 47 11 q 39 35 39 26 q 45 64 39 51 q 58 92 52 78 q 130 284 96 189 q 197 479 165 380 q 219 544 208 511 q 237 610 229 576 q 251 677 245 643 q 256 745 256 711 q 254 775 256 755 q 247 814 252 795 q 233 847 242 833 q 207 861 223 861 q 186 855 197 861 q 165 840 175 849 q 148 821 155 831 q 135 803 140 811 q 115 764 123 785 q 100 723 106 743 q 96 703 98 713 q 90 684 94 693 q 82 673 87 676 q 70 670 78 670 q 48 674 59 670 q 27 684 37 677 q 12 701 18 691 q 6 723 6 711 q 13 758 6 741 q 26 792 20 776 q 56 848 39 821 q 96 895 73 874 q 146 927 118 915 q 208 939 174 939 q 280 921 252 939 q 325 874 309 903 q 348 810 342 846 q 355 738 355 774 q 340 606 355 676 q 302 465 325 536 q 255 325 280 393 q 208 198 229 256 l 168 80 l 318 100 q 326 101 322 100 q 333 102 329 102 q 355 93 349 102 q 361 71 361 85 z "},"3":{"ha":456,"x_min":18,"x_max":425,"o":"m 425 320 q 421 246 425 285 q 406 169 416 207 q 380 95 396 130 q 339 33 363 60 q 281 -10 314 6 q 204 -26 248 -26 q 149 -18 176 -26 q 98 5 122 -11 q 67 34 81 17 q 41 71 52 51 q 24 112 31 91 q 18 155 18 134 q 48 183 18 183 q 78 180 60 183 q 108 171 96 177 q 123 158 118 165 q 131 143 128 151 q 137 125 134 135 q 143 107 139 116 q 168 73 151 87 q 205 58 184 58 q 247 74 229 58 q 278 114 265 90 q 301 170 292 139 q 316 231 310 201 q 324 289 321 262 q 326 332 326 315 q 322 387 326 357 q 308 441 319 416 q 277 483 297 467 q 226 498 258 499 l 218 498 q 207 485 213 492 q 195 470 201 477 q 181 458 189 463 q 166 453 174 453 q 146 459 156 453 q 127 473 136 465 q 114 493 119 482 q 109 514 109 504 q 109 520 109 517 q 111 525 109 523 q 138 563 121 545 q 170 600 156 581 q 201 645 185 620 q 230 696 217 669 q 250 751 242 723 q 258 804 258 779 q 255 836 258 821 q 243 862 251 850 q 221 879 235 873 q 189 886 208 886 q 162 879 174 886 q 141 863 150 873 q 128 839 133 852 q 120 812 123 826 q 117 792 117 802 q 113 772 117 781 q 105 759 110 762 q 90 755 100 755 q 67 759 79 755 q 46 769 56 762 q 31 786 37 776 q 25 808 25 795 q 34 852 25 829 q 54 892 42 875 q 113 946 76 928 q 192 964 150 964 q 260 953 229 964 q 313 921 291 942 q 348 870 336 900 q 360 802 360 840 q 353 739 360 770 q 334 680 346 709 q 306 623 321 650 q 272 570 290 595 q 346 535 317 560 q 393 476 376 511 q 418 401 411 441 q 425 320 425 360 z "},"4":{"ha":392,"x_min":-5,"x_max":402,"o":"m 186 377 q 179 498 182 439 q 172 618 176 558 q 135 498 154 560 q 104 376 115 436 l 121 376 q 154 376 138 376 q 186 377 170 376 m 304 16 q 300 -4 304 2 q 280 -11 296 -11 q 261 -9 271 -11 q 242 -2 251 -7 q 225 8 233 2 q 215 24 218 15 q 210 49 212 29 q 205 95 208 68 q 200 153 203 122 q 196 212 198 184 q 193 262 195 240 q 192 292 192 283 q 163 291 178 292 q 135 290 149 290 q 96 291 119 290 q 50 298 72 292 q 11 315 27 303 q -5 350 -5 328 q 2 397 -5 374 q 16 444 9 421 q 83 664 47 555 q 154 883 119 772 q 150 922 152 903 q 147 962 147 942 q 158 983 147 978 q 182 987 168 987 q 208 984 194 987 q 235 974 222 981 q 255 957 247 967 q 264 932 264 946 q 262 924 264 928 q 261 917 261 921 q 263 839 261 878 q 268 761 266 800 l 287 387 q 330 392 309 389 q 372 396 352 396 q 394 390 386 396 q 402 370 402 385 q 393 329 402 343 q 368 309 383 315 q 332 301 352 302 q 291 298 312 300 l 299 145 q 302 81 300 113 q 304 16 304 49 z "},"5":{"ha":440,"x_min":29,"x_max":408,"o":"m 408 410 q 406 331 408 377 q 397 236 404 286 q 377 138 390 187 q 343 51 365 90 q 289 -11 321 13 q 211 -35 256 -35 q 144 -22 174 -35 q 94 13 115 -9 q 57 65 72 35 q 36 129 43 95 q 32 153 34 141 q 29 178 29 165 q 36 205 29 194 q 60 216 42 216 q 81 213 69 216 q 105 205 94 210 q 125 193 116 200 q 139 176 135 185 q 149 141 146 162 q 157 99 151 119 q 175 64 163 79 q 211 50 186 50 q 245 75 231 50 q 270 137 260 99 q 288 221 281 175 q 299 310 295 267 q 304 387 302 353 q 306 437 306 422 q 305 476 306 452 q 300 529 304 501 q 290 586 297 557 q 273 637 283 614 q 247 674 262 660 q 210 689 231 689 q 161 674 184 689 q 163 664 162 669 q 163 654 163 659 q 131 623 163 623 q 122 623 127 623 q 113 624 117 624 q 97 624 106 621 q 77 633 87 627 q 60 647 68 640 q 51 662 53 655 q 46 704 45 682 q 47 746 47 726 q 45 801 47 774 q 43 856 44 828 q 40 861 41 858 q 39 868 39 865 q 41 898 39 885 q 50 919 43 911 q 68 931 56 927 q 100 936 80 935 q 158 939 130 937 q 216 944 186 941 q 244 948 231 946 q 273 951 258 951 q 292 943 287 951 q 296 922 296 935 q 293 898 296 909 q 279 879 290 887 q 254 871 273 876 q 212 864 235 867 q 168 858 189 860 q 139 854 147 855 l 150 755 q 182 763 166 761 q 215 765 199 765 q 289 747 258 765 q 341 701 320 730 q 376 635 363 672 q 396 558 389 598 q 405 480 403 519 q 408 410 408 441 z "},"6":{"ha":418,"x_min":46,"x_max":399,"o":"m 155 301 q 158 266 156 288 q 165 220 161 245 q 175 170 169 195 q 188 121 180 144 q 206 81 196 98 q 229 57 216 64 q 254 72 243 58 q 272 105 264 85 q 284 149 279 125 q 291 196 288 173 q 294 239 293 220 q 294 270 294 259 q 293 308 294 283 q 290 362 292 332 q 282 424 287 392 q 271 483 278 456 q 254 528 264 509 q 229 552 243 547 q 194 507 208 536 q 172 444 180 477 q 160 377 163 410 q 156 319 156 344 q 156 309 156 313 q 155 301 156 305 m 399 271 q 396 213 399 245 q 388 147 394 180 q 369 83 381 114 q 339 28 357 52 q 294 -11 321 3 q 232 -26 268 -26 q 168 -6 195 -26 q 119 47 140 14 q 84 120 98 79 q 62 202 71 161 q 50 281 54 243 q 46 346 46 319 q 47 382 46 364 q 47 420 47 401 q 76 679 47 555 q 159 925 104 802 q 164 939 161 930 q 173 956 168 947 q 183 969 178 964 q 197 975 189 975 q 215 970 205 975 q 232 959 224 966 q 245 942 240 951 q 250 924 250 932 q 244 899 250 916 q 232 862 239 882 q 217 825 224 843 q 206 798 210 807 q 180 708 192 753 q 160 617 168 663 q 191 632 174 627 q 225 637 208 637 q 296 618 267 637 q 344 569 325 600 q 374 498 363 538 q 391 418 385 459 q 397 339 396 378 q 399 271 399 300 z "},"7":{"ha":333,"x_min":-17,"x_max":299,"o":"m 296 901 q 292 865 296 884 q 266 670 278 767 q 245 475 254 573 q 226 273 235 374 q 207 71 217 172 l 203 23 q 201 6 201 15 q 197 -10 200 -3 q 189 -21 195 -17 q 172 -26 182 -26 q 152 -23 164 -26 q 129 -14 140 -20 q 107 -2 117 -9 q 94 14 97 5 q 92 24 93 19 q 92 35 92 29 q 95 68 92 52 q 101 102 99 85 q 107 149 104 125 q 112 195 110 172 q 134 399 123 298 q 158 601 144 500 q 177 734 168 669 q 197 868 187 800 q 109 862 153 865 q 20 860 64 860 q 8 860 14 860 q -4 863 1 861 q -13 869 -9 865 q -17 880 -17 873 q -2 919 -17 906 q 37 936 14 932 q 77 941 57 939 q 116 944 96 942 q 195 957 155 948 q 275 966 236 966 q 295 954 291 966 q 299 929 299 941 q 298 915 299 922 q 296 901 296 908 z "},"8":{"ha":454,"x_min":49,"x_max":420,"o":"m 233 502 q 222 492 228 496 q 212 481 217 487 q 184 434 195 463 q 166 373 173 405 q 157 310 160 341 q 155 254 155 278 q 155 224 155 243 q 158 182 156 205 q 165 135 161 159 q 177 91 170 111 q 194 59 184 71 q 218 46 204 46 q 257 60 241 46 q 286 95 274 73 q 304 143 297 116 q 315 197 311 170 q 320 248 319 224 q 321 289 321 273 q 321 342 321 315 q 315 397 320 370 q 299 448 310 423 q 270 492 289 473 q 251 507 261 503 l 233 502 m 182 583 q 218 591 200 591 q 240 626 231 606 q 255 669 249 646 q 264 713 261 691 q 267 754 267 736 q 265 785 267 767 q 259 820 263 802 q 247 854 254 838 q 231 879 240 869 q 223 868 226 873 q 217 858 220 862 q 209 850 214 853 q 195 848 204 848 q 184 849 190 848 q 174 853 179 851 q 153 786 159 823 q 146 716 146 748 q 149 684 146 703 q 155 645 151 665 q 165 608 159 625 q 182 583 172 591 m 420 292 q 417 221 420 258 q 406 148 414 184 q 384 79 398 112 q 348 20 370 45 q 294 -20 326 -5 q 220 -35 262 -35 q 156 -22 182 -35 q 110 14 129 -9 q 79 66 91 37 q 60 127 67 95 q 51 191 54 159 q 49 251 49 223 q 52 322 49 286 q 61 394 54 359 q 81 462 68 429 q 115 525 94 495 q 83 562 96 541 q 62 608 70 584 q 52 659 55 633 q 49 708 49 684 q 53 766 49 736 q 64 825 56 795 q 85 881 73 854 q 117 929 98 907 q 124 939 119 933 q 135 949 130 944 q 147 957 141 954 q 159 960 153 960 q 175 955 170 960 q 202 965 187 961 q 231 970 216 970 q 298 949 271 970 q 341 896 325 928 q 365 827 357 864 q 372 757 372 789 q 368 707 372 732 q 358 655 365 681 q 340 606 351 630 q 316 563 330 583 q 370 510 349 541 q 401 443 390 479 q 416 367 412 406 q 420 292 420 328 z "},"9":{"ha":418,"x_min":20,"x_max":372,"o":"m 264 646 q 260 681 262 660 q 254 726 258 702 q 244 775 250 750 q 230 822 238 800 q 212 861 222 844 q 189 886 202 878 q 164 870 174 884 q 146 837 154 857 q 135 792 139 817 q 128 744 130 768 q 125 701 125 721 q 124 670 124 681 q 125 633 124 657 q 129 581 126 610 q 136 522 132 552 q 148 466 141 492 q 165 421 155 439 q 189 400 176 404 q 224 443 210 415 q 247 504 238 471 q 259 569 255 536 q 262 627 262 602 q 262 637 262 632 q 264 646 262 642 m 372 606 q 372 567 372 587 q 371 528 371 548 q 342 273 371 395 q 260 30 313 151 q 254 16 257 24 q 245 0 250 8 q 234 -13 240 -7 q 220 -19 228 -19 q 202 -14 211 -19 q 185 -2 193 -9 q 174 15 178 6 q 169 34 169 24 q 174 55 169 41 q 184 86 178 70 q 197 117 191 102 q 207 141 203 132 q 235 236 223 188 q 257 332 248 284 q 195 313 227 313 q 123 332 152 313 q 74 381 94 351 q 43 451 54 412 q 27 531 33 490 q 21 610 22 571 q 20 678 20 648 q 22 736 20 705 q 32 801 25 768 q 50 863 39 833 q 80 916 62 892 q 125 953 99 939 q 186 967 151 967 q 250 948 222 967 q 299 897 278 928 q 333 826 319 866 q 356 747 347 787 q 369 670 365 707 q 372 606 372 633 z "}," ":{"ha":203,"x_min":0,"x_max":0,"o":""},"Ł":{"ha":449,"x_min":22,"x_max":470,"o":"m 22 385 q 24 397 22 391 q 26 410 25 404 q 35 438 31 427 q 45 457 39 449 q 58 470 50 465 q 79 480 66 475 l 96 486 l 96 807 q 94 863 96 836 q 93 920 93 891 q 94 936 93 926 q 97 952 94 945 q 105 966 100 960 q 120 971 111 971 q 160 960 140 971 q 186 929 181 949 q 191 903 191 917 q 191 875 191 889 q 193 699 192 787 q 195 524 193 612 l 264 549 q 276 553 269 551 q 290 555 283 555 q 302 552 297 555 q 306 540 307 549 q 294 496 306 517 q 265 465 283 475 q 238 451 252 457 q 211 439 224 446 l 196 433 q 197 296 196 364 q 197 159 197 229 q 197 118 197 138 q 200 77 197 98 q 244 83 218 78 q 297 97 271 89 q 348 117 324 106 q 385 140 372 127 q 399 152 392 146 q 416 159 406 159 q 434 153 425 159 q 452 137 444 146 q 465 118 460 128 q 470 99 470 108 q 453 69 470 83 q 411 43 437 55 q 354 21 385 31 q 292 5 322 12 q 237 -6 262 -2 q 199 -9 212 -9 q 157 -4 176 -9 q 124 13 138 1 q 102 41 110 24 q 94 84 94 59 l 94 387 q 75 379 85 382 q 55 372 65 375 q 44 368 50 370 q 34 367 39 366 q 25 372 28 368 q 22 385 22 376 z "},"ł":{"ha":252,"x_min":-12,"x_max":273,"o":"m 233 -23 q 228 -38 233 -32 q 216 -47 223 -43 q 201 -52 209 -50 q 186 -53 193 -53 q 146 -39 163 -53 q 116 -4 129 -26 q 96 45 104 18 q 82 100 87 73 q 74 153 77 127 q 70 195 71 178 q 64 291 66 243 q 60 387 62 338 q 41 379 50 382 q 21 372 31 375 q 10 368 16 370 q 0 367 5 366 q -8 372 -5 368 q -12 385 -12 376 q -10 397 -12 391 q -7 410 -9 404 q 1 438 -3 427 q 11 457 5 449 q 24 470 16 465 q 45 480 33 475 l 60 486 q 63 645 60 566 q 71 804 66 724 q 73 835 72 815 q 76 877 75 855 q 79 917 77 898 q 83 943 81 935 q 91 955 87 951 q 104 959 94 959 q 144 944 128 959 q 159 905 159 928 q 159 885 159 895 q 157 867 158 876 q 154 814 155 840 q 151 761 153 787 q 147 643 148 701 q 146 525 146 585 l 146 517 l 230 549 q 242 553 235 551 q 256 555 249 555 q 268 552 263 555 q 272 540 273 549 q 260 496 272 517 q 231 465 249 475 q 204 451 218 457 q 177 439 191 446 l 147 426 q 151 314 148 374 q 160 197 154 254 q 176 94 166 140 q 200 26 186 48 q 212 18 206 23 q 222 5 218 12 q 230 -9 227 -2 q 233 -23 233 -17 z "},"Þ":{"ha":484,"x_min":37,"x_max":479,"o":"m 479 608 q 457 473 479 541 q 398 346 436 405 q 306 241 359 287 q 189 171 252 195 l 213 69 q 217 48 215 59 q 220 26 220 37 q 211 2 220 8 q 186 -4 202 -4 q 158 -1 174 -4 q 130 7 142 1 q 112 22 117 14 q 106 43 108 30 q 97 92 100 72 q 90 126 93 113 q 85 152 87 142 q 63 159 72 153 q 54 179 54 165 q 62 208 54 193 q 80 231 70 222 q 75 481 74 357 q 75 731 76 605 q 68 729 71 730 q 62 728 66 728 q 50 732 55 728 q 42 741 45 736 q 38 753 39 747 q 37 765 37 760 q 47 794 37 785 q 75 811 57 804 l 75 928 q 75 944 75 935 q 79 959 76 952 q 87 971 81 966 q 102 975 92 975 q 131 970 117 975 q 155 954 145 966 q 160 927 159 946 q 161 889 161 909 q 160 853 161 869 q 160 837 159 838 q 206 844 184 841 q 252 848 229 848 q 348 830 306 848 q 419 780 390 812 q 464 703 448 747 q 479 608 479 659 m 377 620 q 369 679 377 651 q 345 726 361 706 q 303 758 328 746 q 244 769 278 769 q 207 766 226 769 q 171 758 189 764 q 173 512 171 634 q 182 267 174 390 q 261 330 225 290 q 323 418 297 370 q 363 519 349 467 q 377 620 377 572 z "},"þ":{"ha":378,"x_min":35,"x_max":369,"o":"m 121 175 q 121 111 121 142 q 122 46 121 79 q 133 56 127 52 q 146 65 139 60 q 208 130 182 92 q 250 213 233 169 q 273 304 266 258 q 281 395 281 351 q 280 418 281 403 q 277 448 280 433 q 268 474 274 463 q 250 486 261 486 q 225 476 237 486 q 202 450 213 466 q 180 416 191 435 q 161 378 170 397 q 146 343 153 359 q 137 317 140 327 q 128 296 133 308 q 122 274 123 284 q 120 252 121 264 q 120 225 120 239 q 120 199 120 212 q 121 175 121 186 m 159 -452 q 151 -470 159 -465 q 132 -475 144 -475 q 96 -470 115 -475 q 66 -452 77 -466 q 61 -432 64 -449 q 57 -391 59 -415 q 52 -339 54 -368 q 48 -286 50 -311 q 45 -240 47 -260 q 43 -212 44 -220 q 35 81 35 -65 q 36 147 35 107 q 39 236 37 186 q 43 342 41 286 q 47 459 45 399 q 53 580 50 519 q 60 698 56 641 q 66 807 63 755 q 73 899 70 858 q 74 920 75 909 q 76 940 74 930 q 84 954 79 949 q 98 958 88 958 q 138 942 125 958 q 152 903 150 927 q 151 884 152 903 q 149 836 151 866 q 145 769 147 806 q 140 692 142 732 q 136 615 138 653 q 132 548 134 578 q 129 499 130 518 q 127 480 127 481 q 181 534 150 514 q 254 553 212 553 q 309 539 287 553 q 344 501 331 524 q 363 449 357 477 q 369 393 369 420 q 360 284 369 338 q 333 181 352 231 q 282 87 313 131 q 208 8 252 43 q 195 -2 202 3 q 179 -12 187 -7 q 163 -20 171 -17 q 148 -23 155 -23 q 132 -17 138 -23 q 122 -4 126 -10 q 131 -210 125 -106 q 153 -414 137 -313 q 157 -432 155 -423 q 159 -452 159 -441 z "},"½":{"ha":542,"x_min":40,"x_max":524,"o":"m 139 420 q 130 404 139 408 q 112 400 121 400 q 80 405 96 400 q 58 426 63 410 q 56 438 56 432 q 56 450 56 444 q 45 658 50 555 q 40 865 40 761 q 45 881 40 876 q 62 887 50 887 q 87 882 73 887 q 106 865 100 877 q 110 855 109 862 q 111 841 111 848 q 111 827 111 834 q 111 815 111 820 q 118 642 114 728 q 134 468 122 555 q 137 444 135 456 q 139 420 139 432 m 378 785 q 371 755 378 770 q 359 726 365 740 q 254 441 304 583 q 155 156 203 299 q 150 137 153 150 q 142 111 146 124 q 134 85 138 97 q 127 71 130 74 q 113 64 122 64 q 97 67 106 64 q 80 75 88 70 q 66 87 72 80 q 60 102 60 94 q 68 132 60 108 q 89 194 76 157 q 119 277 102 231 q 155 372 136 323 q 191 469 173 421 q 225 558 210 517 q 252 630 241 599 q 269 674 264 661 l 304 765 q 313 788 309 777 q 322 810 317 800 q 330 820 326 816 q 341 825 334 825 q 367 812 357 825 q 378 785 378 800 m 524 103 q 519 81 524 90 q 507 70 515 74 q 489 65 498 66 q 469 64 479 64 q 452 64 459 64 q 420 62 436 64 q 387 60 404 61 q 367 52 379 52 q 352 54 361 52 q 336 61 344 56 q 322 72 328 65 q 317 85 317 78 q 321 101 317 94 q 329 117 326 109 q 349 159 337 134 q 375 215 361 185 q 401 277 388 245 q 424 339 414 309 q 440 395 434 369 q 447 439 447 421 q 447 454 447 446 q 444 471 446 463 q 438 485 442 479 q 425 491 433 491 q 404 483 414 491 q 386 464 394 475 q 373 439 378 452 q 366 418 368 427 q 358 402 362 408 q 342 396 354 396 q 327 398 335 396 q 313 404 319 400 q 302 414 307 408 q 298 429 298 420 q 302 448 298 439 q 311 467 306 457 q 357 523 329 501 q 427 544 386 544 q 469 536 452 544 q 498 513 487 528 q 515 479 509 499 q 520 437 520 460 q 509 359 520 401 q 480 275 497 317 q 445 191 463 232 q 412 115 426 150 q 456 122 434 119 q 501 125 479 125 q 518 120 511 125 q 524 103 524 115 z "},"¼":{"ha":533,"x_min":48,"x_max":523,"o":"m 147 420 q 138 404 147 408 q 120 400 130 400 q 88 405 104 400 q 66 426 71 410 q 64 438 64 432 q 64 450 64 444 q 53 658 58 555 q 48 865 48 761 q 53 881 48 876 q 70 887 58 887 q 95 882 81 887 q 115 865 109 877 q 118 855 117 862 q 119 841 119 848 q 119 827 119 834 q 119 815 119 820 q 126 642 122 728 q 142 468 130 555 q 145 444 143 456 q 147 420 147 432 m 386 785 q 379 755 386 770 q 367 726 373 740 q 262 441 313 583 q 163 156 212 299 q 158 137 161 150 q 150 111 154 124 q 142 85 146 97 q 135 71 138 74 q 121 64 130 64 q 105 67 115 64 q 88 75 96 70 q 74 87 80 80 q 68 102 68 94 q 76 132 68 108 q 97 194 84 157 q 127 277 111 231 q 163 372 144 323 q 199 469 181 421 q 233 558 218 517 q 260 630 249 599 q 277 674 272 661 l 313 765 q 321 788 317 777 q 330 810 325 800 q 338 820 334 816 q 349 825 342 825 q 375 812 365 825 q 386 785 386 800 m 523 254 q 517 230 523 238 q 501 217 511 221 q 480 212 492 213 q 456 210 468 211 q 461 144 458 178 q 465 76 465 110 q 459 60 465 64 q 443 56 454 56 q 417 60 431 56 q 397 77 404 65 q 393 99 395 81 q 389 139 391 117 q 385 179 387 160 q 383 206 384 199 l 356 206 q 331 207 347 206 q 301 212 316 208 q 276 223 287 216 q 265 243 265 230 q 271 271 265 251 q 286 317 277 291 q 307 372 296 343 q 328 429 317 401 q 348 477 339 456 q 360 510 356 499 q 357 529 359 520 q 356 548 356 538 q 365 564 356 560 q 385 568 374 568 q 401 566 391 568 q 419 560 410 564 q 433 549 427 555 q 440 533 439 542 q 439 530 440 532 q 439 526 439 528 q 440 488 439 507 q 443 449 441 469 l 454 269 q 476 271 465 270 q 498 273 487 273 q 515 268 508 273 q 523 254 523 264 m 379 263 l 374 346 q 358 304 366 326 q 345 262 351 283 l 352 262 q 366 262 359 262 q 379 263 372 263 z "},"¹":{"ha":137,"x_min":22,"x_max":121,"o":"m 121 420 q 113 404 121 408 q 94 400 104 400 q 62 405 79 400 q 40 426 45 410 q 39 438 39 432 q 39 450 39 444 q 27 658 33 555 q 22 865 22 761 q 27 881 22 876 q 44 887 32 887 q 69 882 56 887 q 89 865 83 877 q 92 855 91 862 q 93 841 93 848 q 93 827 93 834 q 93 815 93 820 q 100 642 96 728 q 116 468 104 555 q 119 444 117 456 q 121 420 121 432 z "},"¾":{"ha":650,"x_min":22,"x_max":640,"o":"m 503 785 q 496 755 503 770 q 484 726 490 740 q 379 441 429 583 q 280 156 328 299 q 274 137 278 150 q 267 111 271 124 q 258 85 262 97 q 252 71 254 74 q 238 64 247 64 q 222 67 231 64 q 205 75 213 70 q 191 87 197 80 q 185 102 185 94 q 193 132 185 108 q 214 194 201 157 q 244 277 227 231 q 279 372 261 323 q 316 469 298 421 q 350 558 334 517 q 377 630 366 599 q 394 674 389 661 l 429 765 q 437 788 433 777 q 447 810 441 800 q 454 820 450 816 q 466 825 458 825 q 492 812 481 825 q 503 785 503 800 m 640 254 q 633 230 640 238 q 618 217 627 221 q 596 212 608 213 q 573 210 585 211 q 578 144 575 178 q 581 76 581 110 q 576 60 581 64 q 559 56 571 56 q 534 60 547 56 q 513 77 521 65 q 509 99 511 81 q 505 139 507 117 q 502 179 503 160 q 500 206 500 199 l 473 206 q 448 207 463 206 q 418 212 433 208 q 393 223 404 216 q 382 243 382 230 q 388 271 382 251 q 403 317 393 291 q 423 372 412 343 q 445 429 434 401 q 464 477 456 456 q 477 510 473 499 q 474 529 475 520 q 473 548 473 538 q 482 564 473 560 q 501 568 491 568 q 517 566 508 568 q 535 560 527 564 q 550 549 544 555 q 557 533 556 542 q 556 530 557 532 q 555 526 555 528 q 557 488 555 507 q 559 449 558 469 l 570 269 q 593 271 582 270 q 615 273 604 273 q 632 268 625 273 q 640 254 640 264 m 496 263 l 490 346 q 475 304 482 326 q 462 262 467 283 l 469 262 q 482 262 476 262 q 496 263 488 263 m 280 567 q 272 502 280 534 q 248 444 264 470 q 204 402 231 418 q 140 387 178 387 q 99 393 120 387 q 61 413 78 400 q 33 443 44 425 q 22 484 22 461 q 30 501 22 496 q 47 506 37 506 q 79 501 67 506 q 97 490 90 496 q 106 475 103 483 q 113 460 109 467 q 122 448 116 453 q 142 444 129 444 q 173 458 161 444 q 193 494 186 473 q 204 537 201 515 q 207 574 207 559 q 205 601 207 587 q 197 626 203 614 q 180 644 191 637 q 153 650 170 650 q 137 634 145 642 q 119 627 129 627 q 104 630 111 627 q 90 638 96 633 q 80 650 84 643 q 77 665 77 657 q 91 686 77 672 q 121 720 104 701 q 152 762 138 739 q 166 810 166 785 q 132 844 166 844 q 106 833 113 844 q 97 811 100 823 q 91 789 94 799 q 73 779 87 779 q 57 780 65 779 q 42 786 50 782 q 31 796 35 790 q 26 811 26 802 q 37 847 26 831 q 62 873 47 863 q 97 890 78 884 q 134 895 116 895 q 173 890 154 895 q 208 874 193 885 q 232 848 222 864 q 241 808 241 831 q 227 748 241 777 q 193 696 213 720 q 233 678 216 690 q 260 648 250 665 q 275 610 271 631 q 280 567 280 589 z "},"³":{"ha":270,"x_min":6,"x_max":264,"o":"m 264 567 q 256 502 264 534 q 232 444 248 470 q 188 402 215 418 q 124 387 161 387 q 83 393 104 387 q 45 413 62 400 q 17 443 28 425 q 6 484 6 461 q 13 501 6 496 q 31 506 20 506 q 62 501 51 506 q 80 490 74 496 q 90 475 87 483 q 96 460 93 467 q 106 448 100 453 q 125 444 113 444 q 157 458 144 444 q 177 494 170 473 q 188 537 184 515 q 191 574 191 559 q 189 601 191 587 q 180 626 186 614 q 164 644 174 637 q 136 650 153 650 q 121 634 129 642 q 102 627 113 627 q 87 630 95 627 q 74 638 80 633 q 64 650 68 643 q 60 665 60 657 q 74 686 60 672 q 105 720 88 701 q 136 762 122 739 q 150 810 150 785 q 116 844 150 844 q 90 833 96 844 q 81 811 84 823 q 74 789 78 799 q 56 779 71 779 q 41 780 49 779 q 26 786 33 782 q 15 796 19 790 q 10 811 10 802 q 20 847 10 831 q 46 873 31 863 q 81 890 62 884 q 117 895 100 895 q 157 890 138 895 q 191 874 176 885 q 215 848 206 864 q 224 808 224 831 q 211 748 224 777 q 177 696 197 720 q 217 678 200 690 q 244 648 233 665 q 259 610 254 631 q 264 567 264 589 z "},"²":{"ha":236,"x_min":-2,"x_max":224,"o":"m 224 442 q 219 420 224 429 q 207 409 216 413 q 189 405 199 406 q 169 404 179 404 q 153 403 159 404 q 120 401 136 403 q 87 399 104 400 q 67 391 79 391 q 53 393 61 391 q 36 400 44 395 q 22 411 28 404 q 17 425 17 417 q 21 440 17 433 q 29 456 26 448 q 50 498 37 473 q 75 554 62 524 q 101 616 88 584 q 124 678 114 648 q 141 734 134 708 q 147 779 147 760 q 147 793 147 785 q 144 810 146 802 q 138 824 142 819 q 125 830 134 830 q 104 822 114 830 q 86 803 94 814 q 74 779 79 791 q 66 757 68 766 q 58 741 62 747 q 43 735 54 735 q 27 737 35 735 q 13 743 20 739 q 2 753 7 747 q -2 768 -2 760 q 2 787 -2 778 q 12 806 6 796 q 58 862 29 840 q 127 883 86 883 q 170 875 152 883 q 198 852 187 867 q 215 819 210 838 q 220 776 220 799 q 209 698 220 740 q 180 614 197 656 q 145 530 163 571 q 112 454 126 489 q 157 461 134 458 q 201 464 179 464 q 218 459 212 464 q 224 442 224 454 z "},"¦":{"ha":194,"x_min":41,"x_max":155,"o":"m 155 610 q 155 591 155 601 q 152 573 155 581 q 143 561 149 566 q 123 556 136 556 q 97 559 111 556 q 71 569 83 562 q 52 586 60 576 q 45 612 45 597 q 47 709 45 661 q 49 807 49 758 q 47 925 49 867 q 46 1044 46 984 q 46 1058 46 1051 q 49 1069 47 1064 q 56 1077 51 1074 q 71 1080 61 1080 q 87 1078 77 1080 q 105 1072 96 1076 q 122 1062 115 1068 q 133 1050 130 1057 q 140 1010 137 1041 q 146 936 143 979 q 150 843 149 892 q 153 747 151 793 q 154 664 154 701 q 155 610 155 627 m 155 -64 q 146 -89 155 -82 q 121 -95 137 -95 q 104 -93 114 -95 q 85 -89 95 -92 q 66 -82 75 -85 q 53 -73 58 -78 q 43 -54 45 -64 q 42 -31 42 -43 q 41 12 41 -9 q 41 54 41 33 l 41 121 q 41 161 41 132 q 41 226 41 190 q 42 302 41 262 q 43 376 42 342 q 44 435 43 410 q 47 465 45 460 q 55 477 50 475 q 69 480 60 480 q 118 464 100 480 q 138 416 136 447 q 144 216 144 316 q 149 16 144 117 q 153 -24 151 -4 q 155 -64 155 -43 z "},"−":{"ha":342,"x_min":32,"x_max":314,"o":"m 314 525 q 310 507 314 515 q 302 488 306 496 q 293 477 298 481 q 280 471 288 473 q 260 469 272 469 l 75 469 q 63 470 71 469 q 49 472 56 470 q 37 477 42 473 q 32 488 32 481 q 43 517 32 505 q 71 533 55 530 q 98 535 85 535 q 125 537 112 536 q 203 542 164 539 q 281 544 241 544 q 292 544 286 544 q 303 542 298 543 q 311 536 308 540 q 314 525 314 532 z "},"×":{"ha":348,"x_min":31,"x_max":328,"o":"m 284 632 q 280 615 284 627 q 269 587 275 604 q 254 553 262 571 q 238 519 245 535 q 224 490 231 503 q 216 472 218 477 q 230 449 220 465 q 252 413 240 433 q 278 370 264 393 q 302 328 292 347 q 320 293 313 308 q 328 274 328 278 q 322 262 328 267 q 310 256 317 258 q 295 254 303 254 q 283 254 288 254 l 273 254 q 248 259 258 254 q 232 272 239 264 q 221 290 226 279 q 210 312 216 300 q 191 348 200 330 q 172 382 182 365 q 151 338 161 360 q 128 294 140 317 q 118 271 123 283 q 101 254 113 260 q 96 251 99 252 q 92 251 94 251 q 74 255 84 251 q 56 267 64 260 q 42 283 47 274 q 36 300 36 292 q 44 326 36 313 q 58 350 52 338 q 90 410 74 380 q 121 471 106 440 q 111 489 119 475 q 93 519 103 502 q 72 555 83 536 q 52 590 61 574 q 37 618 43 607 q 31 633 31 630 q 34 642 31 639 q 43 648 38 646 q 55 650 49 650 q 64 651 60 651 q 92 647 80 651 q 115 631 104 643 q 141 594 129 614 q 165 553 153 573 l 200 623 q 207 637 203 628 q 215 654 210 646 q 227 668 220 662 q 241 674 233 674 q 255 670 248 674 q 270 660 263 666 q 280 646 276 654 q 284 632 284 639 z "},"!":{"ha":231,"x_min":47,"x_max":187,"o":"m 187 184 q 160 155 187 155 q 140 157 152 155 q 116 163 128 159 q 94 173 104 167 q 80 186 84 178 q 75 206 75 195 q 75 228 75 216 q 64 527 71 378 q 52 827 58 676 q 49 891 50 859 q 47 956 47 924 q 51 980 47 972 q 72 987 54 987 q 91 985 81 987 q 110 978 101 983 q 126 967 119 974 q 137 952 134 961 q 142 916 139 947 q 149 838 145 886 q 155 730 152 790 q 162 605 159 669 q 170 478 166 541 q 176 360 173 414 q 181 265 179 306 q 186 206 184 224 q 186 195 186 201 q 187 184 187 190 m 81 73 q 86 84 81 80 q 98 89 91 87 q 112 91 105 91 q 125 91 119 91 q 141 91 132 91 q 158 88 150 90 q 172 80 166 85 q 178 66 178 75 q 177 52 178 63 q 177 28 177 41 q 175 4 176 15 q 174 -7 174 -6 q 161 -15 170 -14 q 144 -16 152 -16 q 113 -14 123 -16 q 99 -6 103 -12 q 93 11 94 0 q 88 39 91 22 q 84 56 87 47 q 81 73 81 64 z "},"\"":{"ha":262,"x_min":10,"x_max":246,"o":"m 111 849 q 109 755 111 802 q 108 662 108 709 q 107 648 108 654 q 105 635 107 641 q 98 626 103 629 q 85 623 94 623 q 45 634 62 623 q 24 670 27 646 q 21 704 22 688 q 20 738 21 720 q 13 803 16 770 q 10 868 10 836 q 16 889 10 882 q 36 897 22 897 q 61 895 47 897 q 85 887 74 892 q 103 873 96 882 q 111 849 111 864 m 246 849 q 245 755 246 802 q 243 662 243 709 q 243 648 243 654 q 241 635 243 641 q 234 626 239 629 q 220 623 229 623 q 180 634 198 623 q 159 670 163 646 q 157 704 157 688 q 155 738 157 720 q 149 803 152 770 q 146 868 146 836 q 152 889 146 882 q 172 897 157 897 q 196 895 183 897 q 221 887 210 892 q 239 873 232 882 q 246 849 246 864 z "},"#":{"ha":390,"x_min":14,"x_max":366,"o":"m 158 500 l 150 434 q 178 437 164 435 q 207 441 193 439 l 214 506 q 186 503 200 505 q 158 500 172 502 m 174 650 q 171 610 174 629 q 166 570 168 590 l 223 578 l 226 604 l 239 703 q 240 719 240 708 q 243 739 241 729 q 249 757 245 749 q 262 765 254 765 q 292 751 280 765 q 304 719 304 736 q 299 651 304 686 q 291 583 294 616 q 313 585 302 585 q 336 586 324 586 q 356 584 347 586 q 366 567 366 581 q 365 557 366 562 q 363 549 364 553 q 350 524 357 532 q 334 512 343 515 q 312 510 324 509 q 283 510 299 511 l 277 449 q 298 451 288 450 q 319 452 309 452 q 340 448 331 452 q 349 431 349 445 q 347 417 349 425 q 342 402 345 410 q 334 388 338 394 q 323 378 329 381 q 297 374 312 373 q 269 374 281 374 q 267 350 269 368 q 263 308 265 332 q 258 258 261 284 q 253 210 256 233 q 248 172 250 188 q 243 155 245 157 q 238 151 241 153 q 231 149 235 149 q 192 164 208 149 q 177 202 177 180 q 181 247 177 224 q 188 290 184 269 l 197 369 q 170 367 183 368 q 142 363 156 366 q 135 299 138 331 q 127 235 131 267 q 121 219 125 225 q 106 213 117 213 q 89 216 98 213 q 72 225 79 220 q 59 239 64 231 q 54 256 54 247 q 59 306 54 281 q 68 355 64 331 q 52 353 60 354 q 35 353 43 353 q 20 356 25 353 q 14 370 14 360 q 20 395 14 386 q 34 410 25 405 q 54 417 43 415 q 78 422 66 420 l 87 491 q 71 489 79 490 q 55 488 63 488 q 40 492 45 488 q 35 506 35 496 q 40 531 35 522 q 54 546 45 541 q 75 554 63 551 q 98 559 86 557 l 109 637 q 111 653 110 643 q 114 673 112 663 q 121 690 117 683 q 134 697 125 697 q 150 693 142 697 q 163 682 158 688 q 171 666 168 675 q 174 650 174 658 z "},"$":{"ha":323,"x_min":29,"x_max":307,"o":"m 203 79 q 203 0 204 40 q 199 -80 203 -40 q 192 -97 197 -92 q 174 -103 186 -103 q 153 -101 165 -103 q 131 -94 142 -99 q 114 -82 121 -90 q 106 -62 106 -74 q 107 -47 106 -54 q 109 -33 108 -40 q 116 25 113 -4 q 123 83 119 54 q 53 126 77 93 q 29 206 29 160 q 30 230 29 215 q 35 260 31 245 q 45 286 38 275 q 64 297 52 297 q 88 291 75 297 q 109 278 101 284 q 124 264 119 272 q 128 244 128 256 q 125 218 128 231 q 121 191 121 205 q 131 163 121 175 q 158 151 140 151 q 181 156 170 151 q 201 170 193 161 q 214 190 209 178 q 219 213 219 201 q 217 231 219 222 q 211 248 214 240 q 145 389 180 320 q 71 526 109 458 q 44 584 57 554 q 31 646 31 614 q 38 687 31 667 q 58 722 45 706 q 89 749 71 738 q 125 768 106 761 q 117 828 121 798 q 113 887 113 859 q 120 910 113 905 q 143 916 127 916 q 159 914 149 916 q 179 909 169 912 q 197 901 189 906 q 207 890 205 897 q 209 882 209 886 q 210 873 210 878 q 209 858 210 865 q 207 842 208 850 l 207 770 q 237 757 222 766 q 263 737 252 749 q 281 710 275 725 q 288 677 288 694 q 267 655 288 655 q 233 664 245 655 q 212 682 221 672 q 194 701 203 692 q 169 709 184 709 q 146 704 157 709 q 129 689 136 699 q 117 669 121 680 q 113 647 113 658 q 126 597 113 621 q 151 551 139 572 q 200 459 177 505 q 248 366 224 413 q 267 330 256 349 q 287 291 277 311 q 301 252 296 272 q 307 212 307 232 q 299 168 307 188 q 276 131 290 147 q 243 103 262 115 q 203 85 224 92 l 203 79 z "},"%":{"ha":654,"x_min":18,"x_max":638,"o":"m 258 627 q 257 582 258 607 q 252 530 256 557 q 240 478 248 504 q 219 433 232 453 q 186 400 205 412 q 140 388 167 388 q 93 401 112 388 q 61 434 73 414 q 41 479 48 454 q 31 528 34 504 q 21 592 24 559 q 18 658 18 625 q 21 723 18 690 q 35 787 24 755 q 31 794 33 790 q 29 802 29 798 q 29 806 29 804 q 31 811 29 808 q 47 843 37 827 q 71 871 58 859 q 100 891 84 884 q 136 899 117 899 q 184 885 164 899 q 218 846 204 870 q 239 793 231 823 q 252 733 248 763 q 257 674 256 703 q 258 627 258 646 m 182 604 q 182 637 182 617 q 179 680 181 657 q 174 725 177 702 q 165 770 170 749 q 154 810 161 792 q 138 838 146 827 q 113 795 122 815 q 98 756 103 776 q 92 714 93 736 q 90 665 90 692 q 91 636 90 656 q 94 592 92 616 q 100 541 96 567 q 109 492 104 514 q 122 456 115 471 q 139 442 130 442 q 146 446 142 442 q 152 455 149 450 q 158 466 155 460 q 162 475 161 471 q 178 538 174 505 q 182 604 182 571 m 478 785 q 472 755 478 770 q 459 726 465 740 q 354 441 405 583 q 256 156 304 299 q 250 137 254 150 q 242 111 246 124 q 234 85 238 97 q 227 71 230 74 q 214 64 222 64 q 198 67 207 64 q 180 75 189 70 q 166 87 172 80 q 161 102 161 94 q 169 132 161 108 q 190 194 176 157 q 220 277 203 231 q 255 372 237 323 q 292 469 273 421 q 326 558 310 517 q 353 630 341 599 q 370 674 364 661 l 405 765 q 413 788 409 777 q 422 810 417 800 q 430 820 426 816 q 441 825 434 825 q 468 812 457 825 q 478 785 478 800 m 638 274 q 637 229 638 254 q 631 178 635 204 q 620 126 627 151 q 598 80 612 100 q 566 47 585 60 q 520 35 547 35 q 472 48 492 35 q 440 81 453 61 q 421 126 428 102 q 410 175 414 151 q 401 240 404 207 q 398 305 398 273 q 401 370 398 338 q 414 434 404 402 q 411 441 412 437 q 409 449 409 445 q 409 453 409 451 q 410 458 409 455 q 427 491 417 475 q 451 519 437 507 q 480 539 464 531 q 516 547 496 547 q 564 532 544 547 q 597 494 584 517 q 619 440 611 470 q 631 380 627 410 q 637 322 635 350 q 638 274 638 294 m 562 251 q 562 284 562 264 q 559 327 561 304 q 553 373 557 349 q 545 418 550 396 q 533 457 541 439 q 517 486 526 475 q 492 443 502 463 q 478 403 483 423 q 471 361 473 383 q 470 312 470 339 q 471 283 470 303 q 474 239 472 264 q 480 188 476 214 q 489 140 484 161 q 502 104 494 118 q 519 90 509 90 q 526 94 522 90 q 532 103 529 98 q 538 113 535 108 q 542 122 541 119 q 558 185 553 153 q 562 251 562 218 z "},"&":{"ha":397,"x_min":14,"x_max":406,"o":"m 230 134 q 181 235 204 184 q 140 339 159 286 q 118 254 128 298 q 108 167 108 210 q 109 142 108 157 q 115 113 111 127 q 127 88 119 98 q 149 77 135 77 q 171 83 159 77 q 193 98 182 90 q 214 117 204 107 q 230 134 223 127 m 161 680 q 172 715 166 696 q 182 752 178 733 q 190 791 187 772 q 193 829 193 810 q 192 840 193 834 q 188 850 191 845 q 182 852 184 852 q 178 852 180 852 l 174 852 q 166 833 169 844 q 162 810 163 823 q 160 787 160 798 q 159 766 159 775 l 159 741 q 159 710 159 725 q 161 680 159 695 m 406 334 q 400 279 406 308 q 383 222 393 250 q 359 167 372 193 q 330 119 345 140 q 342 98 333 114 q 362 66 352 83 q 379 34 372 49 q 387 16 387 20 q 383 6 387 10 q 372 1 378 3 q 359 -2 366 -1 q 348 -3 353 -3 q 321 2 332 -3 q 302 14 311 6 q 288 32 294 21 q 273 54 281 42 q 215 15 247 31 q 147 0 183 0 q 84 14 110 0 q 43 50 59 27 q 21 103 28 73 q 14 165 14 133 q 22 249 14 205 q 42 336 30 292 q 69 421 54 380 q 97 500 83 463 q 77 631 85 565 q 70 764 70 698 q 73 821 70 792 q 87 873 76 850 q 120 910 98 896 q 177 925 141 925 q 220 918 200 925 q 254 899 239 911 q 276 867 268 886 q 284 825 284 848 q 274 743 284 787 q 249 654 264 699 q 217 566 234 609 q 188 486 201 522 q 227 350 203 416 q 280 218 250 284 q 301 286 294 252 q 307 355 307 319 q 312 377 307 369 q 333 385 317 385 q 358 382 345 385 q 382 373 371 379 q 399 357 393 367 q 406 334 406 347 z "},"'":{"ha":126,"x_min":10,"x_max":111,"o":"m 111 849 q 109 755 111 802 q 108 662 108 709 q 107 648 108 654 q 105 635 107 641 q 98 626 103 629 q 85 623 94 623 q 45 634 62 623 q 24 670 27 646 q 21 704 22 688 q 20 738 21 720 q 13 803 16 770 q 10 868 10 836 q 16 889 10 882 q 36 897 22 897 q 61 895 47 897 q 85 887 74 892 q 103 873 96 882 q 111 849 111 864 z "},"(":{"ha":258,"x_min":12,"x_max":289,"o":"m 289 -52 q 280 -68 289 -60 q 259 -83 271 -77 q 234 -93 247 -89 q 214 -96 222 -96 q 189 -89 201 -96 q 166 -71 176 -82 q 146 -48 155 -60 q 130 -26 137 -36 q 72 85 94 27 q 36 204 49 143 q 17 328 22 265 q 12 453 12 391 q 19 591 12 517 q 44 738 26 665 q 90 878 61 811 q 160 994 118 945 q 169 1004 163 998 q 179 1014 174 1009 q 191 1023 185 1019 q 203 1027 197 1027 q 218 1022 212 1027 q 230 1009 225 1017 q 238 992 235 1001 q 241 977 241 983 q 235 955 241 969 q 219 925 228 941 q 201 894 210 909 q 187 871 192 880 q 153 777 167 827 q 130 676 139 728 q 118 572 121 624 q 114 473 114 521 q 118 361 114 419 q 134 245 123 303 q 165 133 145 188 q 214 33 184 79 q 238 1 226 15 q 267 -26 250 -14 q 281 -37 273 -31 q 289 -52 289 -42 z "},")":{"ha":258,"x_min":-31,"x_max":246,"o":"m 246 476 q 239 339 246 413 q 215 193 232 266 q 169 53 197 119 q 98 -64 140 -14 q 90 -74 95 -68 q 79 -84 85 -79 q 66 -93 73 -90 q 55 -96 60 -96 q 40 -91 47 -96 q 27 -78 33 -86 q 20 -62 22 -71 q 17 -46 17 -54 q 24 -24 17 -39 q 39 6 31 -10 q 57 36 48 22 q 70 60 66 51 q 104 153 90 103 q 127 254 119 202 q 140 358 136 306 q 144 457 144 410 q 140 569 144 511 q 124 685 136 627 q 94 797 113 743 q 44 897 74 850 q 20 929 32 914 q -9 956 9 944 q -23 967 -15 962 q -31 982 -31 972 q -22 999 -31 991 q -1 1013 -13 1007 q 23 1023 11 1019 q 43 1027 35 1027 q 69 1020 56 1027 q 92 1002 81 1013 q 111 979 102 991 q 127 956 120 966 q 185 845 162 903 q 222 726 209 787 q 241 602 235 665 q 246 476 246 538 z "},"*":{"ha":471,"x_min":22,"x_max":450,"o":"m 236 576 q 206 546 220 559 q 179 521 192 533 q 152 496 165 509 q 121 468 138 484 q 107 458 115 462 q 92 454 100 454 q 73 459 85 454 q 51 470 62 463 q 33 485 41 477 q 26 502 26 494 q 29 514 26 509 q 35 524 32 518 q 46 533 38 526 q 64 548 54 539 q 88 566 75 556 q 113 586 100 576 q 179 636 143 608 q 116 660 144 648 q 92 670 104 665 q 70 679 80 675 q 52 687 60 684 q 42 693 45 691 q 27 708 32 701 q 22 728 22 716 q 24 746 22 735 q 32 767 27 757 q 44 786 37 778 q 60 793 52 793 q 90 782 68 793 q 132 758 111 771 q 187 722 158 741 q 182 778 184 751 q 179 826 180 802 q 178 868 178 851 q 183 889 178 882 q 203 897 189 897 q 228 895 215 897 q 253 887 241 892 q 271 872 264 882 q 278 849 278 863 q 278 811 278 833 q 277 766 277 788 q 277 715 277 741 q 337 762 309 741 q 360 779 349 770 q 383 793 372 787 q 401 803 393 800 q 412 807 409 807 q 427 799 420 807 q 439 781 434 791 q 447 760 444 770 q 450 742 450 749 q 430 707 450 719 q 419 700 427 705 q 401 690 411 696 q 378 679 391 685 q 354 667 366 673 q 292 636 326 652 q 358 586 328 608 q 384 566 371 576 q 407 548 396 556 q 425 533 417 539 q 435 524 433 526 q 443 514 439 518 q 446 502 446 509 q 438 485 446 494 q 420 470 431 477 q 398 459 410 463 q 380 454 387 454 q 363 458 370 454 q 350 468 356 462 q 319 496 333 484 q 292 521 305 509 q 265 546 279 533 q 236 576 252 559 z "},"+":{"ha":360,"x_min":12,"x_max":349,"o":"m 224 271 q 213 254 224 258 q 191 251 202 251 q 143 261 161 251 q 125 307 125 272 l 125 441 q 81 439 103 439 q 37 439 59 439 q 20 443 28 439 q 12 457 12 447 q 25 486 12 476 q 56 500 38 496 q 93 505 74 505 q 126 507 113 506 q 126 547 127 523 q 126 595 126 570 q 127 642 126 619 q 132 678 128 665 q 138 692 134 688 q 153 696 143 696 q 189 686 177 696 q 205 660 201 675 q 210 627 210 645 q 210 591 210 608 l 212 513 q 265 516 238 515 q 319 518 292 518 q 339 515 330 518 q 349 498 349 511 q 344 477 349 488 q 334 458 339 466 q 309 444 324 445 q 281 442 294 442 l 213 441 q 214 363 213 402 q 222 285 214 323 q 223 278 222 281 q 224 271 224 275 z "},",":{"ha":159,"x_min":-14,"x_max":130,"o":"m 130 65 q 116 -16 130 23 q 78 -90 102 -55 q 71 -99 75 -94 q 62 -110 67 -105 q 52 -119 58 -115 q 41 -122 47 -122 q 24 -116 34 -122 q 6 -102 14 -111 q -8 -85 -3 -94 q -14 -68 -14 -75 q -10 -55 -14 -62 q -1 -41 -6 -48 q 9 -27 4 -34 q 18 -15 15 -20 q 32 14 27 1 q 39 41 37 28 q 42 68 41 54 q 45 99 43 82 q 53 115 47 111 q 71 118 60 118 q 114 107 99 118 q 130 65 130 97 z "},"-":{"ha":296,"x_min":7,"x_max":289,"o":"m 289 525 q 285 507 289 515 q 277 488 281 496 q 268 477 273 481 q 255 471 262 473 q 235 469 247 469 l 50 469 q 38 470 45 469 q 24 472 31 470 q 12 477 17 473 q 7 488 7 481 q 18 517 7 505 q 46 533 30 530 q 73 535 60 535 q 100 537 87 536 q 178 542 139 539 q 256 544 216 544 q 267 544 261 544 q 278 542 273 543 q 286 536 283 540 q 289 525 289 532 z "},".":{"ha":148,"x_min":24,"x_max":120,"o":"m 24 73 q 28 84 24 80 q 40 89 33 87 q 55 91 47 91 q 67 91 62 91 q 83 91 74 91 q 100 88 92 90 q 114 80 109 85 q 120 66 120 75 q 120 52 120 63 q 119 28 119 41 q 118 4 119 15 q 117 -7 118 -6 q 103 -15 112 -14 q 87 -16 95 -16 q 56 -14 66 -16 q 41 -6 46 -12 q 36 11 37 0 q 32 39 35 22 q 27 56 30 47 q 24 73 24 64 z "},"/":{"ha":321,"x_min":10,"x_max":306,"o":"m 306 936 q 300 888 306 911 q 288 841 294 865 q 247 641 267 741 q 205 441 227 542 q 163 239 185 340 q 123 38 140 139 q 120 18 121 28 q 115 -3 119 7 q 105 -19 112 -13 q 86 -26 98 -26 q 63 -22 77 -26 q 38 -12 50 -18 q 18 4 26 -5 q 10 24 10 13 q 11 33 10 28 q 12 41 12 37 q 33 138 22 90 q 56 236 45 187 l 191 837 q 197 868 193 848 q 205 910 201 889 q 214 951 210 932 q 223 978 219 970 q 231 988 227 985 q 243 991 235 991 q 266 987 254 991 q 286 975 277 983 q 300 958 295 968 q 306 936 306 947 z "},":":{"ha":205,"x_min":52,"x_max":149,"o":"m 52 73 q 57 84 52 80 q 69 89 62 87 q 83 91 76 91 q 96 91 90 91 q 112 91 102 91 q 129 88 121 90 q 143 80 137 85 q 149 66 149 75 q 148 52 149 63 q 148 28 148 41 q 147 4 147 15 q 146 -7 146 -6 q 132 -15 140 -14 q 116 -16 123 -16 q 85 -14 95 -16 q 70 -6 75 -12 q 64 11 65 0 q 60 39 63 22 q 55 56 58 47 q 52 73 52 64 m 52 480 q 57 491 52 487 q 69 496 62 494 q 83 498 76 498 q 96 498 90 498 q 112 497 102 498 q 129 495 121 497 q 143 487 137 492 q 149 473 149 482 q 148 459 149 470 q 148 435 148 448 q 147 411 147 422 q 146 400 146 401 q 132 392 140 393 q 116 391 123 391 q 85 393 95 391 q 70 401 75 395 q 64 418 65 407 q 60 446 63 429 q 55 463 58 454 q 52 480 52 471 z "},";":{"ha":203,"x_min":6,"x_max":150,"o":"m 150 65 q 136 -16 150 23 q 98 -90 123 -55 q 91 -99 95 -94 q 83 -110 87 -105 q 73 -119 78 -115 q 62 -122 67 -122 q 44 -116 54 -122 q 26 -102 35 -111 q 12 -85 18 -94 q 6 -68 6 -75 q 10 -55 6 -62 q 19 -41 14 -48 q 30 -27 24 -34 q 39 -15 35 -20 q 52 14 47 1 q 59 41 57 28 q 62 68 61 54 q 66 99 63 82 q 74 115 67 111 q 92 118 80 118 q 135 107 119 118 q 150 65 150 97 m 54 480 q 58 491 54 487 q 70 496 63 494 q 84 498 77 498 q 97 498 92 498 q 113 497 104 498 q 130 495 122 497 q 144 487 138 492 q 150 473 150 482 q 150 459 150 470 q 149 435 149 448 q 148 411 149 422 q 146 400 146 401 q 133 392 142 393 q 116 391 124 391 q 85 393 96 391 q 71 401 75 395 q 65 418 66 407 q 60 446 63 429 q 56 463 59 454 q 54 480 54 471 z "},"<":{"ha":304,"x_min":12,"x_max":286,"o":"m 286 250 q 278 237 286 242 q 260 229 271 232 q 240 225 250 226 q 223 224 229 224 q 202 229 211 224 q 185 243 193 233 q 161 272 177 252 q 126 317 145 292 q 86 370 106 342 q 49 424 66 398 q 22 469 33 449 q 12 499 12 489 q 22 533 12 517 q 40 563 32 549 l 139 747 q 146 763 142 753 q 156 780 151 772 q 167 794 161 788 q 181 800 174 800 q 196 796 189 800 q 210 786 203 792 q 219 772 216 780 q 223 758 223 765 q 219 738 223 747 q 211 719 215 728 q 155 609 183 664 q 100 499 127 554 q 129 451 111 476 q 166 400 146 425 q 207 350 186 374 q 245 307 227 326 q 256 294 250 301 q 270 280 263 288 q 281 264 276 273 q 286 250 286 256 z "},"=":{"ha":362,"x_min":40,"x_max":326,"o":"m 322 593 q 318 575 322 583 q 310 556 314 564 q 301 545 307 549 q 288 539 296 541 q 268 537 280 537 l 83 537 q 72 537 79 537 q 57 539 64 538 q 45 545 50 541 q 40 556 40 549 q 52 585 40 572 q 79 601 63 597 q 106 603 93 603 q 134 605 120 604 q 211 609 172 607 q 290 612 250 612 q 300 611 294 612 q 311 609 306 611 q 319 604 316 608 q 322 593 322 600 m 326 439 q 323 425 326 433 q 314 409 319 416 q 303 395 309 401 q 291 387 297 389 q 281 385 286 385 q 272 385 277 385 q 231 387 252 385 q 191 388 211 388 q 131 387 161 388 q 71 385 101 385 q 60 386 66 385 q 51 388 55 386 q 43 393 46 389 q 40 403 40 396 q 51 432 40 420 q 78 448 62 444 q 105 451 92 451 q 134 453 119 452 q 203 458 168 456 q 275 460 239 460 q 288 459 279 460 q 306 457 297 459 q 320 451 314 455 q 326 439 326 447 z "},">":{"ha":303,"x_min":17,"x_max":291,"o":"m 291 525 q 288 509 291 517 q 280 493 285 500 q 271 477 276 485 q 262 463 266 469 l 163 278 q 156 263 160 272 q 147 245 152 254 q 135 230 142 236 q 121 224 129 224 q 106 228 114 224 q 93 238 99 232 q 83 252 87 244 q 79 267 79 260 q 83 287 79 277 q 92 305 87 297 q 147 416 119 361 q 203 526 175 470 q 174 575 191 549 q 136 626 156 600 q 95 675 116 651 q 58 719 75 699 q 46 730 53 724 q 33 745 39 737 q 22 760 26 752 q 17 774 17 767 q 24 788 17 783 q 42 795 32 793 q 63 799 52 798 q 79 800 73 800 q 100 795 92 800 q 117 783 109 791 q 141 753 125 773 q 177 708 157 733 q 216 655 196 683 q 253 601 237 627 q 280 555 270 576 q 291 525 291 535 z "},"?":{"ha":429,"x_min":26,"x_max":387,"o":"m 387 730 q 381 620 387 675 q 356 514 376 565 q 324 448 344 482 q 285 378 304 414 q 252 308 266 343 q 238 240 238 273 q 239 224 238 232 q 239 209 239 217 q 233 180 239 191 q 205 168 226 168 q 178 172 194 168 q 151 182 161 176 q 130 201 135 190 q 125 231 125 212 q 136 299 125 266 q 161 362 146 332 q 195 423 177 393 q 230 483 214 453 q 274 608 262 543 q 286 742 286 674 q 284 774 286 755 q 278 814 282 793 q 268 854 274 834 q 251 891 261 875 q 227 917 241 907 q 195 926 213 926 q 158 912 172 926 q 136 878 144 898 q 124 834 127 857 q 121 795 121 812 q 127 756 121 776 q 141 719 134 736 q 155 690 149 702 q 161 675 161 678 q 155 665 161 669 q 141 658 149 661 q 125 655 133 656 q 112 654 117 654 q 70 669 86 654 q 43 708 53 685 q 30 756 34 730 q 26 802 26 782 q 36 876 26 840 q 66 941 45 913 q 117 987 86 970 q 191 1005 148 1005 q 288 980 250 1005 q 348 916 326 956 q 379 828 370 877 q 387 730 387 779 m 142 73 q 146 84 142 80 q 158 89 151 87 q 173 91 165 91 q 185 91 180 91 q 201 91 192 91 q 218 88 210 90 q 232 80 227 85 q 238 66 238 75 q 238 52 238 63 q 237 28 237 41 q 236 4 237 15 q 234 -7 235 -6 q 221 -15 230 -14 q 204 -16 212 -16 q 174 -14 184 -16 q 159 -6 163 -12 q 153 11 155 0 q 149 39 151 22 q 144 56 147 47 q 142 73 142 64 z "},"@":{"ha":371,"x_min":23,"x_max":350,"o":"m 201 568 q 172 539 183 557 q 155 500 161 521 q 146 457 149 479 q 144 416 144 435 q 144 407 144 411 q 145 397 144 403 q 163 434 155 412 q 179 480 172 456 q 192 527 186 504 q 201 568 197 551 m 350 571 q 348 538 350 558 q 342 494 347 517 q 332 448 338 471 q 315 405 325 424 q 292 374 305 386 q 260 362 278 362 q 229 377 240 362 q 213 411 217 393 q 202 387 208 399 q 189 364 197 374 q 170 346 180 353 q 145 339 159 339 q 118 347 129 339 q 101 366 107 354 q 92 392 95 378 q 90 419 90 406 q 94 475 90 446 q 109 530 98 504 q 136 579 119 557 q 179 616 153 601 q 195 625 187 621 q 213 629 203 628 q 224 643 217 637 q 240 648 231 648 q 256 644 250 648 q 266 633 262 640 q 270 617 269 626 q 271 601 271 609 q 266 528 271 564 q 260 454 260 491 q 261 442 260 448 q 263 430 262 436 q 276 460 271 442 q 286 497 282 478 q 291 536 290 517 q 293 570 293 555 q 290 610 293 589 q 279 651 287 632 q 256 682 271 669 q 217 694 241 694 q 174 682 193 694 q 140 650 155 670 q 114 606 125 631 q 97 555 104 581 q 86 504 90 529 q 83 461 83 479 q 85 414 83 442 q 97 360 88 387 q 120 316 105 334 q 161 297 136 297 q 185 302 174 297 q 206 313 196 307 q 223 323 216 319 q 236 328 231 328 q 245 323 241 328 q 252 312 250 319 q 256 299 255 306 q 258 288 258 292 q 247 264 258 274 q 220 249 235 255 q 188 239 204 242 q 161 236 172 236 q 114 247 134 236 q 77 274 93 257 q 52 315 62 292 q 35 362 41 338 q 26 412 28 387 q 23 458 23 437 q 28 519 23 486 q 42 584 33 551 q 68 647 52 616 q 105 700 83 677 q 154 738 126 724 q 216 751 182 751 q 279 735 253 751 q 320 693 304 719 q 343 635 336 667 q 350 571 350 603 z "},"A":{"ha":503,"x_min":28,"x_max":530,"o":"m 530 373 q 520 343 530 359 q 498 320 510 328 q 486 316 494 318 q 469 312 478 314 q 451 309 460 311 q 438 307 443 307 l 454 206 q 466 112 462 159 q 483 19 469 65 q 486 12 484 15 q 487 3 487 8 q 482 -11 487 -6 q 470 -18 477 -16 q 454 -21 463 -20 q 439 -22 446 -22 l 430 -22 q 398 -18 409 -22 q 380 -7 387 -15 q 372 14 374 1 q 368 45 370 26 q 331 293 351 169 q 247 283 289 288 q 161 274 204 278 l 140 141 q 136 108 138 129 q 131 65 134 87 q 124 24 127 43 q 115 -4 120 5 q 108 -16 111 -12 q 95 -19 104 -19 q 71 -15 83 -19 q 50 -2 59 -10 q 35 16 41 5 q 30 41 30 27 q 33 68 30 54 q 38 95 36 81 q 52 184 45 140 q 65 273 58 229 q 54 275 60 273 q 42 279 48 277 q 33 286 37 282 q 28 296 28 290 q 34 308 28 302 q 46 319 39 314 q 60 328 53 324 q 73 334 68 332 q 100 523 87 429 q 123 713 113 617 q 128 766 126 739 q 133 819 130 792 q 139 871 135 845 q 149 922 142 897 q 170 962 155 947 q 212 977 184 977 q 228 975 220 977 q 241 970 235 974 q 278 922 259 961 q 316 826 297 882 q 352 705 335 770 q 384 579 370 640 q 408 469 398 518 q 423 396 418 420 q 452 400 437 398 q 480 401 466 401 q 496 401 487 401 q 512 397 505 400 q 525 388 520 394 q 530 373 530 382 m 317 378 q 279 569 300 475 q 231 758 258 664 q 204 555 218 656 q 174 353 190 454 q 246 365 210 358 q 317 378 281 371 z "},"B":{"ha":525,"x_min":31,"x_max":510,"o":"m 510 266 q 485 127 510 186 q 414 29 459 68 q 306 -30 368 -10 q 168 -49 243 -49 l 145 -49 q 125 -48 138 -49 q 97 -46 111 -48 q 73 -38 83 -43 q 62 -23 62 -33 q 67 -2 62 -12 q 81 17 73 9 q 99 32 89 26 q 119 39 109 37 q 111 58 114 46 q 106 82 109 69 q 103 107 104 95 q 102 129 102 120 q 81 338 90 234 q 72 549 72 443 q 74 684 72 617 q 77 818 76 750 q 78 873 79 846 q 80 928 78 900 q 71 926 76 926 q 61 926 66 926 q 41 930 51 926 q 31 948 31 934 q 39 977 31 966 q 58 993 46 987 q 84 1001 69 999 q 113 1002 98 1002 q 239 986 178 1002 q 347 936 300 970 q 422 849 393 902 q 450 724 450 797 q 429 610 450 665 q 365 514 407 556 q 430 472 403 498 q 475 413 458 446 q 502 343 493 380 q 510 266 510 305 m 347 734 q 334 806 347 774 q 298 861 321 838 q 243 899 275 884 q 174 921 212 913 q 175 915 175 918 q 175 910 175 912 q 174 783 175 846 q 172 656 172 720 l 172 586 q 173 558 172 572 q 174 530 174 545 q 209 538 191 538 q 245 538 227 538 q 322 622 296 570 q 347 734 347 674 m 408 267 q 402 330 408 300 q 382 386 397 361 q 345 430 368 412 q 288 457 322 448 q 178 418 236 428 q 191 265 183 341 q 213 113 199 189 q 221 78 216 95 q 227 42 225 60 q 306 67 272 48 q 363 116 340 87 q 397 184 386 146 q 408 267 408 223 z "},"C":{"ha":551,"x_min":36,"x_max":557,"o":"m 557 201 q 554 181 557 191 q 547 161 551 171 q 511 90 532 123 q 460 33 489 57 q 396 -4 432 9 q 317 -18 360 -18 q 218 7 259 -18 q 147 70 176 31 q 99 157 118 109 q 70 254 81 205 q 45 394 54 323 q 36 534 36 464 q 40 620 36 576 q 53 707 43 664 q 79 790 62 750 q 119 865 95 831 q 177 926 144 899 q 256 967 211 952 q 290 976 272 973 q 325 978 307 978 q 392 966 360 978 q 448 934 424 955 q 486 883 472 913 q 500 817 500 853 q 494 798 500 804 q 475 792 489 792 q 436 800 450 792 q 414 821 422 808 q 399 847 405 833 q 385 873 393 861 q 363 894 377 886 q 326 902 350 902 q 282 893 302 902 q 244 869 261 884 q 213 835 227 854 q 188 798 199 817 q 148 685 159 745 q 136 564 136 625 q 138 512 136 544 q 143 441 140 479 q 154 359 147 402 q 171 275 161 316 q 194 195 180 233 q 226 129 208 157 q 267 83 244 100 q 318 66 290 66 q 370 82 347 66 q 408 120 392 97 q 434 171 424 144 q 451 222 445 199 q 455 235 453 229 q 459 244 456 240 q 467 250 463 248 q 481 252 472 252 q 504 249 490 252 q 529 238 517 245 q 549 222 541 231 q 557 201 557 212 z "},"D":{"ha":543,"x_min":52,"x_max":524,"o":"m 524 486 q 511 343 524 413 q 469 212 498 273 q 391 101 439 151 q 273 19 343 51 q 235 4 256 11 q 192 -7 214 -3 q 149 -15 170 -12 q 108 -18 127 -18 q 91 -17 100 -18 q 74 -15 82 -17 q 60 -7 66 -12 q 55 8 55 -1 q 58 25 55 16 q 67 42 62 34 q 80 57 73 50 q 94 66 87 63 q 88 97 91 72 q 82 161 85 122 q 78 247 80 199 q 74 346 76 295 q 72 447 73 397 q 70 541 71 498 q 69 615 69 583 q 68 661 68 646 q 71 786 68 724 q 73 911 73 848 q 59 916 65 911 q 52 928 52 920 q 58 948 52 939 q 72 964 63 957 q 91 974 80 970 q 111 978 101 978 q 129 976 120 978 q 147 972 138 975 q 308 907 237 951 q 426 800 378 863 q 499 657 474 736 q 524 486 524 578 m 424 498 q 408 626 424 566 q 359 735 391 686 q 278 824 327 785 q 166 887 230 862 l 166 884 q 172 537 166 709 q 189 191 178 366 q 193 139 191 165 q 199 87 195 113 q 306 152 262 108 q 375 253 349 196 q 413 373 401 309 q 424 498 424 437 z "},"E":{"ha":505,"x_min":54,"x_max":521,"o":"m 521 148 q 512 125 521 136 q 490 104 503 115 q 463 86 477 94 q 441 72 450 77 q 395 44 418 57 q 348 22 372 31 q 299 7 324 12 q 245 1 273 1 l 235 0 q 190 5 212 0 q 149 21 168 10 q 115 47 130 31 q 92 87 100 64 q 83 130 86 105 q 78 182 79 155 q 75 236 76 210 q 73 282 74 262 q 57 697 63 490 q 55 745 56 721 q 54 792 54 768 q 59 861 54 833 q 78 908 64 890 q 119 935 92 926 q 190 943 146 943 q 278 942 234 943 q 368 941 323 941 q 395 942 381 941 q 422 940 408 943 q 436 936 430 939 q 442 922 442 932 q 426 886 442 898 q 387 870 410 874 q 341 866 365 866 q 301 867 317 867 l 213 867 q 186 867 199 867 q 159 865 172 867 q 153 844 155 855 q 152 822 152 833 q 156 676 152 748 q 163 530 159 604 q 246 538 205 534 q 330 549 288 543 q 341 550 336 549 q 351 551 346 551 q 371 543 366 551 q 377 522 377 536 q 376 505 377 513 q 372 488 375 496 q 356 469 367 475 q 332 460 345 463 q 303 458 318 458 q 278 457 289 458 q 222 455 250 456 q 167 453 195 454 q 169 410 168 439 q 172 346 170 382 q 176 273 174 311 q 181 201 178 235 q 187 142 184 168 q 194 109 191 117 q 211 90 201 94 q 236 85 220 85 q 289 95 261 85 q 343 120 317 105 q 394 154 370 136 q 435 190 418 172 q 450 202 443 196 q 468 209 458 209 q 488 203 478 209 q 505 188 497 197 q 516 168 512 178 q 521 148 521 157 z "},"F":{"ha":431,"x_min":55,"x_max":443,"o":"m 443 922 q 432 890 443 902 q 405 873 421 879 q 370 867 389 868 q 337 865 352 865 q 277 866 307 865 q 218 867 248 867 q 189 867 203 867 q 161 865 175 867 q 154 842 155 854 q 153 818 153 830 q 157 692 153 754 q 168 566 162 629 q 249 574 208 569 q 332 585 290 578 q 342 585 337 585 q 352 586 347 586 q 379 556 379 586 q 377 540 379 548 q 372 524 376 532 q 357 504 368 510 q 332 495 346 497 q 304 493 319 492 q 279 492 290 493 l 173 488 q 182 361 177 424 q 192 233 186 298 q 201 135 197 184 q 212 37 205 85 l 212 26 q 203 5 212 10 q 181 0 195 0 q 134 8 156 0 q 111 21 119 14 q 101 39 104 29 q 97 60 98 49 q 96 85 96 72 q 82 289 90 188 q 68 494 75 391 q 60 644 64 570 q 55 795 55 719 q 60 863 55 835 q 79 909 65 891 q 120 935 94 926 q 189 943 146 943 q 277 942 233 943 q 364 941 320 941 q 394 942 380 941 q 422 940 408 943 q 437 936 431 939 q 443 922 443 932 z "},"G":{"ha":589,"x_min":36,"x_max":570,"o":"m 570 487 q 563 453 570 465 q 542 435 555 441 q 513 428 529 429 q 481 426 497 427 q 539 338 517 388 q 561 236 561 289 q 543 134 561 184 q 493 45 526 84 q 415 -17 460 7 q 314 -41 370 -41 q 235 -24 270 -41 q 172 23 199 -7 q 123 91 144 52 q 87 175 102 130 q 62 267 72 219 q 46 359 52 314 q 38 446 41 405 q 36 519 36 487 q 40 601 36 557 q 52 688 43 644 q 76 774 61 732 q 114 852 91 817 q 169 915 137 888 q 242 955 200 941 q 273 963 258 960 q 304 966 289 966 q 417 929 372 966 q 485 830 463 892 q 492 811 489 821 q 494 791 494 801 q 486 775 494 779 q 467 772 477 772 q 428 781 443 772 q 403 802 413 789 q 385 831 393 815 q 368 859 377 846 q 344 881 358 872 q 306 890 330 890 q 246 871 272 890 q 201 821 220 852 q 170 751 182 790 q 149 673 157 712 q 138 598 142 634 q 135 537 135 562 q 138 464 135 511 q 150 362 142 417 q 171 251 157 307 q 204 148 184 194 q 251 73 224 102 q 315 43 279 43 q 373 62 347 43 q 417 109 399 81 q 444 169 435 137 q 454 229 454 201 q 446 282 454 256 q 425 331 439 308 q 393 375 412 355 q 351 408 374 395 q 333 418 342 414 q 313 426 323 422 q 292 428 307 427 q 260 431 276 429 q 231 437 243 433 q 218 450 218 441 q 222 475 218 463 q 234 498 226 488 q 252 515 241 509 q 276 522 262 522 q 318 516 296 522 q 359 503 341 511 q 426 508 393 505 q 492 514 459 510 q 514 517 503 515 q 538 519 526 519 q 562 512 554 519 q 570 487 570 505 z "},"H":{"ha":589,"x_min":45,"x_max":568,"o":"m 568 528 q 553 485 568 497 q 509 467 537 472 q 516 259 515 362 q 518 52 518 156 q 511 26 518 35 q 487 18 505 18 q 457 21 472 18 q 431 32 443 24 q 413 51 420 39 q 406 80 406 62 l 406 292 q 406 372 406 332 q 404 452 406 412 q 288 438 346 444 q 171 430 229 432 q 179 141 173 286 q 183 83 181 111 q 186 26 186 54 q 178 5 186 12 q 157 -1 171 -1 q 136 0 147 -1 q 113 6 124 2 q 92 16 102 10 q 77 31 83 22 q 74 52 75 35 q 72 94 73 68 q 70 153 71 120 q 69 220 69 185 q 69 288 69 254 q 69 350 69 321 q 69 399 69 378 q 69 429 69 420 q 52 433 60 429 q 45 448 45 437 q 52 471 45 460 q 69 490 59 482 l 69 899 q 74 921 69 913 q 94 929 79 929 q 131 922 117 929 q 152 904 144 916 q 161 875 159 892 q 164 840 163 859 q 167 674 166 757 q 170 509 168 591 q 286 520 228 514 q 401 537 343 526 q 393 680 398 609 q 378 822 388 750 q 366 889 373 856 q 358 958 358 923 q 367 973 358 970 q 387 977 376 977 q 419 971 403 977 q 446 952 436 966 q 459 915 452 943 q 472 848 466 887 q 483 765 477 810 q 492 679 488 720 q 499 605 496 638 q 503 557 503 572 q 520 561 511 559 q 537 563 529 563 q 561 553 553 563 q 568 528 568 543 z "},"I":{"ha":450,"x_min":-5,"x_max":447,"o":"m 447 98 q 437 61 447 78 q 409 35 427 43 q 382 30 404 33 q 337 26 361 28 q 291 22 313 24 q 260 19 269 20 q 249 3 258 7 q 230 -1 240 -1 q 203 2 218 -1 q 177 9 189 5 q 115 1 146 5 q 52 -4 84 -4 q 28 19 28 -4 q 41 54 28 42 q 72 73 54 66 q 111 81 90 79 q 149 85 132 83 q 141 468 145 278 q 138 850 138 658 q 83 847 110 848 q 31 845 57 845 q 19 845 25 845 q 8 847 13 846 q -1 853 3 849 q -5 864 -5 857 q 1 887 -5 877 q 15 903 6 897 q 35 913 24 909 q 58 920 46 918 q 117 929 87 925 q 177 936 147 932 q 238 944 208 940 q 298 955 268 948 q 355 971 326 961 q 413 981 383 981 q 435 969 429 981 q 440 943 440 957 q 438 921 440 931 q 428 901 435 910 q 410 890 424 895 q 377 881 396 885 q 335 873 357 877 q 293 866 313 869 q 255 861 272 863 q 230 859 238 859 q 240 670 237 764 q 245 481 243 576 q 250 293 248 387 q 257 104 252 199 q 335 116 296 111 q 414 122 374 122 q 436 117 426 122 q 447 98 447 112 z "},"J":{"ha":595,"x_min":9,"x_max":606,"o":"m 606 925 q 594 885 606 898 q 564 866 582 871 q 524 860 545 861 q 484 856 503 859 l 447 852 q 466 612 463 732 q 470 370 470 492 q 468 290 470 332 q 458 206 466 248 q 437 126 451 164 q 398 59 422 88 q 338 13 374 31 q 252 -4 302 -4 q 149 21 194 -4 q 73 85 104 45 q 25 177 41 125 q 9 281 9 228 q 10 316 9 292 q 15 366 11 340 q 29 411 20 391 q 54 430 38 430 q 76 426 62 430 q 101 414 89 421 q 121 396 113 406 q 130 376 130 387 q 123 326 130 350 q 117 275 117 301 q 125 214 117 248 q 150 150 134 180 q 191 99 166 119 q 249 79 216 79 q 291 88 273 79 q 320 112 308 97 q 339 147 332 127 q 351 187 346 167 q 369 326 366 256 q 371 468 371 396 q 367 654 371 561 q 351 840 362 747 q 260 828 304 834 q 169 822 215 822 q 151 827 157 822 q 144 844 144 831 q 159 880 144 867 q 195 898 173 892 q 268 912 231 908 q 342 922 306 917 l 342 933 q 351 948 342 945 q 368 951 359 951 q 396 947 382 951 q 421 933 410 943 q 497 948 459 939 q 574 956 534 956 q 597 948 589 956 q 606 925 606 939 z "},"K":{"ha":496,"x_min":51,"x_max":528,"o":"m 528 11 q 519 -5 528 1 q 498 -16 511 -12 q 474 -22 486 -20 q 454 -24 461 -24 q 450 -25 452 -24 q 447 -24 449 -26 q 423 -15 433 -22 q 405 0 413 -9 q 389 18 397 8 q 374 39 382 28 q 272 180 319 108 q 185 332 224 252 l 177 323 l 177 61 q 176 44 177 54 q 173 27 176 35 q 165 14 170 19 q 150 8 159 8 q 114 15 128 8 q 93 34 100 22 q 82 62 85 45 q 79 98 79 78 q 78 224 79 161 q 77 351 77 288 q 79 406 77 379 q 81 460 81 432 q 73 653 81 557 q 58 845 66 749 q 53 890 56 867 q 51 935 51 912 q 62 956 51 951 q 85 962 73 962 q 144 946 123 962 q 166 890 166 930 q 170 769 166 828 q 175 623 174 695 q 177 476 176 550 q 292 673 250 568 q 356 894 334 779 q 358 911 357 901 q 363 931 360 921 q 372 948 366 941 q 387 955 378 955 q 410 951 398 955 q 430 941 421 947 q 445 924 439 934 q 451 903 451 915 q 444 846 451 873 q 429 789 437 818 q 399 683 415 732 q 362 589 383 634 q 315 500 342 544 q 250 410 288 456 l 279 353 q 359 219 315 284 q 455 96 403 155 q 491 60 473 77 q 524 22 510 43 q 528 11 528 18 z "},"L":{"ha":423,"x_min":70,"x_max":447,"o":"m 447 99 q 430 69 447 83 q 388 43 414 55 q 330 21 361 31 q 268 5 298 12 q 213 -6 238 -2 q 176 -9 188 -9 q 133 -4 153 -9 q 100 13 114 1 q 78 41 85 24 q 70 84 70 59 q 71 445 70 265 q 73 807 73 625 q 71 863 73 836 q 70 920 70 891 q 71 936 70 926 q 74 952 71 945 q 82 966 77 960 q 97 971 87 971 q 117 968 106 971 q 137 960 127 966 q 153 947 146 955 q 163 929 160 939 q 166 903 167 917 q 166 875 166 889 q 171 517 170 694 q 173 159 173 339 q 173 118 173 138 q 176 77 174 98 q 220 83 194 78 q 274 97 247 89 q 324 117 300 106 q 361 140 348 127 q 374 152 368 146 q 391 159 381 159 q 410 153 400 159 q 428 137 420 146 q 441 118 436 128 q 447 99 447 108 z "},"M":{"ha":648,"x_min":66,"x_max":604,"o":"m 604 -1 q 597 -23 604 -15 q 575 -31 591 -31 q 558 -30 567 -31 q 541 -24 549 -28 q 514 -16 524 -20 q 499 -5 505 -12 q 493 12 494 1 q 491 39 492 22 q 479 315 486 178 q 458 590 473 452 q 440 496 449 543 q 422 401 431 450 q 404 299 412 351 q 377 198 395 247 q 359 167 370 178 q 326 156 348 156 q 299 162 309 156 q 279 179 289 168 q 260 216 271 189 q 239 279 250 243 q 217 357 228 315 q 197 436 206 398 q 180 507 187 475 q 168 555 172 538 l 168 463 q 172 283 168 372 q 183 104 175 193 q 189 65 185 85 q 193 26 193 45 q 181 3 193 8 q 155 -3 169 -3 q 95 14 116 -3 q 75 71 75 31 q 71 233 75 153 q 66 396 66 314 q 67 436 66 408 q 68 504 67 465 q 70 588 68 543 q 72 681 71 634 q 75 772 73 728 q 77 852 76 817 q 80 910 79 887 q 84 939 82 934 q 92 951 87 948 q 106 954 96 954 q 149 942 132 954 q 172 905 166 931 q 194 853 182 890 q 220 765 206 815 q 247 657 233 715 q 274 545 261 599 q 297 447 286 492 q 313 378 307 402 q 353 610 333 495 q 392 842 374 726 q 399 881 395 862 q 403 920 403 900 q 399 942 403 932 q 396 964 396 953 q 405 982 396 979 q 426 985 414 985 q 452 981 437 985 q 480 971 467 978 q 504 954 494 964 q 514 930 514 944 q 510 880 514 907 q 551 651 534 766 q 575 419 567 536 q 588 220 583 319 q 601 22 593 121 q 603 10 602 16 q 604 -1 604 5 z "},"N":{"ha":541,"x_min":68,"x_max":480,"o":"m 480 56 q 478 32 480 43 q 470 11 475 20 q 454 -4 464 1 q 430 -9 445 -9 q 400 -2 412 -9 q 380 20 389 6 q 357 63 367 39 q 338 112 347 87 q 323 163 330 138 q 309 210 316 189 q 241 437 273 324 q 174 665 210 551 q 169 372 170 517 q 167 79 167 226 q 166 62 167 71 q 163 44 165 52 q 154 29 160 35 q 138 23 149 23 q 86 42 104 23 q 68 95 68 60 q 68 473 68 286 q 69 849 69 660 l 69 945 q 75 971 69 961 q 100 982 81 982 q 128 978 114 982 q 154 967 142 975 q 172 948 165 960 q 179 920 179 936 q 227 808 208 865 q 264 692 246 750 q 317 522 291 607 q 369 351 342 437 q 360 607 365 479 q 343 863 356 735 q 335 917 340 890 q 331 971 331 943 q 340 990 331 985 q 362 996 350 996 q 398 992 383 996 q 423 981 413 989 q 439 959 433 972 q 448 924 444 945 q 454 850 452 887 q 458 777 456 813 q 467 597 465 686 q 472 416 470 507 q 477 236 474 326 q 480 56 480 146 z "},"O":{"ha":534,"x_min":40,"x_max":493,"o":"m 493 521 q 492 455 493 492 q 487 374 491 417 q 476 287 484 332 q 458 199 469 242 q 429 119 446 157 q 389 52 412 81 q 334 7 365 24 q 262 -9 302 -9 q 190 9 222 -9 q 135 58 157 28 q 103 118 117 83 q 78 196 89 154 q 60 283 68 238 q 48 373 53 329 q 42 457 44 417 q 40 526 40 496 q 44 631 40 576 q 61 740 49 686 q 94 844 73 794 q 149 935 115 895 q 157 944 152 939 q 168 955 162 949 q 181 963 174 960 q 193 967 187 967 q 205 964 199 967 q 215 955 211 960 q 245 966 229 963 q 277 970 261 970 q 362 946 327 970 q 422 885 398 923 q 460 799 446 847 q 481 701 474 751 q 491 604 489 650 q 493 521 493 557 m 387 491 q 386 545 387 509 q 381 625 385 581 q 370 715 377 669 q 351 799 363 761 q 320 860 338 836 q 277 884 302 884 q 259 875 267 884 q 243 850 251 865 q 230 818 236 836 q 218 784 224 800 q 206 755 212 768 q 195 736 201 742 q 188 734 193 734 q 180 734 184 734 q 158 738 168 734 q 142 646 146 692 q 138 553 138 600 q 139 511 138 539 q 143 446 140 482 q 151 367 146 409 q 162 283 155 325 q 178 203 169 241 q 199 135 187 165 q 227 88 212 106 q 260 71 241 71 q 278 76 270 71 q 294 88 286 82 q 329 136 314 106 q 354 202 344 166 q 371 278 364 238 q 381 356 378 317 q 386 430 385 395 q 387 491 387 465 z "},"P":{"ha":484,"x_min":35,"x_max":477,"o":"m 477 730 q 455 595 477 663 q 396 468 434 527 q 304 363 357 409 q 186 293 250 317 q 196 181 191 237 q 211 69 201 125 q 215 48 213 59 q 218 26 218 37 q 209 2 218 8 q 184 -4 200 -4 q 156 -1 172 -4 q 128 7 140 1 q 110 22 115 14 q 104 43 106 30 q 90 159 92 101 q 83 274 87 216 q 61 281 70 275 q 52 301 52 287 q 60 330 52 315 q 78 353 68 345 q 73 603 72 479 q 73 853 74 727 q 66 851 69 852 q 60 850 64 850 q 48 854 53 850 q 40 863 43 858 q 36 875 37 869 q 35 887 35 882 q 45 917 35 907 q 73 933 55 926 q 73 950 73 941 q 76 969 73 960 q 83 983 78 977 q 100 989 89 989 q 134 982 117 989 q 158 959 150 975 q 204 966 182 963 q 250 970 227 970 q 346 952 304 970 q 417 902 388 934 q 461 825 446 869 q 477 730 477 781 m 375 742 q 367 801 375 773 q 342 848 359 828 q 301 880 326 868 q 242 891 276 891 q 205 888 224 891 q 169 880 186 886 q 171 634 169 756 q 180 389 172 512 q 259 452 223 412 q 321 540 295 492 q 361 641 347 589 q 375 742 375 694 z "},"Q":{"ha":600,"x_min":38,"x_max":590,"o":"m 590 -80 q 581 -95 590 -88 q 560 -108 572 -102 q 536 -116 548 -113 q 517 -119 524 -119 q 479 -103 501 -119 q 435 -65 457 -87 q 395 -21 414 -43 q 366 14 376 1 q 323 -4 346 1 q 277 -9 300 -9 q 207 5 237 -9 q 154 45 176 20 q 116 103 132 71 q 89 170 100 135 q 71 241 78 205 q 60 307 64 276 q 44 424 50 366 q 38 541 38 481 q 44 649 38 592 q 64 761 50 705 q 103 866 79 816 q 163 954 127 916 q 182 972 170 962 q 203 982 193 982 q 217 978 211 982 q 228 968 224 974 q 298 985 260 985 q 390 960 352 985 q 454 895 428 935 q 494 803 479 854 q 516 698 509 751 q 526 595 524 645 q 528 506 528 545 q 524 400 528 457 q 509 287 519 344 q 480 177 498 230 q 435 83 463 124 q 487 24 461 53 q 544 -31 513 -5 q 556 -40 549 -35 q 572 -53 564 -46 q 585 -66 579 -59 q 590 -80 590 -73 m 422 507 q 420 564 422 527 q 415 644 419 600 q 403 732 411 687 q 381 814 395 777 q 348 874 368 851 q 300 898 328 898 q 268 887 281 898 q 247 858 256 876 q 232 821 238 841 q 219 784 225 802 q 204 756 212 767 q 183 745 195 745 q 159 750 170 745 q 140 653 145 702 q 136 556 136 605 q 137 511 136 540 q 142 444 138 481 q 150 365 145 407 q 163 281 155 323 q 182 202 172 240 q 207 134 193 163 q 238 88 220 105 q 277 71 255 71 q 295 74 286 71 q 312 84 304 78 q 298 105 308 90 q 275 138 288 119 q 249 178 262 157 q 224 217 235 199 q 205 249 213 235 q 198 266 198 262 q 203 276 198 272 q 214 282 208 280 q 228 285 221 284 q 239 286 235 286 q 280 277 265 286 q 311 247 294 267 q 340 207 326 227 q 370 165 355 186 q 397 246 387 203 q 412 333 407 289 q 420 422 418 378 q 422 507 422 467 z "},"R":{"ha":530,"x_min":38,"x_max":581,"o":"m 581 3 q 572 -11 581 -5 q 553 -20 564 -16 q 531 -24 542 -23 q 514 -26 519 -26 q 492 -23 500 -26 q 472 -15 484 -21 q 456 2 469 -13 q 425 42 444 18 q 383 98 406 66 q 335 162 359 129 q 286 228 310 195 q 241 288 262 260 q 207 336 221 315 q 186 365 192 357 l 182 363 q 192 202 186 283 q 214 43 199 122 q 219 26 216 35 q 221 8 221 18 q 211 -12 221 -7 q 189 -16 201 -16 q 172 -16 182 -16 q 153 -13 163 -15 q 134 -8 142 -11 q 121 0 125 -5 q 109 17 111 8 q 104 38 106 26 q 80 312 85 174 q 75 586 75 449 q 75 703 75 646 q 77 821 76 761 q 62 826 69 821 q 50 838 55 831 q 41 853 44 845 q 38 868 38 861 q 42 883 38 876 q 51 897 45 890 q 64 908 57 903 q 76 917 71 913 l 76 929 q 76 945 76 936 q 79 961 77 954 q 87 974 81 969 q 103 979 92 979 q 132 975 117 979 q 156 958 146 970 q 263 978 207 978 q 353 958 313 978 q 423 905 394 939 q 467 829 452 872 q 483 738 483 785 q 464 639 483 687 q 414 549 445 591 q 345 470 384 506 q 266 408 306 435 q 395 240 330 323 q 529 75 460 157 q 542 60 533 70 q 559 40 550 51 q 574 18 568 28 q 581 3 581 8 m 382 749 q 374 801 382 774 q 349 850 365 828 q 310 886 332 872 q 259 901 287 901 q 215 894 237 901 q 172 878 193 888 q 175 675 174 777 q 178 473 176 574 l 190 472 q 259 522 225 492 q 321 588 294 551 q 366 666 349 625 q 382 749 382 707 z "},"S":{"ha":483,"x_min":18,"x_max":462,"o":"m 462 214 q 446 119 462 164 q 399 41 429 75 q 326 -13 369 7 q 231 -33 283 -33 q 146 -18 185 -33 q 79 23 107 -3 q 34 87 50 50 q 18 172 18 125 q 19 196 18 182 q 23 223 20 210 q 34 246 27 237 q 55 255 41 255 q 79 251 66 255 q 104 239 92 246 q 123 221 115 231 q 131 198 131 210 l 131 159 q 156 82 131 112 q 230 53 182 53 q 288 68 264 53 q 328 109 313 84 q 350 163 343 133 q 357 222 357 193 q 334 333 357 279 q 275 438 311 387 q 199 538 240 489 q 122 637 157 588 q 63 734 87 686 q 40 834 40 783 q 57 906 40 876 q 101 955 73 936 q 163 984 128 975 q 235 993 198 993 q 317 980 281 993 q 378 943 353 967 q 416 883 403 918 q 429 802 429 847 q 429 785 429 795 q 425 765 428 774 q 417 748 422 755 q 402 741 412 741 q 375 747 389 741 q 356 759 363 753 q 345 772 349 765 q 339 788 341 779 q 336 810 337 797 q 327 854 332 834 q 311 887 321 873 q 282 908 300 901 q 237 916 264 916 q 199 911 217 916 q 168 898 181 907 q 147 873 155 888 q 139 836 139 858 q 153 772 139 804 q 190 705 167 739 q 241 636 212 671 q 300 562 270 600 q 360 484 331 524 q 411 400 389 444 q 448 310 434 357 q 462 214 462 264 z "},"T":{"ha":459,"x_min":-18,"x_max":478,"o":"m 478 933 q 464 893 478 909 q 427 872 450 878 q 349 864 389 864 q 271 861 309 863 l 271 727 q 281 386 271 556 q 315 46 292 216 q 320 26 317 36 q 322 5 322 16 q 314 -18 322 -11 q 290 -26 305 -26 q 259 -23 277 -26 q 231 -14 241 -20 q 214 3 218 -5 q 208 26 210 12 q 198 122 201 74 q 192 218 195 170 q 178 424 184 321 q 173 629 173 526 q 174 741 173 686 q 174 854 174 797 q 90 846 132 850 q 5 842 47 842 q -12 847 -5 842 q -18 863 -18 852 q -3 900 -18 886 q 35 918 13 913 q 105 928 69 926 q 177 935 141 930 q 178 948 177 941 q 181 959 178 954 q 188 968 183 964 q 201 971 193 971 q 235 964 218 971 q 261 943 252 956 l 374 955 q 406 959 390 957 q 439 962 422 962 q 453 961 446 962 q 466 957 460 960 q 475 948 471 954 q 478 933 478 943 z "},"U":{"ha":565,"x_min":60,"x_max":522,"o":"m 522 416 q 519 334 522 380 q 509 241 517 289 q 488 149 502 194 q 449 68 473 104 q 389 12 425 33 q 303 -9 353 -9 q 249 -1 275 -9 q 200 23 222 7 q 141 97 165 49 q 101 207 117 146 q 77 335 85 267 q 65 469 69 404 q 61 593 62 535 q 60 693 60 652 q 60 724 60 704 q 61 769 60 745 q 62 821 61 794 q 64 871 62 847 q 67 913 65 895 q 73 940 69 932 q 80 951 76 948 q 94 955 85 955 q 143 936 125 955 q 161 887 161 918 q 159 798 161 842 q 157 708 157 753 q 157 650 157 688 q 159 564 157 612 q 165 460 161 515 q 177 350 170 404 q 195 244 184 295 q 221 155 205 194 q 256 94 236 117 q 303 71 277 71 q 347 90 328 71 q 378 141 366 110 q 398 210 391 172 q 410 284 406 248 q 416 353 414 321 q 417 403 417 385 q 415 486 417 440 q 411 581 414 532 q 402 682 408 631 q 389 782 397 734 q 372 875 382 831 q 349 954 362 919 q 343 969 347 960 q 338 985 338 979 q 343 1001 338 996 q 356 1009 349 1006 q 372 1011 363 1011 q 389 1012 381 1012 q 415 1010 405 1012 q 440 1001 426 1009 q 458 971 450 996 q 474 909 467 947 q 488 825 481 872 q 500 728 494 778 q 509 629 505 678 q 516 537 513 579 q 520 463 519 495 q 522 416 522 431 z "},"V":{"ha":492,"x_min":5,"x_max":437,"o":"m 437 677 q 411 360 437 516 q 321 54 384 203 q 327 41 323 50 q 335 22 331 32 q 342 3 339 12 q 345 -9 345 -5 q 340 -24 345 -19 q 326 -31 334 -28 q 310 -33 318 -33 q 295 -33 301 -33 q 264 -31 277 -33 q 237 -16 250 -28 q 215 25 227 -8 q 187 107 202 58 q 156 218 172 156 q 124 345 140 279 q 94 475 109 410 q 66 595 79 540 q 44 694 54 651 q 31 757 35 736 q 14 825 23 791 q 5 895 5 859 q 14 911 5 907 q 32 914 22 914 q 69 907 52 914 q 97 884 87 901 q 105 859 102 875 q 111 833 109 843 q 155 636 132 734 q 204 439 178 538 q 236 317 220 378 q 272 197 252 257 q 320 416 306 304 q 334 640 334 528 q 334 684 334 658 q 333 741 334 711 q 331 803 332 771 q 326 864 329 835 q 319 918 323 893 q 309 958 315 943 q 304 967 307 963 q 302 978 302 972 q 308 991 302 986 q 322 998 314 996 q 339 1002 330 1001 q 353 1002 348 1002 q 386 999 372 1002 q 413 981 399 995 q 423 953 419 975 q 430 901 427 931 q 434 837 433 871 q 437 771 436 803 q 437 714 437 739 q 437 677 437 689 z "},"W":{"ha":709,"x_min":35,"x_max":646,"o":"m 646 795 q 645 629 646 712 q 638 464 644 547 q 624 300 633 382 q 599 136 614 218 l 588 81 q 595 66 590 77 q 606 44 600 56 q 615 22 611 32 q 619 8 619 12 q 612 -5 619 -1 q 595 -13 605 -10 q 576 -16 586 -15 q 559 -16 566 -16 q 545 -16 552 -16 q 532 -14 538 -16 q 511 -1 517 -8 q 498 19 506 5 q 449 131 470 73 q 411 249 427 189 q 382 370 395 309 q 357 491 369 431 q 280 47 333 267 q 294 21 286 35 q 302 -8 302 6 q 296 -23 302 -18 q 280 -31 290 -28 q 261 -33 271 -33 q 245 -33 252 -33 q 241 -35 243 -34 q 235 -35 239 -35 q 198 -21 212 -35 q 176 14 184 -7 q 134 144 152 75 q 102 285 115 214 q 78 427 88 356 q 62 564 68 498 q 43 725 52 645 q 35 887 35 805 q 39 909 35 901 q 59 917 43 917 q 98 909 84 917 q 119 888 112 901 q 129 857 126 875 q 132 819 131 840 q 165 519 146 669 q 222 224 185 370 q 250 413 240 318 q 269 602 260 507 q 272 653 271 627 q 274 705 273 679 q 279 757 276 731 q 290 807 282 783 q 309 840 296 829 q 347 852 323 852 q 382 842 370 852 q 402 816 395 831 q 412 782 410 801 q 417 746 415 763 q 459 503 433 623 q 522 264 486 383 q 538 474 535 370 q 542 685 542 578 q 541 806 542 745 q 532 929 540 867 q 531 943 532 937 q 530 956 530 949 q 538 977 530 970 q 561 983 547 983 q 580 982 570 983 q 601 977 591 980 q 621 969 612 974 q 635 958 630 964 q 640 943 638 954 q 643 915 642 931 q 645 880 644 899 q 646 845 646 862 q 646 814 646 828 q 646 795 646 801 z "},"X":{"ha":444,"x_min":14,"x_max":441,"o":"m 441 -20 q 436 -33 441 -28 q 426 -40 432 -38 q 412 -43 420 -42 q 399 -43 405 -43 q 371 -43 382 -43 q 351 -39 359 -43 q 335 -26 342 -35 q 321 -1 328 -18 q 273 122 294 59 q 231 250 252 186 q 193 159 213 203 q 153 69 174 114 q 136 28 144 49 q 115 -12 127 7 q 103 -27 109 -22 q 85 -33 98 -33 q 65 -28 77 -33 q 43 -15 54 -23 q 25 2 33 -7 q 18 22 18 12 q 24 43 18 26 q 42 83 31 60 q 65 134 53 106 q 90 186 78 161 q 111 232 102 212 q 123 260 120 252 q 152 337 140 298 q 176 414 165 375 q 163 453 172 426 q 142 516 155 480 q 116 593 130 551 q 87 676 102 634 q 60 759 73 719 q 36 830 46 798 q 20 883 26 862 q 14 909 14 904 q 17 918 14 915 q 26 924 21 922 q 38 926 32 926 q 47 926 43 926 q 92 914 76 926 q 119 878 108 902 q 174 739 150 810 q 221 598 197 669 q 245 718 233 659 q 267 838 257 778 q 273 871 270 851 q 278 911 275 890 q 285 951 281 932 q 294 981 289 970 q 301 991 298 988 q 315 994 305 994 q 337 990 326 994 q 358 979 349 986 q 373 961 367 971 q 378 939 378 951 q 368 844 378 890 q 350 749 358 797 q 320 579 334 664 q 283 412 306 495 q 350 218 316 314 q 425 27 384 121 q 435 4 430 16 q 441 -20 441 -7 z "},"Y":{"ha":397,"x_min":-10,"x_max":395,"o":"m 395 972 q 387 921 395 958 q 364 833 378 883 q 334 727 351 783 q 300 620 317 671 q 271 529 284 569 q 250 471 257 489 q 260 351 258 410 q 267 231 263 291 q 273 128 270 180 q 276 26 276 77 q 268 2 276 10 q 245 -7 260 -7 q 229 -5 239 -7 q 208 0 218 -3 q 188 7 197 3 q 176 15 179 11 q 165 33 168 24 q 163 53 163 41 q 161 262 163 158 q 159 471 159 366 l 154 476 q 145 493 150 482 q 135 517 140 505 q 125 541 130 529 q 119 559 121 552 q 77 684 96 621 q 35 808 57 746 q 24 838 31 819 q 9 877 16 857 q -4 915 1 897 q -10 943 -10 933 q -6 955 -10 950 q 4 962 -2 960 q 17 965 10 964 q 29 966 24 966 q 62 964 47 966 q 93 952 77 962 q 106 927 97 949 q 125 871 115 905 q 148 800 136 838 q 170 725 160 761 q 189 661 180 689 q 200 623 197 633 q 245 795 222 709 q 284 968 268 880 q 287 986 286 977 q 292 1004 289 996 q 301 1018 295 1013 q 318 1024 307 1024 q 340 1020 327 1024 q 366 1009 353 1016 q 387 992 378 1002 q 395 972 395 983 z "},"Z":{"ha":424,"x_min":1,"x_max":425,"o":"m 425 76 q 415 39 425 56 q 387 15 405 22 q 360 11 380 12 q 311 7 340 9 q 250 5 283 6 q 188 4 218 5 q 135 4 158 4 q 102 4 112 4 q 90 -8 98 -3 q 73 -14 83 -14 q 52 -9 64 -14 q 29 3 40 -5 q 9 20 18 10 q 1 39 1 29 q 5 62 1 48 q 15 92 9 77 q 26 122 21 107 q 35 146 32 137 l 171 543 l 243 750 q 266 820 255 785 q 293 888 277 854 q 250 886 271 887 q 206 886 228 886 q 185 886 200 886 q 150 886 170 886 q 110 887 131 886 q 70 888 88 887 q 38 890 51 889 q 22 894 24 892 q 12 909 12 899 q 25 940 12 928 q 56 956 38 951 q 95 963 75 962 q 129 964 115 964 q 161 963 145 964 q 194 962 178 962 q 261 964 228 962 q 327 967 294 967 q 352 965 338 967 q 377 957 366 962 q 395 941 388 951 q 403 917 403 932 q 398 895 403 905 q 388 873 393 885 q 346 758 364 816 q 308 642 328 700 q 217 362 261 501 q 126 81 172 222 q 182 84 154 83 q 237 87 210 85 q 315 96 276 90 q 393 102 353 102 q 415 96 406 102 q 425 76 425 90 z "},"[":{"ha":289,"x_min":33,"x_max":321,"o":"m 321 -24 q 314 -55 321 -41 q 292 -77 307 -70 q 264 -86 283 -83 q 223 -93 245 -90 q 181 -98 201 -96 q 150 -99 161 -99 q 110 -92 127 -99 q 86 -60 92 -84 q 79 -12 81 -36 q 75 37 77 13 q 67 137 71 87 q 59 237 62 187 q 49 442 52 340 q 43 646 46 543 q 36 814 39 730 q 33 982 33 897 q 34 998 33 991 q 38 1008 35 1004 q 47 1014 41 1013 q 64 1015 54 1015 q 91 1020 70 1018 q 136 1024 111 1023 q 185 1026 161 1025 q 220 1027 209 1027 q 234 1021 231 1027 q 238 1005 238 1015 q 233 972 238 987 q 208 952 229 958 q 169 943 190 946 q 128 937 148 941 q 138 701 134 819 q 148 463 142 582 q 162 226 153 345 q 188 -9 172 108 q 212 -5 198 -8 q 240 2 226 -1 q 268 7 255 5 q 291 9 281 9 q 314 0 307 9 q 321 -24 321 -10 z "},"\\":{"ha":321,"x_min":9,"x_max":305,"o":"m 305 30 q 300 7 305 18 q 285 -10 294 -3 q 265 -22 276 -18 q 243 -26 254 -26 q 231 -23 235 -26 q 222 -14 227 -21 q 214 14 218 -5 q 204 54 209 33 q 196 96 200 75 q 190 127 193 116 l 56 730 q 33 827 44 779 q 11 924 21 875 q 10 932 11 928 q 9 940 9 936 q 18 960 9 951 q 38 977 26 970 q 63 988 50 984 q 85 991 76 991 q 104 985 98 991 q 115 968 111 978 q 119 947 118 958 q 122 928 121 937 q 162 725 140 825 q 205 524 184 625 q 246 323 227 423 q 288 123 266 224 q 299 77 293 100 q 305 30 305 54 z "},"]":{"ha":290,"x_min":-31,"x_max":257,"o":"m 257 -54 q 252 -82 257 -74 q 226 -88 247 -90 q 200 -94 220 -92 q 154 -97 179 -96 q 105 -98 129 -98 q 70 -99 81 -99 q 56 -93 60 -99 q 52 -77 52 -87 q 57 -45 52 -60 q 81 -24 61 -31 q 121 -17 100 -19 q 162 -11 142 -14 q 152 227 156 108 q 142 464 148 345 q 128 700 137 582 q 102 936 119 819 q 77 931 92 935 q 49 925 63 928 q 21 919 35 922 q -1 917 8 917 q -24 927 -17 917 q -31 951 -31 937 q -23 982 -31 967 q -2 1005 -16 997 q 26 1014 7 1010 q 67 1020 45 1017 q 109 1025 89 1023 q 140 1027 129 1027 q 180 1019 163 1027 q 204 986 198 1010 q 211 939 210 964 q 215 890 212 914 q 223 789 219 840 q 231 689 228 739 q 241 485 239 587 q 248 281 244 383 q 254 113 251 197 q 257 -54 257 30 z "},"^":{"ha":168,"x_min":-20,"x_max":189,"o":"m 189 590 q 179 575 189 578 q 161 571 170 571 q 135 575 149 571 q 114 590 121 580 q 109 604 112 592 q 102 632 106 616 q 94 668 98 648 q 85 705 90 687 q 78 736 81 722 q 73 755 75 749 q 70 738 73 751 q 63 707 66 725 q 54 670 59 690 q 45 633 50 650 q 38 605 41 616 q 34 591 35 593 q 28 586 31 588 q 20 583 26 583 q 5 588 13 583 q -8 598 -2 592 q -17 613 -14 605 q -20 628 -20 621 q -16 650 -20 630 q -6 700 -12 671 q 6 763 -1 730 q 19 826 13 797 q 30 874 25 854 q 34 895 34 894 q 48 913 40 907 q 71 920 57 920 q 88 916 81 920 q 100 905 95 911 q 108 890 105 898 q 114 873 111 882 q 124 841 117 864 q 139 789 131 819 q 156 728 148 760 q 172 667 165 695 q 184 618 179 639 q 189 590 189 597 z "},"_":{"ha":262,"x_min":-10,"x_max":272,"o":"m 272 -72 q 268 -90 272 -81 q 260 -109 264 -101 q 251 -120 256 -116 q 238 -126 245 -124 q 218 -127 230 -127 l 33 -127 q 21 -127 28 -127 q 7 -125 14 -127 q -5 -120 0 -123 q -10 -109 -10 -116 q 1 -80 -10 -92 q 29 -64 13 -67 q 56 -61 43 -62 q 83 -60 70 -61 q 161 -55 122 -58 q 239 -53 199 -53 q 250 -53 244 -53 q 261 -55 256 -54 q 269 -61 266 -57 q 272 -72 272 -65 z "},"`":{"ha":148,"x_min":-20,"x_max":168,"o":"m 168 791 q 164 778 168 784 q 155 767 161 772 q 142 760 149 762 q 129 757 135 757 q 113 760 121 757 q 99 769 105 764 q 67 792 77 785 q 49 807 57 800 q 32 821 41 813 q 1 846 22 829 q -11 858 -5 852 q -20 872 -17 864 l -20 878 q -16 893 -20 884 q -4 909 -12 902 q 11 921 3 916 q 27 926 20 926 q 46 919 37 926 q 62 905 55 911 l 119 846 q 133 835 124 842 q 149 821 141 829 q 162 806 157 814 q 168 791 168 798 z "},"a":{"ha":332,"x_min":9,"x_max":321,"o":"m 321 9 q 315 -10 321 -5 q 296 -15 308 -15 q 250 2 264 -15 q 229 47 236 19 q 225 66 227 56 q 222 85 223 76 q 219 98 220 94 q 216 111 218 101 q 196 70 208 91 q 169 30 184 48 q 134 1 153 12 q 92 -11 115 -11 q 51 1 67 -11 q 25 31 35 13 q 13 71 16 49 q 9 112 9 92 q 18 212 9 158 q 43 320 27 266 q 81 424 60 374 q 129 511 103 473 l 129 510 l 133 516 q 150 538 140 526 q 174 550 160 550 q 196 539 186 550 q 210 515 205 528 q 238 507 227 512 q 255 494 249 502 q 263 477 261 487 q 265 456 265 467 q 265 446 265 451 q 264 435 265 440 q 264 422 264 429 q 264 408 264 414 q 266 391 264 401 q 271 368 269 380 l 276 343 q 282 298 279 323 q 288 248 284 273 q 293 198 290 222 q 298 154 296 174 l 315 54 l 317 42 q 320 26 318 33 q 321 9 321 18 m 166 399 q 165 403 166 400 q 164 410 165 406 q 137 337 149 376 q 117 258 125 298 q 105 177 109 218 q 102 101 102 137 q 102 95 102 98 q 102 90 102 92 l 102 89 q 131 155 119 114 q 151 241 142 196 q 162 329 159 286 q 166 399 166 371 z "},"b":{"ha":360,"x_min":29,"x_max":345,"o":"m 345 383 q 342 322 345 355 q 334 252 339 288 q 319 180 328 216 q 297 111 310 144 q 267 49 284 77 q 228 2 250 21 q 193 -20 212 -12 q 153 -28 174 -28 q 138 -26 146 -28 q 125 -15 130 -24 q 96 -9 111 -14 q 72 10 81 -5 q 68 22 70 15 q 66 36 67 28 q 64 42 65 39 q 63 48 64 45 q 36 292 43 170 q 29 538 29 414 q 29 576 29 549 q 30 638 29 604 q 30 711 30 673 q 31 782 31 749 q 33 839 32 815 q 36 870 35 863 q 43 886 39 880 q 60 892 48 892 q 105 872 92 892 q 119 823 119 852 l 119 648 q 119 591 119 616 q 120 542 119 566 q 121 492 120 517 q 123 435 121 467 q 143 471 131 454 q 170 503 155 489 q 203 526 184 517 q 243 535 221 535 q 296 521 276 535 q 327 485 316 507 q 341 435 337 463 q 345 383 345 408 m 251 399 q 250 429 251 412 q 241 457 249 445 q 231 447 235 452 q 222 435 227 441 l 220 433 l 220 433 q 190 361 201 402 q 171 275 178 319 q 161 187 163 231 q 158 108 158 143 q 158 86 158 100 q 161 62 159 71 q 204 127 187 84 q 232 220 222 170 q 247 318 243 270 q 251 399 251 366 z "},"c":{"ha":298,"x_min":20,"x_max":301,"o":"m 301 152 q 296 123 301 138 q 286 94 292 108 q 266 56 277 75 q 239 23 254 37 q 205 -1 224 8 q 163 -9 186 -9 q 93 12 121 -9 q 49 64 65 33 q 26 134 33 96 q 20 206 20 172 q 22 266 20 231 q 30 336 24 300 q 46 409 35 373 q 75 473 58 445 q 118 519 93 501 q 179 536 144 536 q 201 534 186 536 q 229 526 215 531 q 253 512 243 521 q 264 493 264 504 q 255 477 264 483 q 233 470 245 472 q 207 467 220 467 q 186 467 194 467 l 174 467 q 142 417 155 450 q 123 347 130 384 q 114 273 117 309 q 111 214 111 237 q 116 150 111 181 q 137 90 121 118 q 147 76 140 84 q 161 68 153 68 q 174 79 168 68 q 186 102 180 89 q 195 129 191 116 q 199 148 198 142 q 200 154 200 151 q 200 161 200 157 q 200 173 200 167 q 202 182 201 178 q 215 197 207 193 q 234 201 222 201 q 256 199 244 201 q 277 190 267 196 q 294 174 288 184 q 301 152 301 165 z "},"d":{"ha":351,"x_min":17,"x_max":336,"o":"m 336 21 q 333 8 336 14 q 325 0 330 3 q 314 -4 319 -3 q 302 -5 308 -5 q 285 -3 294 -5 q 266 2 275 -1 q 249 12 256 6 q 237 25 241 18 q 231 44 233 33 q 228 66 229 55 q 212 35 221 50 q 190 7 203 19 q 161 -12 177 -5 q 125 -19 145 -19 q 70 -3 91 -19 q 36 38 48 14 q 21 93 24 63 q 17 149 17 122 q 19 200 17 172 q 24 258 21 229 q 33 316 28 288 q 43 366 37 345 q 59 421 50 391 q 84 478 69 452 q 122 522 100 504 q 176 543 144 541 q 170 644 174 597 q 162 739 166 690 l 155 814 l 153 842 q 151 864 151 852 q 150 886 150 875 q 158 907 150 901 q 180 913 167 913 q 226 905 210 913 q 248 881 241 896 q 255 846 254 866 q 256 803 256 826 q 259 769 256 788 l 262 744 l 268 675 q 271 642 269 659 q 273 610 272 626 l 288 464 l 315 191 l 317 166 q 322 109 319 138 q 331 50 324 79 q 335 35 333 42 q 336 21 336 28 m 178 418 q 178 434 178 425 q 178 452 178 444 l 178 470 q 165 451 173 463 q 154 430 158 439 q 134 369 143 406 q 119 292 125 332 q 109 213 113 252 q 106 149 106 175 q 106 127 106 140 q 109 103 106 115 q 115 79 111 90 q 125 60 119 67 q 144 99 136 73 q 158 160 152 126 q 168 233 163 195 q 174 306 172 271 q 177 371 176 342 q 178 418 178 401 z "},"e":{"ha":294,"x_min":20,"x_max":296,"o":"m 296 124 q 284 82 296 104 q 256 42 273 60 q 215 13 238 24 q 170 1 193 1 q 115 14 138 1 q 75 48 92 26 q 48 96 58 69 q 31 152 37 123 q 23 210 25 181 q 20 262 20 239 q 23 311 20 283 q 31 368 25 338 q 47 427 37 398 q 72 479 57 456 q 109 517 87 503 q 158 531 130 531 q 197 522 180 531 q 226 499 214 513 q 244 465 238 484 q 251 426 251 446 q 239 368 251 399 q 207 308 227 337 q 164 255 188 279 q 116 220 140 232 q 121 184 117 208 q 133 138 125 161 q 150 98 140 115 q 173 81 159 81 q 185 85 180 81 q 194 96 190 89 q 201 111 198 102 q 207 126 204 119 l 211 136 q 213 138 212 138 q 214 140 213 139 q 223 157 218 149 q 235 170 227 164 l 235 170 q 240 173 237 172 q 246 173 243 173 q 262 168 254 173 q 279 156 271 163 q 291 141 286 149 q 296 124 296 132 m 161 423 q 161 437 161 430 q 157 450 160 445 q 141 423 148 439 q 129 390 134 407 q 121 355 124 372 q 117 322 118 337 q 148 370 134 343 q 161 423 161 397 z "},"f":{"ha":272,"x_min":-1,"x_max":302,"o":"m 302 843 q 296 830 302 836 q 281 822 290 825 q 263 818 272 819 q 250 817 254 817 q 220 822 234 817 q 191 827 207 827 q 151 800 169 821 q 123 739 134 779 q 112 639 113 699 q 121 493 111 578 q 200 508 163 502 q 258 515 237 515 q 280 506 274 515 q 286 484 286 497 q 283 458 286 470 q 269 439 281 447 l 127 418 q 133 360 131 389 q 138 304 136 332 q 157 159 149 216 q 170 70 165 103 q 178 21 175 36 q 182 2 181 7 q 184 -3 184 -3 q 184 -4 184 -2 q 176 -24 184 -18 q 155 -30 167 -30 q 135 -28 145 -30 q 114 -23 124 -26 q 96 -14 104 -20 q 84 1 87 -7 q 71 90 79 47 q 58 177 64 132 q 46 291 53 231 q 36 406 40 351 q 31 406 33 406 q 24 406 28 406 q 6 411 14 406 q -1 430 -1 416 q 7 458 -1 446 q 31 475 15 471 q 26 558 28 513 q 24 651 23 604 q 32 742 24 698 q 57 821 39 787 q 107 876 75 855 q 189 897 139 897 q 218 894 199 897 q 256 883 237 890 q 289 866 275 876 q 302 843 302 856 z "},"g":{"ha":363,"x_min":7,"x_max":378,"o":"m 378 168 q 375 152 378 161 q 365 133 371 143 q 353 113 359 123 q 340 95 346 103 l 330 81 l 319 63 l 311 47 q 313 18 311 33 q 315 -12 314 2 q 329 -155 323 -82 q 334 -297 334 -227 q 328 -373 334 -334 q 306 -442 322 -411 q 260 -492 289 -473 q 185 -512 231 -512 q 132 -500 154 -512 q 97 -470 111 -489 q 78 -425 84 -450 q 72 -371 72 -399 q 85 -260 72 -316 q 118 -149 98 -203 q 165 -41 139 -94 q 219 60 192 12 q 219 63 219 61 q 218 68 219 64 q 198 35 210 52 q 173 4 187 18 q 143 -18 159 -9 q 106 -27 126 -27 q 58 -14 77 -27 q 28 21 39 0 q 12 67 17 42 q 7 115 7 92 q 11 165 7 140 q 18 214 14 191 q 35 297 24 252 q 61 385 45 341 q 97 467 77 429 q 146 533 118 506 l 151 538 q 172 555 160 547 q 195 564 183 564 q 209 559 203 564 q 218 549 214 555 q 225 535 222 543 q 227 521 227 528 q 221 503 227 513 l 222 503 q 278 465 264 503 q 289 449 286 458 q 293 429 293 439 q 292 417 293 423 q 290 405 292 410 q 288 393 289 399 q 288 383 288 388 q 288 345 288 368 q 290 296 289 321 q 293 247 292 271 q 296 205 295 223 q 308 216 301 212 q 323 221 314 221 q 340 216 330 221 q 358 202 350 210 q 373 185 367 194 q 378 168 378 176 m 192 448 q 192 456 192 452 q 194 467 193 461 l 189 460 q 179 449 184 454 q 170 437 174 444 q 139 371 153 412 q 117 284 126 330 q 104 196 109 239 q 100 121 100 153 q 100 90 100 106 q 107 60 101 75 q 123 82 117 70 q 134 106 129 94 q 160 184 149 140 q 178 275 171 228 q 188 367 184 321 q 192 448 191 412 m 243 -277 q 241 -190 243 -231 q 235 -104 239 -150 q 211 -166 223 -133 q 189 -234 198 -200 q 173 -302 179 -269 q 167 -367 167 -336 l 167 -372 q 169 -405 167 -387 q 182 -435 171 -423 l 189 -435 q 212 -426 203 -435 q 227 -402 221 -416 q 237 -370 233 -388 q 241 -335 240 -353 q 243 -302 243 -317 q 243 -277 243 -286 z "},"h":{"ha":381,"x_min":26,"x_max":356,"o":"m 356 37 q 347 17 356 23 q 326 11 338 11 q 309 13 317 11 q 292 16 300 14 q 270 26 277 20 q 258 40 262 33 q 253 58 254 48 q 251 79 252 67 q 251 85 251 82 q 250 90 250 87 q 247 170 248 129 q 245 249 245 210 q 245 288 245 269 q 246 328 245 308 q 247 367 247 347 q 248 406 248 386 q 247 413 248 410 q 246 421 247 417 q 215 364 229 395 q 192 299 202 332 q 175 232 182 265 q 163 168 168 198 l 161 153 q 154 105 157 130 q 151 56 151 80 q 154 33 151 45 q 156 23 155 28 q 157 10 157 18 q 149 -12 157 -6 q 127 -18 141 -18 q 110 -16 119 -18 q 91 -12 100 -15 q 73 -4 81 -9 q 60 8 65 1 q 53 55 56 17 q 46 149 49 93 q 40 276 43 205 q 35 420 37 346 q 31 566 33 494 q 28 700 29 639 q 26 806 27 761 q 26 869 26 851 q 30 894 26 883 q 51 905 33 905 q 85 897 69 905 q 109 871 102 888 q 112 849 111 868 q 115 799 113 829 q 117 730 116 769 q 120 649 119 691 q 123 566 121 608 q 125 487 124 524 l 129 387 q 149 431 137 408 q 177 473 161 454 q 213 504 193 492 q 258 516 233 516 q 304 500 288 516 q 330 462 321 485 q 340 412 338 439 q 342 364 342 386 q 342 338 342 351 q 341 312 342 325 q 340 285 340 298 q 340 258 340 272 q 342 162 340 212 q 352 66 344 113 l 353 56 q 355 47 355 52 q 356 37 356 41 z "},"i":{"ha":172,"x_min":18,"x_max":144,"o":"m 119 570 q 114 554 119 559 q 96 549 109 549 q 77 550 90 549 q 51 555 64 552 q 27 565 37 559 q 18 580 18 571 q 20 595 18 583 q 25 622 22 608 q 30 648 28 636 q 34 661 33 659 l 34 660 q 42 667 37 665 q 52 668 47 668 q 67 666 58 668 q 87 662 77 665 q 105 654 97 659 q 115 644 113 649 q 118 629 117 638 q 117 612 118 620 q 117 606 117 610 q 117 600 117 602 q 117 593 117 597 q 118 587 117 590 q 119 579 119 583 q 119 570 119 575 m 144 30 q 137 8 144 14 q 115 1 130 1 q 97 3 106 1 q 77 9 87 5 q 60 18 68 13 q 47 31 52 24 q 43 56 45 35 q 40 108 41 77 q 38 178 39 139 q 36 256 37 216 q 36 332 36 295 q 36 397 36 370 l 36 450 q 36 463 36 456 q 39 475 37 470 q 46 484 41 480 q 61 487 52 487 q 105 470 91 487 q 122 426 119 454 q 127 343 125 385 q 130 260 129 302 q 133 185 132 222 q 137 112 134 149 q 138 98 138 104 q 140 84 139 91 q 143 57 142 71 q 144 30 144 44 z "},"j":{"ha":224,"x_min":-51,"x_max":235,"o":"m 114 643 q 114 627 114 635 q 113 611 113 619 q 112 595 112 603 q 112 578 112 587 q 108 556 112 566 q 88 546 104 546 q 70 548 83 546 q 44 554 58 550 q 21 564 31 558 q 11 577 11 570 q 14 594 11 580 q 21 625 17 608 q 28 655 25 642 q 33 671 32 669 l 33 670 q 40 679 37 677 q 51 680 43 680 q 70 679 59 680 q 91 672 81 677 q 107 661 100 668 q 114 643 114 654 m 235 210 q 228 191 235 205 q 212 157 222 176 q 192 118 203 138 q 173 81 181 97 q 166 66 169 73 q 161 56 163 60 l 168 20 q 191 -137 180 -58 q 201 -296 201 -216 q 200 -345 201 -319 q 194 -395 199 -370 q 178 -441 189 -419 q 146 -479 167 -463 q 113 -499 131 -492 q 75 -506 94 -506 q 13 -490 37 -506 q -25 -449 -11 -474 q -45 -393 -39 -424 q -51 -332 -51 -362 q -40 -225 -51 -278 q -13 -121 -30 -172 q 25 -20 4 -69 q 68 78 47 30 q 52 199 58 139 q 42 323 46 259 l 40 355 q 37 406 39 380 q 35 456 35 431 q 40 480 35 470 q 60 490 44 490 q 74 488 67 490 q 88 484 81 487 l 88 484 q 108 470 101 478 q 118 454 115 463 q 122 435 121 445 q 123 414 123 425 l 123 403 q 129 314 125 355 q 137 226 132 273 q 152 249 143 238 q 175 259 160 259 q 193 254 182 259 q 213 242 203 250 q 228 226 222 235 q 235 210 235 217 m 111 -279 q 106 -188 111 -235 q 95 -96 102 -141 q 60 -210 75 -150 q 45 -327 45 -270 q 45 -352 45 -338 q 49 -380 46 -366 q 56 -408 52 -395 q 69 -429 61 -420 q 73 -429 70 -429 q 88 -420 82 -429 q 98 -397 94 -411 q 105 -365 102 -382 q 109 -331 107 -347 q 110 -300 110 -314 q 111 -279 111 -286 z "},"k":{"ha":326,"x_min":28,"x_max":366,"o":"m 366 -10 q 358 -24 366 -18 q 339 -34 350 -30 q 318 -40 329 -38 q 301 -43 307 -43 q 280 -38 290 -43 q 262 -27 271 -34 q 247 -12 254 -20 q 234 4 240 -4 q 185 69 210 33 q 140 138 160 105 q 141 131 140 135 q 142 124 142 127 q 144 96 143 110 q 147 68 145 82 q 149 52 148 60 q 151 35 150 44 q 154 14 153 24 q 155 -9 155 3 q 147 -28 155 -23 q 125 -33 139 -33 q 105 -32 116 -33 q 84 -26 94 -31 q 66 -16 74 -22 q 54 2 58 -9 q 50 33 52 10 q 46 82 47 55 q 44 138 45 110 q 42 184 43 165 q 42 191 42 188 q 41 196 41 193 q 32 208 36 201 q 28 220 28 214 q 31 236 28 229 q 39 249 35 243 q 35 415 35 332 q 36 551 35 484 q 39 686 38 618 l 41 777 q 42 795 42 784 q 42 818 42 806 q 42 849 42 833 q 43 880 42 865 q 44 905 43 894 q 47 922 45 917 l 47 922 q 54 937 50 932 q 71 941 59 941 q 115 924 99 941 q 130 879 130 907 q 130 788 130 833 q 129 698 130 743 q 128 607 128 652 q 127 517 127 562 q 128 484 127 500 q 128 450 128 467 q 129 422 129 437 q 129 393 129 408 l 202 509 l 202 509 l 208 521 q 211 526 210 524 q 212 529 211 527 q 217 537 213 532 q 230 553 220 543 q 238 559 233 557 q 250 562 243 562 q 266 558 258 562 q 279 547 273 553 q 290 532 286 540 q 294 517 294 524 q 288 498 294 511 q 272 466 281 485 q 250 425 262 447 q 224 380 237 403 q 199 337 211 358 q 177 300 186 316 l 159 271 q 196 211 175 244 q 239 145 216 178 q 287 81 262 112 q 334 28 311 51 l 340 22 q 357 8 349 16 q 366 -10 366 -1 z "},"l":{"ha":191,"x_min":28,"x_max":205,"o":"m 205 -20 q 201 -35 205 -29 q 189 -45 196 -41 q 173 -51 182 -49 q 158 -52 165 -52 q 117 -39 134 -52 q 86 -4 99 -25 q 65 45 73 18 q 52 100 57 73 q 43 153 46 127 q 39 197 41 178 q 31 325 33 260 q 28 454 28 390 q 41 799 28 628 q 41 805 41 802 q 41 812 41 808 q 43 845 42 826 q 45 882 43 863 q 48 915 46 900 q 52 937 50 930 l 52 936 q 60 950 55 945 q 76 955 64 955 q 117 939 100 955 q 134 898 134 922 q 134 887 134 892 q 133 878 134 882 q 132 868 132 873 q 132 861 132 864 q 129 808 130 834 q 126 755 127 782 q 121 639 123 697 q 119 522 119 581 q 120 456 119 497 q 123 368 121 416 q 129 269 125 320 q 138 172 132 218 q 153 89 144 126 q 173 31 161 52 q 185 23 179 28 q 195 10 191 17 q 202 -5 199 3 q 205 -20 205 -13 z "},"m":{"ha":593,"x_min":31,"x_max":583,"o":"m 145 3 q 136 -17 145 -12 q 114 -22 127 -22 q 91 -20 102 -22 q 70 -14 80 -18 q 53 -1 60 -9 q 43 20 46 7 q 33 100 34 61 q 31 180 31 139 l 31 264 q 36 382 31 321 q 46 500 41 444 q 47 505 46 503 q 47 509 47 508 q 50 526 48 517 q 54 542 51 534 q 63 553 57 549 q 78 558 68 558 q 99 554 89 558 q 116 542 109 549 q 128 525 123 535 q 132 504 132 515 q 131 476 132 490 q 129 448 130 461 q 127 433 127 438 q 126 418 127 429 q 145 447 134 432 q 168 472 155 461 q 196 491 181 484 q 229 498 212 498 q 258 492 247 498 q 277 476 270 486 q 286 453 283 467 q 289 425 289 439 q 289 406 289 415 q 288 389 288 397 q 287 371 287 380 q 286 353 286 363 q 287 320 286 336 q 290 286 288 304 q 306 337 296 309 q 329 395 316 366 q 358 454 342 425 q 393 505 374 483 q 433 542 412 528 q 479 555 455 555 q 531 534 516 555 q 547 478 547 512 q 546 458 547 469 q 544 438 545 448 q 539 363 541 401 q 537 288 537 324 l 537 275 q 541 185 537 227 q 557 96 545 143 l 563 78 q 569 57 566 68 q 576 35 573 45 q 581 14 578 24 q 583 -1 583 5 q 572 -20 583 -15 q 551 -24 562 -24 q 536 -24 545 -24 q 518 -22 527 -24 q 502 -17 510 -20 q 490 -8 494 -14 l 490 -9 q 481 6 484 -3 q 477 24 478 15 l 475 30 q 459 96 466 66 q 449 154 453 125 q 443 214 445 183 q 441 286 441 245 q 445 357 441 321 q 451 427 448 393 q 451 435 451 431 q 452 443 452 439 q 407 355 427 403 q 373 257 388 307 q 346 156 357 207 q 326 60 335 106 q 329 53 326 60 q 335 36 332 45 q 341 19 338 27 q 344 7 344 10 q 334 -12 344 -8 q 313 -15 323 -15 q 295 -14 304 -15 q 276 -11 286 -14 q 259 -4 267 -8 q 247 9 252 1 q 237 41 243 16 q 226 101 232 66 q 214 174 220 135 q 204 249 209 214 q 197 311 199 284 q 194 347 194 337 l 194 357 q 158 256 172 310 q 136 151 144 203 l 134 139 q 132 129 132 134 q 131 119 131 123 q 133 100 131 111 q 137 77 134 90 q 143 40 140 59 q 145 3 145 22 z "},"n":{"ha":370,"x_min":31,"x_max":352,"o":"m 145 3 q 136 -17 145 -12 q 114 -22 127 -22 q 91 -20 102 -22 q 70 -14 80 -18 q 53 -1 60 -9 q 43 20 46 7 q 33 100 34 61 q 31 180 31 139 l 31 264 q 36 382 31 321 q 46 500 41 444 q 47 505 46 503 q 47 509 47 508 q 50 526 48 517 q 54 542 51 534 q 63 553 57 549 q 78 558 68 558 q 99 554 89 558 q 116 542 109 549 q 128 525 123 535 q 132 504 132 515 q 132 478 132 492 q 130 452 131 465 q 129 445 130 449 q 128 437 129 441 q 150 477 138 456 q 178 515 162 498 q 213 543 194 532 q 256 554 233 554 q 289 548 276 554 q 310 531 302 542 q 320 505 317 519 q 323 473 323 490 q 322 426 323 450 q 319 380 321 403 q 316 333 317 356 q 315 286 315 310 q 316 228 315 258 q 320 170 317 197 q 326 120 323 142 q 333 86 330 98 q 339 63 336 76 q 345 36 342 50 q 350 9 348 22 q 352 -14 352 -4 q 340 -33 352 -29 q 317 -37 328 -37 q 291 -36 305 -37 q 264 -28 276 -34 q 246 1 250 -18 q 240 37 241 19 l 238 55 q 233 98 236 71 q 226 156 229 124 q 221 222 223 188 q 219 289 219 256 q 221 345 219 318 q 227 400 224 372 q 229 423 228 414 q 231 446 229 432 q 203 395 217 425 q 178 335 190 366 q 156 273 165 303 q 140 221 146 243 l 136 206 q 131 184 133 195 q 128 164 128 174 q 130 136 128 152 q 133 106 131 120 q 138 71 135 89 q 139 62 138 70 q 142 45 140 55 q 144 23 143 35 q 145 3 145 12 z "},"o":{"ha":344,"x_min":18,"x_max":328,"o":"m 328 278 q 318 160 328 219 q 278 50 309 102 q 256 19 269 34 q 230 -7 244 5 q 198 -26 215 -19 q 161 -33 180 -33 q 110 -19 132 -33 q 72 17 87 -5 q 45 69 56 40 q 29 128 35 98 q 21 186 23 158 q 18 237 18 215 q 20 290 18 261 q 27 350 22 319 q 41 410 33 380 q 63 466 50 440 q 96 513 77 492 q 140 546 115 534 l 140 545 q 183 557 161 557 q 204 551 197 557 q 211 532 212 545 q 271 496 248 525 q 307 428 294 467 q 324 349 319 389 q 328 278 328 308 m 175 448 q 153 456 163 448 q 132 411 140 437 q 118 359 123 386 q 111 305 113 332 q 109 254 109 278 q 111 204 109 235 q 118 142 113 173 q 135 83 124 111 q 162 43 145 56 q 197 82 183 56 q 219 141 211 109 q 230 205 227 173 q 233 261 233 238 q 231 305 233 278 q 224 360 229 332 q 211 413 220 389 q 190 450 203 437 q 175 448 184 448 z "},"p":{"ha":380,"x_min":35,"x_max":372,"o":"m 127 176 q 126 117 127 144 q 127 57 126 90 l 140 66 l 147 71 q 205 135 180 97 q 246 217 230 174 q 270 306 262 260 q 278 393 278 352 q 278 416 278 401 q 275 445 277 431 q 267 470 272 459 q 251 480 261 480 q 218 460 235 480 q 186 414 201 441 q 160 359 172 387 q 143 316 149 332 q 143 315 143 315 q 142 315 142 315 l 142 314 q 134 294 138 304 q 128 273 130 283 q 126 252 127 264 q 125 227 125 240 q 126 214 125 220 q 126 202 126 208 q 126 188 126 195 q 127 176 127 182 m 164 -444 q 156 -464 164 -458 q 134 -469 148 -469 q 98 -464 118 -469 q 67 -446 79 -459 q 61 -418 64 -441 q 55 -364 58 -395 q 50 -300 52 -333 q 46 -242 48 -267 l 43 -206 q 35 84 35 -61 q 38 251 35 169 q 45 416 41 332 l 47 488 q 48 509 47 498 q 50 530 48 519 q 59 544 54 538 q 75 549 64 549 q 118 531 104 549 q 134 489 132 514 q 185 536 155 519 q 255 554 216 554 q 311 539 288 554 q 347 501 334 524 q 367 449 361 477 q 372 392 372 420 q 363 285 372 338 q 333 182 353 232 q 283 88 313 132 q 211 9 252 43 q 198 -1 205 4 q 182 -12 191 -7 q 166 -20 174 -16 q 151 -23 157 -23 q 138 -20 143 -23 q 128 -12 132 -16 q 132 -109 130 -58 q 138 -209 134 -159 q 146 -309 141 -260 q 159 -405 151 -359 q 162 -424 161 -414 q 164 -444 164 -433 z "},"q":{"ha":358,"x_min":6,"x_max":403,"o":"m 403 -300 q 400 -359 403 -326 q 387 -419 397 -391 q 356 -467 377 -448 q 299 -486 336 -486 q 248 -475 269 -486 q 213 -446 227 -464 q 191 -404 199 -427 q 178 -355 182 -380 q 172 -305 174 -330 q 171 -258 171 -280 q 187 38 171 -108 q 144 3 168 16 q 90 -11 121 -11 q 49 0 65 -11 q 23 28 33 11 q 10 66 14 45 q 6 108 6 87 q 14 186 6 148 q 31 263 21 224 q 82 399 51 337 q 170 515 114 462 l 176 519 l 175 519 q 197 538 184 528 q 222 547 210 547 q 236 543 230 547 q 245 532 241 538 q 251 518 249 526 q 252 503 252 510 q 255 504 254 504 q 258 505 256 505 q 281 501 269 505 q 304 491 294 498 q 321 474 314 484 q 328 452 328 465 q 324 425 328 440 q 317 393 321 409 q 312 373 314 383 q 308 354 309 363 q 307 342 307 348 q 307 330 307 336 q 300 266 304 298 q 294 201 297 233 q 289 164 291 180 q 286 127 288 147 q 297 133 291 130 q 309 136 304 136 q 324 130 317 136 q 336 116 331 124 q 345 99 342 108 q 348 83 348 90 q 344 68 348 75 q 335 56 340 62 q 322 45 329 50 q 310 38 315 41 q 377 -125 351 -41 q 403 -300 403 -210 m 227 457 q 228 463 228 459 l 222 456 q 198 428 210 443 q 177 395 186 413 q 144 329 159 366 q 119 251 130 291 q 103 171 109 211 q 97 96 97 130 q 98 85 97 91 q 100 73 98 79 q 116 91 109 81 q 130 111 123 101 l 130 110 l 133 115 q 169 193 153 150 q 196 280 184 235 q 215 371 208 326 q 227 457 222 416 m 308 -302 q 296 -196 308 -250 q 266 -93 285 -142 q 264 -144 264 -119 q 263 -195 263 -170 l 263 -234 q 264 -273 263 -248 q 268 -324 264 -298 q 277 -374 271 -351 q 294 -408 283 -397 q 302 -385 299 -399 q 306 -355 304 -370 q 308 -326 307 -340 q 308 -302 308 -312 z "},"r":{"ha":334,"x_min":27,"x_max":340,"o":"m 96 -11 q 74 -8 86 -11 q 52 1 62 -5 q 34 16 41 7 q 27 38 27 25 q 29 76 27 57 q 33 113 31 94 l 33 112 l 37 157 q 40 211 39 182 q 42 270 41 240 q 44 330 43 300 q 45 383 45 359 q 44 412 45 397 q 44 441 44 427 q 43 470 43 454 q 43 500 43 486 q 47 523 43 514 q 68 532 51 532 q 101 524 84 532 q 125 501 119 516 l 125 501 q 130 477 128 494 q 132 448 132 460 q 158 485 144 465 q 190 521 173 505 q 226 549 207 538 q 267 559 245 559 q 310 545 295 559 q 332 510 325 531 q 339 464 338 488 q 340 420 340 440 l 340 415 q 339 399 340 407 q 337 385 339 391 q 329 374 334 378 q 313 370 323 370 q 290 373 302 370 q 267 382 277 376 q 249 398 256 389 q 241 419 241 407 q 241 430 241 425 q 241 441 241 435 q 242 449 241 444 q 242 459 242 454 q 204 406 220 437 q 174 338 187 374 q 151 266 161 302 q 135 200 142 229 l 135 198 q 132 157 133 177 q 131 115 132 136 q 129 65 130 90 q 125 16 128 40 q 118 -4 124 3 q 96 -11 111 -11 z "},"s":{"ha":290,"x_min":9,"x_max":290,"o":"m 262 497 q 257 484 262 489 q 243 474 251 478 q 226 469 235 471 q 212 468 218 468 q 197 470 204 468 q 182 473 189 471 q 168 477 174 475 q 153 479 161 479 q 133 475 143 479 q 115 466 123 472 q 101 451 106 460 q 96 431 96 442 q 103 399 96 415 q 121 367 110 383 q 147 334 132 351 q 178 300 161 317 q 217 256 197 279 q 253 210 237 234 q 279 158 269 185 q 290 101 290 131 q 281 55 290 75 q 257 20 273 35 q 221 -2 242 6 q 174 -9 199 -9 q 154 -7 168 -9 q 122 1 140 -4 q 86 12 104 6 q 52 25 67 18 q 27 40 37 33 q 17 53 17 47 q 24 70 17 61 q 42 85 32 78 q 63 97 52 92 q 82 102 75 102 q 103 97 92 102 q 126 86 115 92 q 152 74 139 79 q 180 68 165 68 q 192 76 191 68 q 194 93 194 83 q 186 138 194 117 q 165 180 178 159 q 135 219 152 200 q 101 258 118 239 q 67 296 83 277 q 37 335 50 315 q 17 376 24 355 q 9 420 9 397 q 22 473 9 450 q 55 513 35 496 q 102 539 76 530 q 155 549 128 549 q 182 545 163 549 q 218 534 200 541 q 249 518 235 528 q 262 497 262 509 z "},"t":{"ha":271,"x_min":-10,"x_max":290,"o":"m 183 17 q 180 4 183 9 q 171 -3 176 -1 q 160 -7 166 -6 q 149 -8 155 -8 q 132 -6 142 -8 q 113 -1 122 -5 q 95 7 103 2 q 83 20 87 12 q 76 45 79 26 q 71 89 73 64 q 68 141 69 113 q 65 195 66 170 q 64 242 64 221 q 64 273 64 262 q 65 365 64 320 q 69 456 67 409 q 62 455 66 456 q 56 454 59 454 q 38 452 47 453 q 19 452 28 452 q -1 456 7 452 q -10 474 -10 460 q -3 501 -10 491 q 16 517 5 511 q 41 525 28 523 q 68 529 55 528 q 71 529 70 529 q 73 530 71 530 q 75 550 74 538 q 76 576 75 562 q 78 624 77 598 q 81 672 79 649 q 84 714 82 696 q 88 739 86 732 q 96 753 92 748 q 113 759 100 759 q 155 741 140 759 q 170 698 170 724 q 168 638 170 668 q 165 578 166 608 l 163 543 q 197 549 180 545 q 230 555 213 553 q 262 558 246 558 q 283 551 275 558 q 290 530 290 544 q 285 501 290 515 q 266 479 279 487 l 267 479 q 250 476 264 478 q 219 471 237 473 q 185 467 202 469 q 161 465 169 465 l 160 465 q 158 390 159 427 q 157 315 157 353 q 160 204 157 262 q 171 92 163 145 l 176 62 q 181 39 179 50 q 183 17 183 28 z "},"u":{"ha":363,"x_min":30,"x_max":352,"o":"m 319 448 q 317 433 319 441 q 315 420 316 426 q 312 406 313 412 q 311 393 311 399 q 313 267 311 330 q 326 140 315 203 q 334 92 330 115 q 345 45 339 69 l 347 41 l 347 43 q 350 33 349 38 q 352 22 352 28 q 348 10 352 15 q 339 3 345 5 q 327 -1 334 0 q 315 -1 321 -1 q 280 4 293 -1 q 258 18 267 9 q 247 40 250 27 q 240 68 243 53 l 238 81 q 235 101 235 90 q 234 106 234 106 q 233 111 233 106 q 211 75 223 94 q 182 39 198 56 q 148 11 166 22 q 109 0 130 0 q 63 18 79 0 q 40 61 47 35 q 31 114 33 86 q 30 161 30 141 q 35 315 30 239 q 46 467 40 391 q 46 473 46 469 q 47 478 47 476 q 48 496 47 488 q 52 511 49 504 l 52 511 q 59 526 54 522 q 75 531 64 531 q 96 527 85 531 q 114 517 106 524 q 127 502 122 511 q 132 482 132 493 q 132 469 132 477 q 132 456 132 462 q 131 445 132 452 q 131 433 131 437 q 123 303 125 368 q 120 174 120 239 q 120 137 120 155 q 124 100 121 119 q 163 173 146 129 q 190 268 179 218 q 209 367 201 317 q 219 454 216 416 q 219 458 219 456 q 220 463 220 461 q 221 477 220 471 q 226 490 222 484 q 227 503 226 496 q 230 516 227 510 q 238 525 233 522 q 252 528 243 528 q 295 512 279 528 q 312 469 311 495 q 317 459 315 464 q 319 448 319 454 z "},"v":{"ha":302,"x_min":1,"x_max":283,"o":"m 283 492 q 269 307 283 398 q 234 126 254 216 q 231 111 231 117 q 222 71 227 92 q 208 30 218 50 q 184 0 199 13 q 151 -12 169 -12 q 135 -9 143 -12 q 117 0 127 -5 q 97 26 104 9 q 85 60 90 43 l 84 65 l 84 64 q 65 153 73 109 q 50 241 57 197 q 41 297 45 269 q 32 351 37 324 l 22 391 q 15 421 19 405 q 8 451 12 437 q 3 476 5 465 q 1 492 1 488 q 9 509 1 505 q 28 513 18 513 q 67 504 50 513 q 91 473 83 494 q 98 448 95 461 q 103 422 101 435 q 125 328 115 378 q 143 232 136 278 l 149 197 q 150 192 150 194 q 150 189 150 190 q 151 185 151 187 q 152 179 151 183 q 177 323 167 251 q 187 469 187 395 q 185 498 187 484 q 182 528 184 512 q 178 557 180 542 q 176 588 176 572 q 185 608 176 602 q 207 613 194 613 q 235 611 222 613 q 258 603 248 609 q 273 587 267 597 q 281 559 279 576 q 283 526 283 544 q 283 492 283 508 z "},"w":{"ha":443,"x_min":35,"x_max":414,"o":"m 273 429 q 273 418 273 423 q 272 408 273 413 q 291 335 282 372 q 307 261 299 298 q 314 344 311 302 q 317 427 317 386 q 315 510 317 468 q 301 591 312 553 l 298 601 q 296 608 297 604 q 296 616 296 612 q 299 628 296 624 q 309 635 303 633 q 321 637 314 637 q 333 638 328 638 q 368 634 350 638 q 388 624 380 631 q 399 609 395 618 q 404 590 403 600 q 406 568 406 579 q 407 566 406 567 q 407 563 407 564 q 412 503 410 533 q 414 444 414 473 q 403 262 414 353 q 378 83 393 172 q 372 56 376 70 q 361 29 368 41 q 344 9 355 17 q 317 1 333 1 q 287 10 298 1 q 268 32 275 18 q 258 61 261 45 q 252 93 254 77 q 250 106 251 100 q 248 118 249 113 l 229 202 q 214 154 223 183 q 194 96 205 125 q 173 43 184 67 q 156 11 163 20 q 137 -3 149 2 q 114 -8 125 -8 q 79 5 94 -8 q 61 36 65 18 q 55 71 57 54 q 55 75 55 73 q 54 78 54 77 q 39 230 44 153 q 35 383 35 307 l 35 496 q 35 509 35 502 q 38 521 36 515 q 46 530 41 527 q 60 534 51 534 q 102 519 85 534 q 120 479 118 504 q 123 414 122 447 q 125 348 124 380 q 126 276 125 311 q 130 202 126 241 q 146 257 138 229 q 159 315 153 286 q 169 373 165 344 q 172 429 172 401 q 172 434 172 432 q 172 440 172 437 q 171 447 171 444 q 171 454 171 450 q 178 479 171 471 q 204 487 186 487 q 221 485 211 487 q 240 479 231 483 q 258 469 250 475 q 269 455 267 463 l 269 455 q 273 442 272 448 q 273 429 273 436 z "},"x":{"ha":315,"x_min":3,"x_max":321,"o":"m 321 24 q 316 11 321 16 q 302 5 310 7 q 287 2 295 3 q 274 1 279 1 q 256 2 264 1 q 240 5 248 3 q 227 14 233 8 q 215 28 221 19 q 194 72 203 50 q 174 116 184 94 q 166 136 170 128 q 158 155 163 143 q 128 79 143 116 q 96 6 113 43 q 86 -13 92 -3 q 66 -22 80 -22 q 48 -17 58 -22 q 27 -6 37 -13 q 11 10 18 1 q 3 28 3 19 q 6 42 3 35 q 12 56 9 49 l 12 56 q 60 165 37 111 q 105 274 83 219 q 92 307 100 285 q 73 357 83 330 q 52 414 63 384 q 33 470 41 444 q 19 516 24 496 q 13 544 13 536 q 21 561 13 557 q 41 565 30 565 q 78 556 62 565 q 103 526 94 547 q 110 508 106 517 q 117 488 114 498 l 123 471 q 137 432 131 450 q 153 393 144 414 q 185 483 170 437 q 206 576 199 530 l 208 595 q 211 615 208 604 q 219 629 214 625 q 235 634 223 634 q 256 631 245 634 q 274 621 266 627 q 287 605 282 614 q 292 584 292 596 q 288 539 292 565 q 276 486 283 514 q 259 428 269 458 q 240 370 250 398 q 221 317 231 342 q 205 274 212 292 l 247 186 q 272 133 259 161 q 296 82 286 105 q 314 42 307 58 q 321 24 321 26 z "},"y":{"ha":334,"x_min":-75,"x_max":304,"o":"m 297 -46 q 295 -104 297 -74 q 288 -166 293 -135 q 275 -227 283 -197 q 255 -282 267 -256 q 204 -349 235 -320 q 136 -397 173 -378 q 58 -427 100 -417 q -25 -437 17 -437 q -40 -437 -31 -437 q -56 -434 -48 -436 q -70 -426 -64 -431 q -75 -411 -75 -420 q -73 -403 -75 -407 q -73 -400 -73 -401 q -73 -399 -73 -399 q -62 -377 -68 -385 q -48 -365 -56 -369 q -30 -358 -40 -360 q -5 -355 -19 -357 q 77 -335 38 -353 l 77 -336 q 146 -282 121 -314 q 185 -211 172 -250 q 201 -128 198 -172 q 205 -41 205 -85 q 205 -26 205 -31 q 205 -17 205 -21 q 205 -9 205 -14 q 204 6 205 -4 q 155 -12 180 -12 q 104 4 125 -12 q 70 48 83 21 q 48 109 56 75 q 36 179 40 143 q 32 248 33 214 q 31 309 31 282 l 31 337 q 31 408 31 373 q 33 477 31 442 l 33 487 q 33 503 33 495 q 35 519 33 511 q 42 534 37 530 q 59 539 47 539 q 70 538 64 539 q 80 536 75 538 q 100 525 93 531 q 112 512 108 519 q 116 494 115 504 q 117 470 117 484 l 117 379 q 118 339 117 363 q 119 286 118 315 q 123 227 121 258 q 129 168 125 197 q 138 116 133 140 q 152 77 144 92 q 173 139 164 103 q 188 215 182 174 q 196 300 193 256 q 201 385 199 343 q 203 463 203 426 q 203 528 203 500 q 204 542 203 534 q 207 556 204 550 q 215 567 210 563 q 230 571 220 571 q 240 570 235 571 q 250 567 246 568 q 253 567 252 567 q 256 566 255 566 q 275 559 266 563 q 290 551 283 556 q 300 538 296 546 q 304 517 304 530 q 303 481 304 501 q 302 439 303 461 q 300 397 301 418 q 297 360 298 376 l 294 336 q 292 317 293 327 q 292 300 292 308 q 292 213 292 256 q 294 127 293 170 q 296 40 296 83 q 297 -46 297 -3 z "},"z":{"ha":311,"x_min":-7,"x_max":315,"o":"m 315 76 q 305 54 315 64 q 279 36 295 43 q 243 22 263 28 q 204 12 223 16 q 169 6 185 8 q 144 4 153 4 q 109 7 127 4 q 71 15 90 9 q 37 30 53 21 q 9 52 20 39 l 9 52 q -2 64 3 57 q -7 81 -7 72 q -2 92 -7 87 q 9 99 3 97 q 23 132 16 115 q 38 163 31 148 l 48 187 q 115 327 84 258 q 176 470 146 396 l 149 469 l 116 467 l 94 464 q 76 462 84 463 q 58 461 67 461 q 33 486 33 461 q 35 507 33 498 q 45 524 38 516 q 63 531 49 528 q 98 538 78 535 q 140 544 117 541 q 184 549 163 547 q 221 552 205 551 q 245 553 238 553 q 268 549 257 553 q 278 529 278 546 q 273 508 278 519 q 263 488 269 497 q 264 478 264 485 q 259 453 264 471 q 244 410 254 435 q 223 355 235 385 q 198 292 211 324 q 171 229 184 260 q 145 169 157 197 l 107 81 q 134 78 119 78 q 192 90 164 78 q 239 113 219 101 q 259 123 250 119 q 273 127 268 127 q 290 122 282 127 q 303 110 298 117 q 312 93 309 102 q 315 76 315 84 z "},"{":{"ha":340,"x_min":-3,"x_max":380,"o":"m 380 -33 q 367 -59 380 -48 q 336 -76 354 -70 q 298 -85 317 -83 q 268 -88 279 -88 q 203 -78 235 -88 q 144 -45 170 -67 q 112 -8 124 -28 q 94 33 100 12 q 86 78 88 55 q 85 127 85 102 q 83 228 83 178 q 78 328 82 278 q 76 351 77 339 q 73 374 75 362 q 68 396 71 385 q 58 416 64 407 q 43 413 50 414 q 28 411 35 411 q 2 420 8 411 q -3 446 -3 429 q 3 477 -3 466 q 18 495 9 488 q 37 507 26 502 q 57 522 48 513 q 72 546 66 530 q 78 587 78 561 q 68 653 78 621 q 46 719 58 686 q 24 786 34 751 q 14 857 14 820 q 25 922 14 892 q 57 972 37 951 q 107 1004 78 993 q 172 1016 136 1016 q 197 1013 180 1016 q 232 1005 214 1010 q 263 991 250 1000 q 276 972 276 983 q 267 957 276 964 q 245 947 258 951 q 221 941 233 943 q 201 939 208 939 q 189 939 195 939 q 177 940 183 940 q 128 920 143 940 q 113 868 113 900 q 124 794 113 830 q 148 723 135 758 q 173 652 161 688 q 184 578 184 616 q 172 513 184 544 q 135 458 159 482 q 165 398 155 435 q 180 319 176 361 q 184 232 184 277 q 185 148 184 188 q 191 76 186 108 q 208 28 195 45 q 233 7 218 15 q 265 0 248 0 q 288 4 278 0 q 307 13 298 8 q 323 22 315 18 q 338 26 330 26 q 355 20 347 26 q 369 4 363 14 q 377 -15 374 -5 q 380 -33 380 -25 z "},"|":{"ha":199,"x_min":31,"x_max":161,"o":"m 161 684 q 158 486 161 585 q 152 290 155 388 q 145 93 149 191 q 142 -103 142 -5 q 137 -132 142 -119 q 111 -144 131 -144 q 88 -140 101 -144 q 65 -133 75 -137 q 38 -114 45 -125 q 31 -81 31 -103 q 31 -69 31 -75 q 33 -56 31 -63 q 40 146 37 45 q 49 349 43 248 q 58 559 54 455 q 61 770 61 664 q 61 866 61 819 q 60 962 61 913 q 57 1027 58 994 q 56 1092 56 1059 q 60 1113 56 1106 q 80 1120 64 1120 q 99 1118 89 1120 q 119 1111 110 1116 q 136 1099 128 1106 q 146 1082 143 1092 q 151 1044 149 1073 q 155 976 153 1015 q 158 891 157 937 q 160 805 159 846 q 161 731 161 764 q 161 684 161 699 z "},"}":{"ha":346,"x_min":-35,"x_max":349,"o":"m 349 481 q 343 450 349 461 q 329 433 338 439 q 309 420 319 426 q 290 406 299 415 q 275 382 281 397 q 269 340 269 367 q 279 274 269 307 q 300 209 289 242 q 322 142 312 176 q 332 71 332 108 q 320 5 332 35 q 289 -44 309 -24 q 239 -77 268 -65 q 174 -88 210 -88 q 149 -85 166 -88 q 114 -77 132 -83 q 84 -64 97 -72 q 71 -46 71 -56 q 80 -31 71 -37 q 101 -20 89 -24 q 125 -14 113 -16 q 144 -12 138 -12 l 170 -12 q 218 8 203 -12 q 233 60 233 28 q 221 134 233 98 q 197 205 210 170 q 173 276 184 240 q 162 350 162 312 q 174 414 162 384 q 211 468 186 444 q 181 529 191 492 q 167 608 171 566 q 162 695 163 650 q 161 780 162 740 q 155 851 159 820 q 138 899 151 883 q 113 920 128 913 q 82 928 98 928 q 58 924 68 928 q 40 915 48 920 q 23 906 31 910 q 7 902 16 902 q -9 908 -1 902 q -22 923 -16 914 q -31 943 -28 932 q -35 960 -35 953 q -21 987 -35 976 q 10 1004 -8 998 q 47 1013 28 1010 q 78 1016 66 1016 q 144 1005 112 1016 q 201 972 176 995 q 234 935 222 955 q 252 893 245 915 q 260 849 258 872 q 262 800 262 825 q 264 700 264 749 q 268 600 264 650 q 270 577 269 589 q 273 554 271 566 q 278 531 275 543 q 288 511 281 520 q 304 515 296 513 q 319 517 311 517 q 343 507 338 517 q 349 481 349 498 z "},"~":{"ha":315,"x_min":12,"x_max":302,"o":"m 302 511 q 296 466 302 488 q 278 425 290 443 q 247 395 266 406 q 201 384 228 384 q 147 403 164 384 q 122 451 130 422 q 113 510 115 479 q 105 567 111 542 q 101 578 103 571 q 93 585 99 585 q 83 581 87 585 q 79 570 80 576 q 77 558 77 564 q 77 548 77 552 q 80 509 77 528 q 89 471 83 490 q 95 451 91 463 q 100 431 100 439 q 92 417 100 420 q 74 414 83 414 q 45 425 56 414 q 29 452 35 435 q 16 501 21 475 q 12 552 12 526 q 16 589 12 571 q 30 620 20 606 q 55 643 40 634 q 92 651 70 651 q 130 643 115 651 q 154 620 144 634 q 169 588 163 606 q 176 551 174 570 q 181 512 179 532 q 186 477 183 493 q 190 463 188 471 q 201 454 192 454 q 216 460 210 454 q 224 475 221 467 q 228 494 227 484 q 229 510 229 503 q 222 555 229 536 q 207 588 215 574 q 192 611 199 602 q 185 628 185 621 q 191 639 185 634 q 204 648 196 644 q 219 654 212 652 q 233 656 227 656 q 265 639 252 656 q 286 598 278 622 q 298 551 294 575 q 302 511 302 526 z "},"†":{"ha":425,"x_min":10,"x_max":421,"o":"m 257 -7 q 261 -45 258 -26 q 264 -83 264 -63 q 256 -106 264 -100 q 233 -111 248 -111 q 216 -110 226 -111 q 195 -105 205 -108 q 175 -98 184 -102 q 162 -90 166 -94 q 153 -71 154 -80 q 150 -50 151 -62 q 142 94 145 31 q 139 213 140 157 q 138 324 138 269 q 138 443 138 379 q 139 587 138 507 q 140 772 140 667 q 86 765 114 768 q 32 761 58 761 q 10 784 10 761 q 24 819 10 807 q 59 838 39 831 q 102 846 79 844 q 140 850 124 848 l 140 1001 q 140 1014 140 1005 q 140 1033 140 1023 q 141 1051 140 1042 q 143 1063 142 1060 q 150 1077 145 1074 q 165 1080 155 1080 q 215 1062 197 1080 q 234 1013 233 1045 q 238 938 237 975 q 239 863 238 901 q 309 868 274 866 q 379 869 345 869 q 393 869 385 869 q 406 866 400 868 q 417 859 412 864 q 421 846 421 854 q 419 833 421 839 q 413 821 416 827 q 401 801 407 809 q 389 789 396 793 q 373 783 382 785 q 351 781 363 781 q 296 781 323 781 q 241 779 269 780 q 241 631 241 696 q 241 513 241 566 q 241 417 241 460 q 241 335 241 374 q 242 260 241 296 q 245 183 243 223 q 250 96 247 142 q 257 -7 252 50 z "},"°":{"ha":243,"x_min":-3,"x_max":246,"o":"m 246 812 q 236 765 246 787 q 210 725 227 742 q 171 697 193 707 q 123 686 148 686 q 72 697 95 686 q 32 728 48 709 q 6 771 15 747 q -3 823 -3 796 q 6 874 -3 850 q 31 918 15 899 q 71 948 47 937 q 121 959 94 959 q 175 946 152 959 q 214 913 199 934 q 238 867 230 893 q 246 812 246 840 m 174 841 q 154 869 164 859 q 124 879 144 879 q 86 864 102 879 q 71 826 71 848 q 75 807 71 817 q 85 790 79 798 q 100 779 91 783 q 119 774 109 774 q 147 782 139 774 q 158 800 155 789 q 163 821 161 810 q 174 841 165 833 z "},"¢":{"ha":328,"x_min":33,"x_max":309,"o":"m 224 28 q 219 10 224 15 q 200 5 214 5 q 181 7 193 5 q 159 12 170 8 q 139 21 148 15 q 130 37 131 27 q 128 51 128 44 q 128 65 128 58 q 129 116 128 91 q 131 167 130 141 q 77 216 96 182 q 47 289 57 249 q 36 370 38 329 q 33 444 33 412 q 34 493 33 465 q 38 551 35 522 q 48 610 41 581 q 67 663 55 639 q 99 704 80 687 q 146 727 118 721 q 141 762 143 743 q 136 800 138 781 q 133 838 134 819 q 132 873 132 857 q 140 891 132 887 q 159 895 148 895 q 184 892 172 895 q 208 886 197 890 q 222 873 218 882 q 228 853 227 864 q 228 831 229 842 q 227 811 227 820 q 227 764 227 787 q 226 719 227 741 q 252 702 238 713 q 277 677 265 691 q 296 648 288 663 q 303 618 303 633 q 296 603 303 607 q 280 600 290 600 q 240 610 254 600 q 217 633 227 621 q 197 655 207 645 q 172 666 188 666 q 156 658 161 666 q 146 642 150 650 q 130 600 136 621 q 123 557 125 578 q 120 513 121 535 q 120 469 120 491 q 120 420 120 445 q 123 370 121 395 q 130 321 125 345 q 143 274 134 297 q 150 260 145 269 q 160 245 154 252 q 173 233 166 238 q 186 228 180 228 q 201 236 195 228 q 210 255 207 244 q 214 278 213 267 q 215 296 215 289 q 214 308 215 302 q 212 321 212 314 q 220 337 212 333 q 238 342 228 342 q 262 340 250 342 q 285 333 275 338 q 302 319 295 328 q 309 296 309 311 q 303 249 309 272 q 286 208 298 227 q 256 177 274 190 q 212 159 237 163 q 214 138 214 149 q 215 115 214 127 q 221 72 217 94 q 224 28 224 51 z "},"£":{"ha":381,"x_min":39,"x_max":366,"o":"m 366 282 q 353 236 366 255 q 320 206 340 218 q 276 190 300 195 q 229 184 252 184 q 176 187 203 184 q 123 190 150 190 l 114 190 q 99 171 108 182 q 79 160 90 160 q 66 164 73 160 q 53 175 59 169 q 43 189 47 181 q 39 202 39 196 q 43 213 39 207 q 51 227 46 220 q 61 239 56 233 q 69 251 66 245 q 98 323 90 283 q 106 401 106 363 q 105 427 106 414 q 103 452 104 439 q 85 450 94 450 q 68 449 77 449 q 52 465 52 449 q 55 484 52 477 q 64 495 58 491 q 78 502 70 499 q 96 506 86 504 q 85 555 92 530 q 72 604 78 580 q 61 653 66 629 q 57 703 57 678 q 66 756 57 732 q 93 796 76 780 q 135 821 111 812 q 189 830 159 830 q 260 807 233 830 q 301 743 288 784 q 307 725 304 734 q 309 707 309 716 q 305 691 309 697 q 290 685 300 685 q 263 692 273 685 q 247 709 254 699 q 236 731 241 719 q 226 753 232 743 q 212 770 220 764 q 189 777 203 777 q 142 757 157 777 q 127 707 127 736 q 132 659 127 683 q 142 611 136 635 q 155 564 149 587 q 167 517 162 540 q 203 525 184 520 q 240 529 222 529 q 256 523 252 529 q 260 505 260 516 q 256 479 260 488 q 243 468 251 471 q 223 463 235 464 q 199 461 212 463 l 176 460 q 180 396 180 427 q 173 317 180 356 q 148 243 165 279 q 184 241 166 243 q 220 240 201 240 q 241 241 229 240 q 264 246 253 242 q 283 257 275 250 q 290 277 290 264 q 288 293 290 285 q 281 309 285 301 q 275 322 278 316 q 273 334 273 329 q 276 344 273 340 q 286 350 280 348 q 297 353 291 352 q 308 354 303 354 q 336 348 325 354 q 354 333 347 342 q 363 310 361 323 q 366 282 366 297 z "},"§":{"ha":480,"x_min":18,"x_max":459,"o":"m 231 678 q 217 658 224 667 q 206 640 211 649 q 198 619 201 630 q 195 594 195 608 q 204 546 195 568 q 229 503 214 523 q 263 465 244 482 q 299 431 281 447 q 317 469 311 449 q 322 510 322 488 q 315 559 322 535 q 296 604 308 583 q 267 644 283 625 q 231 678 250 663 m 459 167 q 442 79 459 117 q 395 13 425 40 q 324 -28 365 -14 q 235 -42 283 -42 q 151 -29 189 -42 q 86 8 113 -16 q 45 70 60 33 q 31 153 31 106 q 32 182 31 164 q 37 219 34 200 q 44 254 40 237 q 54 281 48 271 q 64 293 59 289 q 79 297 69 297 q 101 293 88 297 q 125 281 114 288 q 144 264 136 274 q 153 243 153 254 q 151 222 153 233 q 146 198 149 211 q 141 172 143 186 q 139 145 139 159 q 163 69 139 96 q 238 42 187 42 q 290 52 268 42 q 328 78 313 61 q 350 119 342 96 q 357 172 357 143 q 353 215 357 194 q 340 255 349 235 q 313 294 330 277 q 280 327 296 311 q 220 382 252 353 q 161 444 188 412 q 117 514 135 477 q 100 593 100 551 q 116 663 100 629 q 158 723 132 697 q 107 754 132 736 q 62 794 82 772 q 31 843 43 817 q 18 902 18 870 q 35 969 18 940 q 78 1018 52 998 q 138 1048 104 1038 q 205 1058 172 1058 q 285 1043 251 1058 q 342 1002 319 1029 q 376 940 365 976 q 387 860 387 903 q 387 841 387 852 q 385 818 386 830 q 382 795 384 806 q 378 779 380 784 q 370 768 374 771 q 357 765 366 765 q 338 768 348 765 q 318 778 328 772 q 302 792 309 784 q 294 810 296 800 q 292 820 292 815 q 292 830 292 825 q 291 880 292 854 q 282 929 290 907 q 257 966 274 951 q 207 981 239 981 q 175 975 191 981 q 146 960 159 970 q 126 935 134 949 q 119 903 119 921 q 126 869 119 885 q 147 839 134 852 q 175 814 159 825 q 205 796 190 804 q 295 743 253 772 q 371 671 337 715 q 413 593 397 635 q 429 506 429 551 q 415 428 429 465 q 374 361 401 391 q 409 318 393 340 q 436 273 425 296 q 453 222 448 249 q 459 167 459 196 z "},"•":{"ha":217,"x_min":26,"x_max":191,"o":"m 191 477 q 184 446 191 461 q 166 420 178 431 q 141 401 155 408 q 109 395 126 395 q 76 402 91 395 q 50 422 60 410 q 33 450 39 434 q 26 484 26 467 q 32 517 26 501 q 49 546 38 534 q 75 566 60 559 q 109 574 90 574 q 144 566 129 574 q 170 544 159 557 q 185 513 180 530 q 191 477 191 496 z "},"¶":{"ha":543,"x_min":12,"x_max":495,"o":"m 335 869 q 339 823 338 848 q 340 771 340 798 q 340 719 340 745 q 340 671 340 692 q 342 532 342 605 q 345 393 343 460 q 366 398 356 395 q 388 403 376 401 q 384 514 386 455 q 381 633 382 573 q 380 753 380 694 q 380 864 380 812 q 357 868 368 866 q 335 869 347 869 m 262 393 q 262 507 262 447 q 263 627 262 566 q 263 748 263 688 q 262 860 262 807 l 262 867 q 189 835 220 861 q 137 772 158 809 q 104 693 115 736 q 94 612 94 651 q 105 535 94 572 q 138 470 117 499 q 191 420 159 440 q 262 393 222 400 m 349 18 q 344 -5 349 5 q 324 -15 340 -15 q 306 -11 316 -15 q 288 -4 295 -7 q 265 17 270 5 q 260 49 260 29 q 260 110 260 76 q 260 178 260 143 q 261 246 260 212 q 262 307 261 279 q 160 341 205 315 q 81 408 114 368 q 30 499 48 448 q 12 606 12 550 q 23 698 12 650 q 55 791 34 747 q 108 870 77 835 q 180 925 139 906 q 239 943 208 939 q 301 948 271 948 q 362 944 332 948 q 380 941 368 943 q 407 935 393 939 q 437 927 422 931 q 465 917 452 922 q 486 905 477 911 q 494 892 494 899 q 490 880 494 886 q 480 869 486 874 q 468 860 475 864 q 456 854 461 857 q 461 701 458 781 q 466 539 463 621 q 472 378 469 458 q 480 225 475 298 q 482 183 481 208 q 485 133 484 159 q 488 84 486 108 q 492 42 490 60 q 494 28 494 35 q 495 14 495 21 q 486 -6 495 -1 q 465 -11 477 -11 q 435 -6 452 -11 q 411 11 419 -1 q 404 29 406 18 q 401 51 401 39 q 400 73 400 62 q 400 94 401 84 q 398 144 399 115 q 396 202 397 172 q 394 261 395 232 q 392 312 393 290 q 369 307 380 308 q 346 304 358 305 q 347 236 347 273 q 348 161 347 199 q 348 85 348 122 q 349 18 349 48 z "},"ß":{"ha":465,"x_min":-12,"x_max":473,"o":"m 90 33 q 83 174 84 103 q 82 315 82 244 l 82 345 q 45 342 64 343 q 8 340 26 340 q -7 346 -3 340 q -12 363 -12 352 q -11 379 -12 370 q -7 396 -10 388 q 1 412 -4 405 q 16 421 6 419 l 15 421 q 25 422 18 422 q 43 422 33 422 q 65 422 54 422 q 82 422 77 422 q 84 542 82 482 q 94 660 87 601 q 108 738 99 696 q 136 813 117 779 q 184 870 154 848 q 261 893 214 893 q 328 879 298 893 q 379 842 358 865 q 412 786 400 818 q 423 718 423 754 q 411 634 423 676 q 377 555 399 591 q 349 515 366 537 q 313 461 330 490 q 297 403 297 433 q 304 364 297 382 q 324 329 312 346 q 351 296 336 312 q 383 266 367 281 q 416 233 400 250 q 445 200 432 217 q 465 163 457 182 q 473 123 473 144 q 458 67 473 92 q 420 25 444 43 q 369 -1 397 8 q 314 -11 341 -11 q 242 2 277 -11 q 177 35 208 14 q 178 20 178 27 q 178 6 178 14 q 173 -17 178 -7 q 151 -27 169 -27 q 108 -11 122 -27 q 90 33 94 5 m 171 389 q 171 237 171 313 q 174 85 172 161 q 197 95 184 91 q 220 99 210 99 q 242 95 231 99 q 263 85 253 90 q 287 74 274 79 q 317 68 300 68 q 338 73 327 68 q 357 85 349 78 q 372 103 366 93 q 378 124 378 113 q 372 145 378 134 q 358 166 367 155 q 337 189 349 178 q 313 213 326 201 q 275 252 294 231 q 239 295 255 272 q 213 344 223 318 q 203 400 203 370 q 208 442 203 422 q 221 479 213 462 q 240 513 230 496 q 262 545 251 529 q 286 582 274 563 q 308 622 298 600 q 323 668 317 643 q 329 722 329 692 q 325 753 329 736 q 313 785 321 770 q 292 808 305 799 q 261 818 279 818 q 231 802 244 818 q 208 760 218 787 q 192 700 199 734 q 182 628 186 665 q 175 554 178 591 q 172 484 173 517 q 171 427 171 452 q 171 389 171 401 z "},"®":{"ha":458,"x_min":20,"x_max":437,"o":"m 231 208 q 158 227 192 208 q 99 274 125 245 q 63 327 78 298 q 39 386 48 355 q 25 449 29 417 q 20 513 20 481 q 25 578 20 543 q 41 648 31 613 q 69 714 52 682 q 109 771 85 747 q 162 810 132 795 q 229 825 192 825 q 293 811 264 825 q 345 775 321 798 q 385 722 368 752 q 414 657 402 692 q 431 586 425 623 q 437 515 437 550 q 422 400 437 456 q 380 302 407 345 q 315 233 353 259 q 231 208 277 208 m 160 727 q 175 728 168 728 q 190 728 182 728 q 241 722 216 728 q 286 702 267 715 q 318 667 306 688 q 330 616 330 646 q 323 575 330 594 q 304 539 316 555 q 275 509 292 523 q 240 486 259 496 q 290 432 264 459 q 339 378 315 405 q 351 412 347 396 q 358 443 356 428 q 361 474 361 458 q 362 509 362 490 q 364 527 362 518 q 374 541 366 536 q 373 551 373 547 q 372 559 373 555 q 364 599 369 577 q 351 644 359 621 q 332 687 343 666 q 305 724 320 707 q 272 750 290 740 q 231 760 253 760 q 192 750 209 760 q 160 727 174 741 m 191 674 q 199 639 199 658 q 198 616 199 627 q 197 594 197 606 q 195 562 195 578 q 195 530 195 547 q 223 544 210 536 q 249 562 237 551 q 267 586 260 572 q 274 616 274 599 q 266 644 274 633 q 246 662 258 655 q 219 671 234 668 q 191 674 205 673 m 210 330 q 191 312 210 312 q 165 316 178 312 q 150 330 153 321 q 144 351 146 338 q 139 431 140 391 q 138 511 138 471 l 137 513 l 138 513 q 141 592 140 553 q 148 671 142 631 q 134 668 140 670 q 121 665 127 667 q 98 594 106 633 q 90 521 90 555 q 93 476 90 501 q 103 424 96 451 q 121 372 110 397 q 147 326 132 346 q 182 293 162 306 q 228 281 202 281 q 272 293 252 281 q 307 323 292 304 q 289 342 296 331 q 271 363 281 353 q 235 404 253 384 q 198 446 216 425 q 200 404 199 425 q 205 361 201 382 q 208 346 206 353 q 210 330 210 338 z "},"©":{"ha":467,"x_min":20,"x_max":446,"o":"m 382 529 q 378 559 380 545 q 373 589 376 574 q 356 643 368 614 q 328 698 345 673 q 287 741 311 724 q 233 758 263 758 q 190 746 210 758 q 143 702 162 730 q 112 640 124 673 q 95 571 100 606 q 90 507 90 536 q 96 439 90 477 q 115 365 102 401 q 150 300 128 329 q 202 258 171 271 q 217 253 210 254 q 232 252 224 252 q 261 258 248 252 q 288 273 275 264 q 310 294 300 282 q 327 317 319 306 q 364 409 355 360 q 373 506 373 457 q 374 519 373 513 q 382 529 375 526 m 235 179 q 167 194 197 179 q 113 235 136 210 q 72 293 89 260 q 43 361 54 326 q 26 433 31 397 q 20 499 20 469 q 25 567 20 530 q 41 639 31 603 q 69 709 52 675 q 110 768 86 742 q 164 809 134 793 q 233 825 195 825 q 299 810 269 825 q 353 770 329 795 q 394 712 376 745 q 423 644 411 680 q 440 571 435 608 q 446 502 446 534 q 440 427 446 465 q 421 354 433 389 q 390 286 408 318 q 349 231 372 254 q 296 193 325 207 q 235 179 268 179 m 345 418 q 339 394 345 406 q 328 370 334 382 q 293 326 315 345 q 241 307 271 307 q 197 317 216 307 q 165 347 178 328 q 143 388 152 365 q 130 435 135 411 q 124 484 125 460 q 122 526 122 507 q 127 587 122 557 q 145 646 132 618 q 163 675 152 661 q 187 701 174 690 q 217 719 201 712 q 251 726 233 726 q 283 718 267 726 q 312 697 299 710 q 333 669 325 685 q 340 636 340 653 q 324 621 340 621 q 298 629 307 621 q 283 646 290 637 q 271 664 277 656 q 252 671 265 671 q 240 669 246 671 q 228 663 233 667 q 203 638 212 654 q 188 605 193 623 q 180 568 182 587 q 178 533 178 549 q 180 491 178 519 q 189 435 182 463 q 208 387 196 408 q 240 366 220 366 q 265 380 257 366 q 278 411 273 394 q 287 442 283 428 q 302 456 292 456 q 317 452 309 456 q 330 444 324 449 q 340 432 336 439 q 345 418 345 425 z "},"™":{"ha":580,"x_min":13,"x_max":546,"o":"m 261 895 q 254 875 261 883 q 235 864 247 867 q 196 860 216 860 q 158 859 176 860 l 158 792 q 163 621 158 706 q 180 452 168 536 q 182 441 181 446 q 182 431 182 437 q 166 415 182 415 q 152 417 160 415 q 138 422 143 418 q 129 430 132 426 q 125 441 127 433 q 121 489 122 465 q 117 537 119 513 q 111 640 114 589 q 108 743 108 691 q 109 800 108 772 q 109 856 109 827 q 66 851 87 854 q 24 849 45 849 q 13 860 13 849 q 21 879 13 872 q 40 887 28 885 q 75 892 58 891 q 111 895 93 893 q 113 908 111 903 q 123 914 115 914 q 139 910 131 914 q 153 899 147 907 l 210 906 q 225 908 218 907 q 241 909 233 909 q 255 907 249 909 q 261 895 261 905 m 546 429 q 543 417 546 421 q 532 412 540 412 q 515 416 523 412 q 501 420 506 418 q 494 426 496 422 q 490 434 491 429 q 489 448 490 439 q 484 586 487 517 q 473 724 481 654 q 465 676 469 700 q 455 629 460 653 q 446 578 450 604 q 433 528 441 552 q 424 512 429 517 q 406 506 418 506 q 394 509 399 506 q 383 518 389 513 q 374 536 379 523 q 363 568 369 550 q 353 607 358 586 q 342 647 347 627 q 334 682 338 666 q 329 705 330 697 l 329 659 q 330 570 329 614 q 336 480 332 525 q 338 461 337 471 q 340 441 340 451 q 334 430 340 433 q 321 427 328 427 q 291 435 301 427 q 281 464 281 444 q 279 545 281 505 q 277 627 277 586 q 278 656 277 634 q 279 708 278 679 q 280 769 279 736 q 282 828 281 801 q 284 875 283 856 q 287 898 286 895 q 298 905 288 905 q 318 899 310 905 q 330 880 327 894 q 341 855 335 873 q 354 811 347 836 q 368 757 361 786 q 381 701 375 728 q 392 652 387 674 q 401 617 397 629 q 421 733 411 675 q 440 850 431 791 q 444 869 442 860 q 446 888 446 878 q 444 900 446 895 q 443 910 443 905 q 447 919 443 918 q 456 921 451 921 q 470 919 462 921 q 485 914 477 918 q 496 906 492 911 q 501 894 501 901 q 500 882 501 888 q 498 869 500 876 q 519 754 512 812 q 532 637 527 697 q 538 538 536 587 q 545 439 541 490 q 545 433 545 436 q 546 429 546 431 z "},"´":{"ha":159,"x_min":-20,"x_max":179,"o":"m -20 788 q -15 803 -20 795 q -1 819 -9 811 q 15 832 7 826 q 28 844 23 839 l 95 905 q 112 919 103 911 q 132 926 121 926 q 147 921 138 926 q 162 909 155 916 q 174 893 170 902 q 179 878 179 884 q 179 875 179 876 q 178 872 179 873 q 170 858 176 864 q 156 846 163 852 q 124 821 135 829 q 103 805 113 812 q 82 790 94 798 q 49 766 70 782 q 34 758 41 761 q 19 754 27 754 q 6 757 13 754 q -7 764 -1 760 q -17 775 -13 769 q -20 788 -20 781 z "},"¨":{"ha":232,"x_min":-20,"x_max":252,"o":"m -20 887 q -16 898 -20 894 q -4 903 -11 901 q 11 905 3 905 q 23 905 18 905 q 39 904 30 905 q 56 902 48 904 q 70 894 64 899 q 76 880 76 889 q 76 866 76 877 q 75 842 75 854 q 74 818 75 829 q 73 807 74 808 q 59 799 68 800 q 43 798 51 798 q 12 800 22 798 q -3 808 2 802 q -8 825 -7 814 q -12 853 -9 836 q -17 869 -14 861 q -20 887 -20 878 m 156 887 q 161 898 156 894 q 173 903 165 901 q 187 905 180 905 q 199 905 194 905 q 215 904 206 905 q 233 902 224 904 q 247 894 241 899 q 252 880 252 889 q 252 866 252 877 q 251 842 252 854 q 251 818 251 829 q 250 807 250 808 q 236 799 244 800 q 220 798 227 798 q 189 800 199 798 q 174 808 178 802 q 168 825 169 814 q 164 853 167 836 q 159 869 162 861 q 156 887 156 878 z "},"≠":{"ha":323,"x_min":17,"x_max":303,"o":"m 261 776 q 257 743 261 766 q 248 696 253 721 q 237 647 242 671 q 229 612 231 624 l 267 612 q 288 609 277 612 q 299 593 299 606 q 295 575 299 583 q 282 549 289 557 q 265 538 275 541 q 243 536 256 536 q 214 537 231 537 q 205 497 210 517 q 197 458 201 478 q 224 460 211 460 q 252 460 238 460 q 265 459 256 460 q 282 457 274 459 q 297 451 291 455 q 303 439 303 447 q 300 425 303 433 q 291 409 296 416 q 280 395 286 401 q 268 387 274 389 q 258 385 262 385 q 249 385 254 385 q 216 386 233 385 q 182 387 199 387 q 164 306 173 347 q 150 224 156 266 q 148 212 149 218 q 145 200 147 205 q 139 190 143 194 q 127 186 134 186 q 113 188 121 186 q 97 194 104 190 q 85 204 90 198 q 81 217 81 210 q 83 235 81 222 q 89 264 85 248 q 97 300 93 281 q 105 336 101 319 q 113 367 109 353 q 117 387 116 380 q 83 386 100 387 q 48 385 66 385 q 37 386 43 385 q 27 388 32 386 q 20 393 23 389 q 17 403 17 396 q 30 434 17 424 q 60 449 42 445 q 98 453 79 453 q 132 454 118 453 l 151 537 l 60 537 q 48 537 56 537 q 34 539 41 538 q 22 545 27 541 q 17 556 17 549 q 26 585 17 575 q 50 599 36 595 q 81 603 64 603 q 111 605 97 604 q 139 606 125 605 q 168 608 153 606 l 191 715 q 194 734 192 722 q 200 760 197 747 q 205 785 203 773 q 211 802 208 796 q 215 808 213 806 q 223 810 218 810 q 249 800 237 810 q 261 776 261 790 z "},"Æ":{"ha":789,"x_min":-6,"x_max":805,"o":"m 805 148 q 796 125 805 136 q 774 104 787 115 q 748 86 762 94 q 726 72 735 77 q 680 44 703 57 q 633 22 657 31 q 584 7 609 12 q 530 1 558 1 l 520 0 q 446 12 475 -1 q 400 47 417 25 q 374 98 382 69 q 363 160 366 127 q 359 227 359 193 q 357 293 359 261 q 264 284 311 291 q 169 274 217 278 l 123 141 q 113 107 119 128 q 99 65 106 87 q 85 24 92 43 q 71 -4 78 5 q 62 -15 66 -12 q 48 -19 58 -19 q 10 -6 26 -19 q -6 30 -6 7 q -1 52 -6 35 q 12 94 4 70 q 28 146 19 118 q 47 199 38 174 q 63 244 56 224 q 73 273 70 264 q 51 279 62 275 q 40 296 40 283 q 46 307 40 301 q 61 319 53 313 q 78 328 70 324 q 92 334 87 332 q 154 523 123 429 q 212 713 184 617 q 240 819 227 765 q 275 922 252 872 q 303 961 286 946 q 348 977 319 977 q 382 966 372 977 q 401 933 393 955 q 437 941 418 939 q 474 943 456 943 q 564 942 519 943 q 653 941 608 941 q 680 942 667 941 q 707 940 693 943 q 722 936 715 939 q 728 922 728 932 q 716 890 728 902 q 689 873 705 879 q 654 867 673 868 q 621 865 635 865 q 559 866 590 865 q 498 867 529 867 q 471 867 484 867 q 444 865 458 867 q 439 844 440 855 q 437 822 437 833 q 442 676 437 748 q 450 530 446 604 q 533 538 492 534 q 615 549 574 543 q 626 550 621 549 q 637 551 631 551 q 657 543 651 551 q 663 522 663 536 q 662 505 663 513 q 657 488 661 496 q 641 468 652 475 q 616 459 630 462 q 588 457 603 457 q 562 457 574 458 l 452 453 q 454 410 453 439 q 457 347 456 382 q 461 273 459 311 q 467 200 464 234 q 472 142 469 167 q 479 109 475 117 q 496 90 487 94 q 520 85 505 85 q 574 95 546 85 q 628 120 602 105 q 679 154 654 136 q 721 190 703 172 q 735 202 727 196 q 753 209 743 209 q 772 203 763 209 q 789 188 782 197 q 801 168 796 179 q 805 148 805 157 m 344 378 l 344 411 q 340 585 344 498 q 326 758 336 671 q 263 555 296 656 q 196 353 230 454 q 270 365 233 358 q 344 378 307 371 z "},"Ø":{"ha":537,"x_min":40,"x_max":493,"o":"m 163 278 l 288 837 q 292 856 290 844 q 296 880 294 867 q 277 884 288 884 q 259 875 267 884 q 243 850 251 865 q 230 818 236 836 q 218 784 224 800 q 206 755 212 768 q 195 736 201 742 q 188 734 193 734 q 180 734 184 734 q 158 738 168 734 q 142 646 146 692 q 138 553 138 600 q 139 510 138 538 q 143 443 140 481 q 151 363 146 406 q 163 278 156 320 m 366 742 q 334 591 349 666 q 303 441 319 517 q 266 264 285 352 q 229 87 246 176 q 260 71 243 71 q 278 76 270 71 q 294 88 286 82 q 329 136 314 106 q 354 202 344 166 q 371 278 364 238 q 381 356 378 317 q 386 430 385 395 q 387 491 387 465 q 387 533 387 506 q 384 595 386 561 q 377 668 381 629 q 366 742 372 706 m 404 936 q 403 925 404 930 q 402 914 402 920 q 437 859 422 890 q 463 792 452 827 q 479 721 473 758 q 488 648 485 684 q 492 580 491 612 q 493 521 493 547 q 492 455 493 492 q 487 374 491 417 q 476 287 484 332 q 458 199 469 242 q 429 119 446 157 q 389 52 412 81 q 334 7 365 24 q 262 -9 302 -9 q 214 -1 236 -9 q 203 -19 210 -12 q 184 -26 196 -26 q 161 -22 174 -26 q 136 -12 148 -18 q 116 4 124 -5 q 108 24 108 13 q 109 33 108 28 q 109 41 109 37 q 114 62 111 52 q 119 84 117 73 q 92 147 104 111 q 72 223 81 183 q 57 304 63 262 q 47 387 51 347 q 42 463 43 427 q 40 526 40 498 q 44 631 40 576 q 61 740 49 686 q 94 844 73 794 q 149 935 115 895 q 157 944 152 939 q 168 955 162 949 q 181 963 174 960 q 193 967 187 967 q 205 964 199 967 q 215 955 211 960 q 245 966 229 963 q 277 970 261 970 q 317 966 298 970 q 321 978 319 974 q 329 988 325 985 q 341 991 333 991 q 363 987 352 991 q 384 975 374 983 q 398 958 393 968 q 404 936 404 947 z "},"±":{"ha":373,"x_min":18,"x_max":355,"o":"m 230 271 q 219 254 230 258 q 197 251 208 251 q 149 261 167 251 q 131 307 131 272 l 131 441 q 87 439 109 439 q 43 439 65 439 q 26 443 35 439 q 18 457 18 447 q 31 486 18 476 q 62 500 44 496 q 99 505 80 505 q 132 507 119 506 q 133 547 133 523 q 132 595 132 570 q 133 642 132 619 q 138 678 134 665 q 144 692 140 688 q 159 696 149 696 q 195 686 183 696 q 211 660 207 675 q 216 627 216 645 q 216 591 216 608 l 218 513 q 271 516 244 515 q 325 518 298 518 q 346 515 336 518 q 355 498 355 511 q 350 477 355 488 q 340 458 345 466 q 315 444 330 445 q 287 442 300 442 l 219 441 q 220 363 219 402 q 229 285 220 323 q 229 278 229 281 q 230 271 230 275 m 328 159 q 323 141 328 149 q 316 122 319 130 q 307 111 312 115 q 293 105 301 106 q 273 103 286 103 l 89 103 q 77 103 84 103 q 63 105 70 104 q 51 111 56 107 q 45 122 45 115 q 57 151 45 138 q 85 167 68 163 q 112 169 98 169 q 139 171 125 170 q 216 175 178 173 q 295 178 255 178 q 306 177 300 178 q 316 175 311 177 q 325 170 321 174 q 328 159 328 165 z "},"¥":{"ha":342,"x_min":14,"x_max":317,"o":"m 217 513 q 242 514 229 514 q 267 514 255 514 q 278 514 271 514 q 285 509 285 514 q 284 504 285 507 q 282 498 283 501 q 272 479 277 484 q 251 475 267 475 l 202 475 q 205 450 204 463 q 208 425 206 437 q 239 425 224 425 q 270 426 254 426 q 280 425 273 426 q 288 419 288 425 q 280 401 288 412 q 266 388 273 390 q 258 386 262 386 q 250 385 254 385 q 230 386 239 385 q 212 388 221 387 q 217 290 214 339 q 221 193 221 241 q 217 183 221 185 q 208 182 213 182 q 197 183 204 182 q 182 185 190 184 q 168 189 174 187 q 159 194 161 191 q 153 201 155 197 q 152 210 152 205 q 151 299 152 255 q 151 388 151 343 q 122 387 136 387 q 94 387 108 387 q 84 387 90 387 q 79 391 79 387 q 86 410 79 404 q 105 418 94 416 q 129 420 117 420 q 149 420 141 420 l 149 475 l 111 475 q 104 475 109 475 q 93 475 98 475 q 83 477 87 476 q 79 480 79 478 q 84 494 79 489 q 97 503 90 500 q 114 507 105 506 q 129 509 122 508 q 89 603 107 555 q 49 697 71 650 q 40 715 45 704 q 28 740 34 727 q 18 763 22 752 q 14 780 14 774 q 19 784 14 784 q 27 784 24 784 q 54 784 41 784 q 81 777 68 783 q 91 760 83 776 q 107 720 98 744 q 126 669 116 696 q 146 615 137 641 q 162 570 155 590 q 172 544 170 551 q 214 668 193 606 q 248 793 235 730 q 251 805 250 800 q 255 815 252 810 q 266 821 258 821 q 279 820 271 821 q 296 816 288 819 q 311 809 304 813 q 317 799 317 805 q 311 767 317 789 q 296 718 305 746 q 274 660 286 690 q 251 600 262 629 q 231 548 240 571 q 217 513 222 525 z "},"µ":{"ha":425,"x_min":37,"x_max":395,"o":"m 184 468 q 178 415 184 442 q 169 362 172 388 q 167 333 167 348 q 168 304 168 318 q 169 253 168 281 q 172 197 170 225 q 179 141 174 168 q 191 94 183 114 q 212 132 202 107 q 230 187 222 157 q 245 251 238 218 q 257 317 252 285 q 265 377 262 349 q 271 423 269 405 q 272 448 271 435 q 276 470 273 460 q 287 488 279 480 q 310 499 294 496 q 317 500 313 500 q 325 500 321 500 q 358 489 345 500 q 374 456 372 477 q 375 411 376 434 q 375 366 375 389 q 374 290 375 328 q 374 213 374 252 q 376 139 374 176 q 387 65 378 101 q 392 49 389 57 q 395 31 395 41 q 385 15 395 19 q 364 11 374 11 q 324 16 338 11 q 302 31 309 21 q 293 58 295 41 q 288 96 290 74 q 271 66 281 83 q 248 36 260 50 q 219 13 235 22 q 186 4 203 4 q 156 12 169 4 q 132 33 142 20 q 128 -121 128 -43 q 132 -219 128 -170 q 135 -319 135 -269 q 125 -333 135 -330 q 106 -336 116 -336 q 91 -335 100 -336 q 73 -331 82 -334 q 56 -323 64 -328 q 44 -313 48 -319 q 40 -297 41 -309 q 38 -272 39 -286 q 37 -247 37 -259 q 37 -229 37 -235 q 41 -27 37 -127 q 58 174 45 73 q 66 239 62 206 q 77 305 71 273 q 83 336 80 321 q 87 368 85 352 q 89 398 88 380 q 90 435 90 416 q 92 471 91 454 q 96 498 93 488 q 106 513 100 510 q 124 514 113 516 q 132 515 127 515 q 168 502 152 515 q 184 468 184 488 z "},"∂":{"ha":354,"x_min":24,"x_max":330,"o":"m 191 556 q 187 570 189 564 q 184 585 186 577 q 167 651 178 614 q 145 728 157 688 q 123 804 134 767 q 106 871 113 842 q 104 884 105 878 q 103 896 102 890 q 106 904 103 901 q 117 909 110 907 q 147 908 130 912 q 173 891 165 903 q 187 860 178 884 q 208 800 196 836 q 233 720 220 764 q 261 626 247 675 q 287 527 275 577 q 309 431 300 477 q 325 345 319 385 q 330 278 330 306 q 320 160 330 218 q 280 49 311 101 q 259 19 271 33 q 232 -8 247 4 q 201 -27 218 -20 q 165 -34 184 -34 q 113 -20 135 -34 q 76 17 92 -6 q 50 68 60 39 q 34 127 40 98 q 26 186 28 157 q 24 236 24 214 q 26 290 24 260 q 33 350 28 319 q 46 410 38 380 q 68 466 55 440 q 101 513 82 492 q 144 545 119 534 q 186 556 166 556 l 191 556 m 157 464 q 133 417 142 444 q 118 363 123 391 q 110 306 113 334 q 108 254 108 278 q 110 202 108 233 q 119 138 113 170 q 136 77 125 105 q 165 37 147 50 q 202 76 187 49 q 225 137 216 104 q 237 203 234 170 q 241 260 241 237 q 239 307 241 278 q 232 364 237 335 q 218 419 227 393 q 195 456 209 444 q 186 454 191 454 q 178 453 182 453 q 157 464 165 453 z "},"ª":{"ha":290,"x_min":17,"x_max":280,"o":"m 163 827 q 140 790 150 808 q 122 754 130 772 q 109 716 115 736 q 97 675 102 697 q 90 648 93 661 q 86 620 86 634 l 86 608 q 116 651 103 623 q 137 710 128 679 q 153 773 146 742 q 163 827 159 804 m 280 559 q 274 548 280 552 q 261 542 269 544 q 244 539 253 540 q 231 538 236 538 q 205 549 214 538 q 192 574 196 559 q 186 606 187 589 q 184 635 184 623 q 166 604 176 619 q 143 575 156 588 q 114 553 130 562 q 79 545 98 545 q 52 552 63 545 q 33 569 40 558 q 22 593 25 580 q 18 621 18 607 q 28 693 18 657 q 54 764 38 730 q 91 830 71 798 q 134 888 112 861 q 143 900 138 893 q 155 913 149 907 q 168 923 161 919 q 182 928 175 928 q 197 921 191 928 q 207 906 203 913 q 215 907 210 907 q 237 903 229 907 q 251 890 246 898 q 258 871 256 882 q 260 849 260 861 q 258 797 260 823 q 256 745 256 771 q 256 671 256 709 q 265 598 257 634 q 269 589 266 595 q 274 577 271 583 q 278 566 276 571 q 280 559 280 561 m 275 490 q 272 474 275 481 q 265 460 269 466 q 244 447 257 448 q 220 444 232 445 q 164 438 192 441 q 109 431 137 435 q 74 426 92 429 q 39 423 56 423 q 24 427 31 423 q 17 439 17 430 q 18 446 17 445 q 26 463 21 456 q 38 472 31 469 q 54 477 45 475 q 71 480 62 479 q 142 492 107 486 q 212 505 176 498 q 231 508 222 506 q 250 510 241 510 q 268 506 262 510 q 275 490 275 501 z "},"º":{"ha":278,"x_min":20,"x_max":272,"o":"m 105 833 q 93 790 97 814 q 89 745 89 765 q 91 713 89 734 q 97 669 92 691 q 110 630 102 646 q 132 613 119 613 q 158 626 149 613 q 171 657 167 639 q 176 694 175 675 q 177 724 177 713 q 176 755 177 738 q 171 791 174 773 q 162 824 168 808 q 147 852 156 840 q 140 835 144 842 q 124 829 136 829 q 105 833 115 829 m 250 716 q 244 659 250 687 q 225 608 239 630 q 189 571 212 585 q 132 557 166 557 q 78 574 100 557 q 43 615 56 590 q 25 670 31 640 q 20 726 20 699 q 28 808 20 766 q 60 883 37 849 q 68 894 63 888 q 78 905 73 900 q 90 915 84 911 q 102 918 96 918 q 115 914 111 918 q 144 921 130 921 q 170 916 158 921 q 192 903 182 911 q 223 865 212 887 q 241 817 235 842 q 249 766 247 792 q 250 716 250 740 m 272 507 q 234 463 272 467 q 172 457 202 458 q 109 453 141 455 q 77 450 93 452 q 43 449 60 449 q 27 452 35 449 q 20 464 20 454 q 32 490 20 482 q 60 502 44 498 q 93 507 77 505 q 125 510 109 508 q 187 520 156 514 q 250 526 218 526 q 266 522 260 526 q 272 507 272 517 z "},"æ":{"ha":499,"x_min":7,"x_max":511,"o":"m 511 124 q 510 120 511 122 q 509 115 510 118 l 509 115 q 485 69 502 92 q 445 28 467 46 q 396 -1 422 10 q 345 -12 370 -12 q 296 -2 317 -12 q 259 24 275 7 q 232 62 243 41 q 214 107 221 83 q 194 67 206 88 q 167 29 182 46 q 133 0 152 12 q 90 -11 113 -11 q 50 1 66 -11 q 24 31 33 13 q 11 71 15 49 q 7 112 7 92 q 17 208 7 158 q 43 306 26 257 q 81 400 59 355 q 127 484 102 446 q 136 497 131 490 q 146 510 140 504 q 158 519 152 515 q 172 523 165 523 q 195 512 186 523 q 208 490 205 502 q 230 483 219 488 q 250 471 241 479 q 286 505 265 492 q 333 517 306 517 q 372 509 355 517 q 401 485 389 500 q 419 452 413 471 q 426 412 426 433 q 414 355 426 386 q 382 295 401 323 q 338 242 362 266 q 290 207 314 218 q 296 170 292 193 q 308 124 300 146 q 325 84 315 101 q 347 67 335 67 q 366 75 355 67 q 385 94 376 83 q 401 117 394 105 q 412 136 408 128 q 414 140 413 138 l 415 140 q 424 157 420 149 q 437 170 429 164 l 436 170 q 441 173 439 172 q 448 173 444 173 q 466 168 456 173 q 487 156 477 163 q 504 141 496 149 q 511 124 511 132 m 165 372 q 164 377 165 374 q 163 383 163 380 q 116 246 132 317 q 100 101 100 175 q 100 95 100 98 q 101 90 100 92 l 101 88 q 129 149 117 112 q 149 226 141 186 q 161 305 157 266 q 165 372 165 344 m 336 410 q 336 424 336 416 q 332 437 335 431 q 316 410 323 426 q 305 377 309 395 q 297 342 300 359 q 292 309 294 324 q 323 356 309 330 q 336 410 336 383 z "},"ø":{"ha":341,"x_min":17,"x_max":327,"o":"m 184 448 q 179 448 182 448 q 174 448 176 448 q 162 450 168 448 q 153 456 157 453 q 130 411 139 437 q 116 359 121 386 q 109 305 111 332 q 107 254 107 278 q 108 219 107 237 q 111 183 109 201 l 184 448 m 203 212 q 181 127 192 169 q 160 43 170 85 l 161 43 q 195 84 182 57 q 217 143 209 111 q 229 206 225 174 q 232 261 232 238 q 232 286 232 274 q 230 312 231 298 l 203 212 m 284 534 q 281 515 284 526 q 276 494 279 505 l 275 489 q 300 443 290 469 q 316 388 310 416 q 325 331 322 359 q 327 278 327 302 q 317 160 327 219 q 277 50 307 102 q 255 19 267 34 q 228 -7 243 5 q 196 -26 214 -19 q 160 -33 179 -33 q 152 -33 156 -33 q 144 -33 147 -33 q 136 -52 142 -44 q 116 -60 130 -60 q 99 -58 110 -60 q 79 -51 89 -56 q 62 -40 69 -46 q 55 -25 55 -33 q 57 -8 55 -17 q 62 9 59 1 l 62 9 q 65 15 64 12 q 66 22 66 18 q 43 70 52 43 q 27 125 33 97 q 19 183 22 154 q 17 237 17 212 q 21 320 17 274 q 39 410 26 366 q 76 491 52 454 q 138 546 100 528 l 138 545 q 182 557 160 557 q 199 553 191 557 q 208 541 206 549 q 216 563 210 553 q 234 572 221 572 q 250 570 241 572 q 267 563 259 568 q 279 551 274 558 q 284 534 284 544 z "},"¿":{"ha":434,"x_min":52,"x_max":412,"o":"m 298 644 q 294 633 298 637 q 282 628 289 629 q 267 627 275 627 q 254 627 259 627 q 238 627 247 627 q 220 630 229 627 q 207 637 212 632 q 201 651 201 642 q 201 665 201 654 q 202 690 201 677 q 203 713 203 703 q 205 724 204 723 q 218 733 210 732 q 235 734 227 734 q 265 731 255 734 q 280 723 275 729 q 286 706 284 717 q 290 678 287 695 q 295 662 292 670 q 298 644 298 654 m 412 -84 q 403 -159 412 -122 q 373 -224 393 -195 q 322 -270 353 -252 q 248 -288 291 -288 q 151 -263 189 -288 q 91 -199 113 -238 q 60 -110 68 -159 q 52 -12 52 -61 q 57 97 52 42 q 83 203 63 153 q 115 269 95 235 q 154 339 135 304 q 187 409 173 374 q 201 477 201 444 l 201 507 q 207 537 201 526 q 233 549 213 549 q 261 545 245 549 q 288 536 277 541 q 309 516 304 528 q 313 487 313 505 q 303 418 313 451 q 278 355 293 386 q 244 294 262 324 q 210 235 226 264 q 165 109 178 175 q 153 -24 153 43 q 155 -57 153 -38 q 161 -96 157 -76 q 171 -137 165 -117 q 188 -173 178 -157 q 212 -199 198 -189 q 244 -209 226 -209 q 281 -195 267 -209 q 304 -160 296 -180 q 315 -117 312 -140 q 319 -77 319 -94 q 313 -38 319 -58 q 299 -1 307 -18 q 286 27 292 16 q 279 42 279 39 q 285 53 279 49 q 299 59 291 57 q 315 63 307 62 q 328 64 323 64 q 371 48 354 64 q 396 10 387 33 q 409 -39 406 -13 q 412 -84 412 -64 z "},"¡":{"ha":235,"x_min":45,"x_max":185,"o":"m 151 627 q 146 615 151 619 q 135 610 142 612 q 120 609 127 609 q 108 609 113 609 q 92 609 101 609 q 75 612 83 610 q 61 619 66 614 q 55 633 55 624 q 55 648 55 636 q 56 672 56 659 q 57 695 56 685 q 59 707 58 705 q 72 715 63 714 q 89 716 81 716 q 119 714 109 716 q 134 705 130 711 q 140 688 138 699 q 144 661 141 677 q 149 644 146 652 q 151 627 151 636 m 185 -258 q 182 -280 185 -272 q 161 -288 178 -288 q 141 -285 151 -288 q 122 -278 132 -283 q 106 -268 113 -274 q 96 -252 99 -261 q 91 -217 94 -248 q 84 -138 87 -186 q 77 -30 81 -90 q 70 94 74 30 q 63 222 66 158 q 57 340 60 286 q 51 435 54 394 q 47 494 49 475 q 46 505 47 499 q 45 515 45 510 q 73 544 45 544 q 93 542 81 544 q 117 537 104 541 q 139 527 129 533 q 153 514 149 522 q 158 494 158 505 q 158 472 158 484 q 169 173 162 321 q 181 -127 175 24 q 184 -193 182 -160 q 185 -258 185 -225 z "},"¬":{"ha":334,"x_min":19,"x_max":297,"o":"m 297 410 q 296 391 297 404 q 295 363 296 378 q 292 337 294 349 q 289 320 291 325 q 271 309 282 309 q 253 313 262 309 q 236 323 244 317 q 223 338 229 330 q 218 355 218 346 q 222 389 218 373 q 225 423 225 406 q 224 433 225 429 q 222 444 224 438 q 134 437 178 440 q 45 434 90 434 q 27 437 35 434 q 19 452 19 440 q 22 469 19 460 q 31 484 26 478 q 50 496 39 494 q 72 499 60 498 q 143 506 108 503 q 214 513 178 509 q 225 513 220 513 q 236 514 231 514 q 269 504 256 514 q 287 477 281 493 q 295 444 293 462 q 297 410 297 425 z "},"≈":{"ha":354,"x_min":31,"x_max":321,"o":"m 321 647 q 316 601 321 624 q 298 560 310 578 q 267 531 286 542 q 221 519 248 519 q 166 539 184 519 q 142 586 149 558 q 133 646 135 614 q 125 703 131 677 q 121 713 123 707 q 113 720 119 720 q 103 716 106 720 q 98 706 100 712 q 97 694 97 700 q 96 684 96 688 q 100 645 96 664 q 109 606 103 626 q 115 587 111 598 q 119 567 119 575 q 111 552 119 555 q 94 549 103 549 q 65 560 75 549 q 49 587 54 571 q 36 636 41 611 q 31 688 31 662 q 36 724 31 707 q 50 756 40 742 q 75 778 60 770 q 111 787 90 787 q 149 778 134 787 q 174 756 164 770 q 188 724 183 742 q 196 687 193 706 q 201 648 199 667 q 206 613 203 629 q 210 598 208 607 q 221 590 212 590 q 235 596 230 590 q 244 611 241 602 q 248 629 247 620 q 248 646 248 639 q 241 691 248 672 q 227 724 235 710 q 212 747 218 737 q 205 764 205 756 q 210 775 205 770 q 223 784 216 780 q 239 790 231 788 q 252 792 247 792 q 284 775 271 792 q 306 734 298 758 q 318 686 314 711 q 321 647 321 662 m 321 362 q 316 316 321 339 q 298 275 310 294 q 267 246 286 257 q 221 235 248 235 q 166 254 184 235 q 142 301 149 273 q 133 361 135 330 q 125 418 131 393 q 121 429 123 422 q 113 435 119 435 q 103 431 106 435 q 98 421 100 427 q 97 409 97 415 q 96 399 96 403 q 100 360 96 379 q 109 321 103 341 q 115 302 111 313 q 119 282 119 290 q 111 268 119 271 q 94 264 103 264 q 65 275 75 264 q 49 302 54 286 q 36 352 41 326 q 31 403 31 377 q 36 439 31 422 q 50 471 40 457 q 75 493 60 485 q 111 502 90 502 q 149 493 134 502 q 174 471 164 485 q 188 439 183 457 q 196 402 193 421 q 201 363 199 382 q 206 328 203 344 q 210 314 208 322 q 221 305 212 305 q 235 311 230 305 q 244 326 241 317 q 248 345 247 335 q 248 361 248 354 q 241 406 248 387 q 227 439 235 425 q 212 462 218 452 q 205 479 205 471 q 210 490 205 485 q 223 499 216 495 q 239 505 231 503 q 252 507 247 507 q 284 490 271 507 q 306 449 298 473 q 318 401 314 426 q 321 362 321 377 z "},"«":{"ha":385,"x_min":-3,"x_max":382,"o":"m 205 69 q 198 57 205 62 q 179 48 190 52 q 158 44 169 45 q 143 42 148 42 q 131 43 137 42 q 120 47 125 44 q 100 67 113 51 q 74 102 87 83 q 47 139 60 121 q 31 165 35 157 q 8 201 19 182 q -3 240 -3 220 q 0 258 -3 249 q 10 275 4 267 q 22 291 16 283 q 33 307 28 299 l 92 395 q 100 409 95 400 q 111 425 104 417 q 123 438 117 433 q 138 444 130 444 q 151 439 144 444 q 164 429 158 435 q 173 415 170 422 q 177 400 177 407 q 171 383 177 395 q 156 355 165 371 q 136 321 147 339 q 115 286 125 302 q 97 257 105 270 q 85 237 88 243 q 125 174 100 205 q 172 115 149 143 q 188 97 180 106 q 203 79 195 89 q 205 69 205 73 m 382 69 q 374 57 382 62 q 356 48 366 52 q 335 44 345 45 q 319 42 324 42 q 308 43 313 42 q 296 47 302 44 q 277 67 290 51 q 250 102 264 83 q 224 139 236 121 q 207 165 212 157 q 184 201 195 182 q 173 240 173 220 q 177 258 173 249 q 186 275 180 267 q 198 291 192 283 q 210 307 204 299 l 268 395 q 276 409 271 400 q 287 425 281 417 q 300 438 293 433 q 314 444 307 444 q 328 439 321 444 q 340 429 334 435 q 350 415 346 422 q 353 400 353 407 q 348 383 353 395 q 333 355 342 371 q 313 321 323 339 q 292 286 302 302 q 273 257 281 270 q 261 237 264 243 q 301 174 277 205 q 348 115 326 143 q 364 97 356 106 q 379 79 372 89 q 382 69 382 73 z "},"»":{"ha":385,"x_min":3,"x_max":389,"o":"m 212 245 q 209 227 212 236 q 199 210 205 218 q 188 194 194 202 q 177 179 182 186 l 117 90 q 109 76 114 84 q 99 61 104 68 q 86 47 93 53 q 73 42 79 42 q 58 46 65 42 q 45 56 51 50 q 36 70 39 62 q 32 84 32 77 q 38 101 32 89 q 53 130 43 114 q 73 165 62 146 q 94 199 83 183 q 112 229 104 216 q 124 248 121 242 q 85 311 110 281 q 37 369 61 341 q 22 388 30 379 q 7 407 14 397 q 3 416 3 411 q 11 429 3 423 q 30 437 19 434 q 51 442 40 440 q 67 444 62 444 q 79 442 73 444 q 90 437 84 440 q 110 418 97 433 q 136 383 122 402 q 162 346 150 364 q 180 320 174 328 q 201 285 190 304 q 212 245 212 266 m 389 245 q 385 227 389 236 q 376 210 381 218 q 364 194 370 202 q 353 179 358 186 l 294 90 q 286 76 290 84 q 275 61 281 68 q 262 47 269 53 q 249 42 256 42 q 234 46 241 42 q 221 56 227 50 q 212 70 216 62 q 208 84 208 77 q 214 101 208 89 q 229 130 220 114 q 249 165 238 146 q 270 199 260 183 q 289 229 280 216 q 300 248 297 242 q 262 311 286 281 q 214 369 237 341 q 198 388 206 379 q 184 407 190 397 q 180 416 180 411 q 188 429 180 423 q 206 437 195 434 q 227 442 216 440 q 243 444 238 444 q 255 442 250 444 q 267 437 260 440 q 286 418 273 433 q 312 383 298 402 q 338 346 326 364 q 356 320 351 328 q 377 285 366 304 q 389 245 389 266 z "},"…":{"ha":568,"x_min":24,"x_max":541,"o":"m 24 73 q 28 84 24 80 q 40 89 33 87 q 55 91 47 91 q 67 91 62 91 q 83 91 74 91 q 100 88 92 90 q 114 80 109 85 q 120 66 120 75 q 120 52 120 63 q 119 28 119 41 q 118 4 119 15 q 117 -7 118 -6 q 103 -15 112 -14 q 87 -16 95 -16 q 56 -14 66 -16 q 41 -6 46 -12 q 36 11 37 0 q 32 39 35 22 q 27 56 30 47 q 24 73 24 64 m 227 73 q 232 84 227 80 q 244 89 237 87 q 258 91 251 91 q 271 91 265 91 q 287 91 277 91 q 304 88 296 90 q 318 80 312 85 q 323 66 323 75 q 323 52 323 63 q 322 28 323 41 q 322 4 322 15 q 321 -7 321 -6 q 307 -15 315 -14 q 291 -16 298 -16 q 260 -14 270 -16 q 245 -6 250 -12 q 239 11 240 0 q 235 39 238 22 q 230 56 233 47 q 227 73 227 64 m 444 73 q 449 84 444 80 q 461 89 454 87 q 475 91 468 91 q 488 91 482 91 q 504 91 494 91 q 521 88 513 90 q 535 80 529 85 q 541 66 541 75 q 540 52 541 63 q 539 28 540 41 q 539 4 539 15 q 538 -7 538 -6 q 524 -15 532 -14 q 508 -16 515 -16 q 477 -14 487 -16 q 462 -6 467 -12 q 456 11 457 0 q 452 39 455 22 q 447 56 450 47 q 444 73 444 64 z "},"Œ":{"ha":844,"x_min":40,"x_max":859,"o":"m 859 148 q 850 125 859 136 q 828 104 841 115 q 802 86 815 94 q 779 72 788 77 q 733 44 756 57 q 687 22 711 31 q 637 7 663 12 q 584 1 612 1 l 573 0 q 529 5 551 0 q 488 21 507 10 q 454 47 469 31 q 431 87 439 64 q 428 98 429 92 q 425 110 427 104 q 359 24 399 57 q 262 -9 319 -9 q 190 9 222 -9 q 135 58 157 28 q 103 118 117 83 q 78 196 89 154 q 60 283 68 238 q 48 373 53 329 q 42 457 44 417 q 40 526 40 496 q 44 631 40 576 q 61 740 49 686 q 94 844 73 794 q 149 935 115 895 q 157 944 152 939 q 168 955 162 949 q 181 963 174 960 q 193 967 187 967 q 205 964 199 967 q 215 955 211 960 q 245 966 229 963 q 277 970 261 970 q 355 951 322 970 q 412 902 388 932 q 453 933 425 924 q 528 943 480 943 q 617 942 572 943 q 706 941 661 941 q 733 942 720 941 q 760 940 747 943 q 774 936 768 939 q 781 922 781 932 q 764 886 781 898 q 726 870 748 874 q 679 866 703 866 q 640 867 655 867 l 551 867 q 524 867 538 867 q 497 865 511 867 q 492 844 493 855 q 490 822 490 833 q 494 676 490 748 q 501 530 498 604 q 585 538 543 534 q 668 549 626 543 q 679 550 674 549 q 690 551 684 551 q 710 543 704 551 q 715 522 715 536 q 714 505 715 513 q 710 488 713 496 q 694 469 705 475 q 670 460 684 463 q 642 458 656 458 q 616 457 627 458 q 561 455 588 456 q 505 453 533 454 q 507 410 506 439 q 510 346 509 382 q 514 273 512 311 q 519 201 517 235 q 525 142 522 168 q 532 109 528 117 q 549 90 540 94 q 574 85 559 85 q 627 95 600 85 q 682 120 655 105 q 732 154 708 136 q 774 190 756 172 q 789 202 781 196 q 806 209 796 209 q 826 203 817 209 q 843 188 836 197 q 855 168 850 178 q 859 148 859 157 m 387 491 q 386 545 387 509 q 381 625 385 581 q 370 715 377 669 q 351 799 363 761 q 320 860 338 836 q 277 884 302 884 q 259 875 267 884 q 243 850 251 865 q 230 818 236 836 q 218 784 224 800 q 206 755 212 768 q 195 736 201 742 q 188 734 193 734 q 180 734 184 734 q 158 738 168 734 q 142 646 146 692 q 138 553 138 600 q 139 511 138 539 q 143 446 140 482 q 151 367 146 409 q 162 283 155 325 q 178 203 169 241 q 199 135 187 165 q 227 88 212 106 q 260 71 241 71 q 278 76 270 71 q 294 88 286 82 q 329 136 314 106 q 354 202 344 166 q 371 278 364 238 q 381 356 378 317 q 386 430 385 395 q 387 491 387 465 z "},"œ":{"ha":536,"x_min":18,"x_max":548,"o":"m 548 124 q 548 120 548 122 q 546 115 547 118 l 547 115 q 522 69 539 92 q 483 28 505 46 q 434 -1 460 10 q 382 -12 408 -12 q 320 5 346 -12 q 278 50 295 22 q 256 19 269 34 q 230 -7 244 5 q 198 -26 215 -19 q 161 -33 180 -33 q 110 -19 132 -33 q 72 17 87 -5 q 45 69 56 40 q 29 128 35 98 q 21 186 23 158 q 18 237 18 215 q 20 290 18 261 q 27 350 22 319 q 41 410 33 380 q 63 466 50 440 q 96 513 77 492 q 140 546 115 534 l 140 545 q 182 557 161 557 q 211 532 212 557 q 256 511 237 527 q 289 471 275 496 q 323 504 302 491 q 370 517 345 517 q 409 509 392 517 q 439 485 427 500 q 457 452 451 471 q 464 412 464 433 q 452 355 464 386 q 420 295 439 323 q 376 242 400 266 q 328 207 352 218 q 334 171 330 194 q 346 124 338 147 q 362 84 353 101 q 385 67 372 67 q 404 75 393 67 q 423 94 414 83 q 439 117 432 105 q 450 136 446 128 q 452 140 451 138 l 453 140 q 462 157 458 149 q 475 170 467 164 l 474 170 q 480 173 477 172 q 486 173 483 173 q 504 168 493 173 q 525 156 515 163 q 541 141 534 149 q 548 124 548 132 m 175 448 q 153 456 163 448 q 132 411 140 437 q 118 359 123 386 q 111 305 113 332 q 109 254 109 278 q 111 204 109 235 q 118 142 113 173 q 135 83 124 111 q 162 43 145 56 q 197 82 183 56 q 219 141 211 109 q 230 205 227 173 q 233 261 233 238 q 231 305 233 278 q 224 360 229 332 q 211 413 220 389 q 190 450 203 437 q 175 448 182 448 m 374 410 q 373 424 374 416 q 370 437 372 431 q 353 410 360 426 q 342 376 347 394 q 334 341 337 359 q 329 309 331 323 q 360 356 347 330 q 374 410 374 383 z "},"–":{"ha":556,"x_min":7,"x_max":549,"o":"m 549 525 q 545 507 549 515 q 537 488 541 496 q 528 477 534 481 q 515 471 523 473 q 494 469 507 469 l 50 469 q 38 470 45 469 q 24 472 31 470 q 12 477 17 473 q 7 488 7 481 q 18 517 7 505 q 46 533 30 530 q 73 535 60 535 q 100 537 87 536 q 145 538 113 538 q 219 540 178 539 q 308 542 261 541 q 396 543 355 543 q 470 544 438 543 q 515 544 503 544 q 527 544 521 544 q 538 542 533 543 q 546 536 543 540 q 549 525 549 532 z "},"—":{"ha":1099,"x_min":7,"x_max":1092,"o":"m 1092 525 q 1088 507 1092 515 q 1080 488 1084 496 q 1071 477 1076 481 q 1057 471 1065 473 q 1036 469 1049 469 l 50 469 q 38 470 45 469 q 24 472 31 470 q 12 477 17 473 q 7 488 7 481 q 18 517 7 505 q 46 533 30 530 q 73 535 60 535 q 100 537 87 536 q 138 538 108 538 q 215 539 169 538 q 320 540 261 539 q 445 541 379 541 q 579 542 511 541 q 713 542 648 542 q 838 543 779 543 q 943 544 897 543 q 1020 544 989 544 q 1058 544 1050 544 q 1069 544 1063 544 q 1081 542 1076 543 q 1089 536 1086 540 q 1092 525 1092 532 z "},"“":{"ha":269,"x_min":1,"x_max":280,"o":"m 280 878 q 276 865 280 872 q 267 851 272 859 q 257 838 262 844 q 249 826 252 831 q 235 797 239 810 q 228 770 230 783 q 224 742 225 757 q 220 711 223 728 q 213 695 219 699 q 196 692 206 692 q 152 703 168 692 q 136 745 136 714 q 150 826 136 787 q 188 899 163 865 q 195 909 191 904 q 203 920 199 915 q 214 928 208 925 q 224 932 219 932 q 242 926 232 932 q 260 912 252 920 q 274 895 269 904 q 280 878 280 885 m 144 878 q 140 865 144 872 q 131 851 136 859 q 121 838 126 844 q 113 826 116 831 q 99 797 104 810 q 92 770 94 783 q 89 742 90 757 q 85 711 87 728 q 77 695 83 699 q 60 692 71 692 q 16 703 32 692 q 1 745 1 714 q 14 826 1 787 q 52 899 28 865 q 59 909 55 904 q 68 920 63 915 q 78 928 73 925 q 89 932 83 932 q 106 926 96 932 q 124 912 116 920 q 139 895 133 904 q 144 878 144 885 z "},"”":{"ha":267,"x_min":-10,"x_max":269,"o":"m 134 879 q 120 798 134 837 q 82 724 106 759 q 75 714 79 720 q 66 704 71 709 q 56 695 62 699 q 45 692 51 692 q 28 697 38 692 q 10 711 18 703 q -4 729 1 720 q -10 746 -10 739 q -6 759 -10 751 q 3 773 -2 766 q 14 787 8 780 q 22 799 19 793 q 36 828 31 814 q 43 855 41 842 q 46 882 45 868 q 50 913 47 896 q 57 928 51 925 q 75 932 64 932 q 118 921 103 932 q 134 879 134 911 m 269 879 q 256 798 269 837 q 218 724 242 759 q 211 714 214 720 q 202 704 207 709 q 192 695 197 699 q 181 692 186 692 q 164 697 174 692 q 145 711 154 703 q 131 729 137 720 q 125 746 125 739 q 130 759 125 751 q 139 773 134 766 q 149 787 144 780 q 158 799 155 793 q 172 828 167 814 q 178 855 176 842 q 181 882 180 868 q 185 913 182 896 q 193 928 186 925 q 211 932 199 932 q 254 921 239 932 q 269 879 269 911 z "},"‘":{"ha":133,"x_min":1,"x_max":144,"o":"m 144 878 q 140 865 144 872 q 131 851 136 859 q 121 838 126 844 q 113 826 116 831 q 99 797 104 810 q 92 770 94 783 q 89 742 90 757 q 85 711 87 728 q 77 695 83 699 q 60 692 71 692 q 16 703 32 692 q 1 745 1 714 q 14 826 1 787 q 52 899 28 865 q 59 909 55 904 q 68 920 63 915 q 78 928 73 925 q 89 932 83 932 q 106 926 96 932 q 124 912 116 920 q 139 895 133 904 q 144 878 144 885 z "},"’":{"ha":132,"x_min":-10,"x_max":134,"o":"m 134 879 q 120 798 134 837 q 82 724 106 759 q 75 714 79 720 q 66 704 71 709 q 56 695 62 699 q 45 692 51 692 q 28 697 38 692 q 10 711 18 703 q -4 729 1 720 q -10 746 -10 739 q -6 759 -10 751 q 3 773 -2 766 q 14 787 8 780 q 22 799 19 793 q 36 828 31 814 q 43 855 41 842 q 46 882 45 868 q 50 913 47 896 q 57 928 51 925 q 75 932 64 932 q 118 921 103 932 q 134 879 134 911 z "},"÷":{"ha":374,"x_min":20,"x_max":356,"o":"m 219 617 q 219 605 219 614 q 218 585 218 595 q 217 566 218 574 q 216 556 217 557 q 205 549 212 550 q 191 548 198 548 q 165 550 173 548 q 153 556 157 551 q 148 571 149 562 q 144 594 147 580 q 140 609 142 602 q 138 624 138 616 q 148 636 138 634 q 165 639 157 639 l 177 639 q 189 638 182 639 q 203 636 197 638 q 214 630 210 634 q 219 617 219 625 m 356 498 q 351 477 356 488 q 341 458 347 466 q 317 444 331 445 q 288 442 302 442 q 166 440 227 441 q 44 439 106 439 q 28 443 36 439 q 20 457 20 447 q 33 487 20 477 q 63 501 45 497 q 101 506 81 505 q 134 507 120 506 l 326 518 l 330 518 q 348 514 340 519 q 356 498 356 509 m 219 373 q 219 361 219 370 q 218 341 218 351 q 217 321 218 330 q 216 312 217 313 q 205 305 212 306 q 191 304 198 304 q 165 306 173 304 q 153 312 157 307 q 148 327 149 317 q 144 350 147 336 q 140 365 142 358 q 138 380 138 372 q 148 392 138 390 q 165 395 157 395 l 177 395 q 189 394 182 395 q 203 392 197 394 q 214 386 210 390 q 219 373 219 381 z "},"⁄":{"ha":279,"x_min":-20,"x_max":298,"o":"m 298 785 q 291 755 298 770 q 279 726 285 740 q 174 441 224 583 q 75 156 123 299 q 70 137 73 150 q 62 111 66 124 q 54 85 58 97 q 47 71 50 74 q 33 64 42 64 q 17 67 26 64 q 0 75 8 70 q -14 87 -8 80 q -20 102 -20 94 q -12 132 -20 108 q 9 194 -4 157 q 39 277 22 231 q 75 372 56 323 q 111 469 93 421 q 145 558 130 517 q 172 630 161 599 q 189 674 184 661 l 224 765 q 233 788 229 777 q 242 810 237 800 q 250 820 245 816 q 261 825 254 825 q 287 812 277 825 q 298 785 298 800 z "},"€":{"ha":441,"x_min":10,"x_max":412,"o":"m 252 494 q 244 472 252 480 q 226 460 237 464 q 203 455 215 456 q 181 453 191 454 q 185 422 182 441 q 193 379 188 402 q 204 332 197 356 q 220 288 210 308 q 241 256 229 269 q 269 244 254 244 q 294 255 283 244 q 313 281 305 266 q 327 313 321 296 q 334 340 332 329 q 336 359 336 349 q 345 376 337 370 q 351 378 347 378 q 357 378 354 378 q 375 376 366 378 q 393 369 385 374 q 406 356 401 363 q 412 339 412 349 q 407 312 412 325 q 397 286 402 298 q 376 246 387 264 q 349 214 364 228 q 314 192 334 200 q 269 184 294 184 q 213 197 237 184 q 173 231 190 210 q 146 279 157 252 q 128 335 135 306 q 117 392 121 363 q 111 445 113 421 q 71 441 91 443 q 32 439 52 439 q 16 443 22 439 q 10 457 10 447 q 19 489 10 479 q 43 502 28 499 q 74 505 57 505 q 105 505 90 504 l 105 510 q 79 507 92 509 q 55 506 67 506 q 33 525 33 506 q 39 552 33 543 q 55 566 45 562 q 78 571 65 570 q 104 572 90 572 q 113 652 105 610 q 140 731 121 694 q 189 791 158 767 q 267 815 220 815 q 336 794 307 815 q 380 738 365 774 q 387 720 384 728 q 390 701 390 711 q 371 682 390 682 q 345 688 355 682 q 329 703 336 694 q 318 722 323 712 q 306 742 313 732 q 290 756 300 751 q 265 762 281 762 q 233 752 247 762 q 210 726 220 742 q 194 689 200 709 q 184 649 188 669 q 178 609 180 628 q 176 578 176 591 q 212 580 194 579 q 250 581 231 581 q 266 578 258 581 q 273 566 273 576 q 262 541 273 549 q 236 528 251 532 q 203 523 220 524 q 176 521 186 522 l 177 507 q 200 509 189 509 q 224 509 212 509 q 242 507 233 509 q 252 494 252 505 z "},"‹":{"ha":209,"x_min":-3,"x_max":205,"o":"m 205 69 q 198 57 205 62 q 179 48 190 52 q 158 44 169 45 q 143 42 148 42 q 131 43 137 42 q 120 47 125 44 q 100 67 113 51 q 74 102 87 83 q 47 139 60 121 q 31 165 35 157 q 8 201 19 182 q -3 240 -3 220 q 0 258 -3 249 q 10 275 4 267 q 22 291 16 283 q 33 307 28 299 l 92 395 q 100 409 95 400 q 111 425 104 417 q 123 438 117 433 q 138 444 130 444 q 151 439 144 444 q 164 429 158 435 q 173 415 170 422 q 177 400 177 407 q 171 383 177 395 q 156 355 165 371 q 136 321 147 339 q 115 286 125 302 q 97 257 105 270 q 85 237 88 243 q 125 174 100 205 q 172 115 149 143 q 188 97 180 106 q 203 79 195 89 q 205 69 205 73 z "},"›":{"ha":209,"x_min":3,"x_max":212,"o":"m 212 245 q 209 227 212 236 q 199 210 205 218 q 188 194 194 202 q 177 179 182 186 l 117 90 q 109 76 114 84 q 99 61 104 68 q 86 47 93 53 q 73 42 79 42 q 58 46 65 42 q 45 56 51 50 q 36 70 39 62 q 32 84 32 77 q 38 101 32 89 q 53 130 43 114 q 73 165 62 146 q 94 199 83 183 q 112 229 104 216 q 124 248 121 242 q 85 311 110 281 q 37 369 61 341 q 22 388 30 379 q 7 407 14 397 q 3 416 3 411 q 11 429 3 423 q 30 437 19 434 q 51 442 40 440 q 67 444 62 444 q 79 442 73 444 q 90 437 84 440 q 110 418 97 433 q 136 383 122 402 q 162 346 150 364 q 180 320 174 328 q 201 285 190 304 q 212 245 212 266 z "},"‡":{"ha":473,"x_min":19,"x_max":464,"o":"m 464 247 q 459 225 464 237 q 448 205 454 213 q 416 183 435 186 q 377 180 397 180 q 316 179 347 180 q 255 175 286 177 q 259 83 257 129 q 266 -7 262 38 q 270 -45 267 -26 q 273 -83 273 -63 q 265 -106 273 -100 q 241 -111 257 -111 q 224 -110 235 -111 q 204 -105 214 -108 q 185 -98 194 -102 q 171 -90 176 -94 q 161 -71 163 -80 q 159 -50 160 -62 q 153 58 155 4 q 149 164 151 111 q 95 156 123 161 q 41 152 67 152 q 24 158 29 152 q 19 175 19 165 q 33 210 19 197 q 68 230 47 223 q 110 239 88 237 q 148 244 132 242 q 148 508 146 376 q 149 772 149 639 q 95 765 123 768 q 41 761 67 761 q 19 784 19 761 q 33 819 19 807 q 68 838 47 831 q 111 846 88 844 q 149 850 133 848 l 149 1001 q 149 1014 149 1005 q 150 1033 149 1023 q 150 1051 150 1042 q 152 1063 151 1060 q 159 1077 155 1074 q 174 1080 163 1080 q 224 1062 206 1080 q 243 1013 241 1045 q 247 938 246 975 q 248 863 247 901 q 318 868 283 866 q 388 869 353 869 q 401 869 394 869 q 415 866 409 868 q 426 859 421 864 q 430 846 430 854 q 428 833 430 839 q 422 821 425 827 q 410 801 416 809 q 398 789 405 793 q 381 783 391 785 q 359 781 372 781 q 304 781 332 781 q 250 779 277 780 q 251 518 251 648 q 254 258 250 389 q 337 267 296 263 q 422 270 379 270 q 435 269 427 270 q 449 267 442 269 q 459 260 455 264 q 464 247 464 255 z "},"·":{"ha":157,"x_min":28,"x_max":124,"o":"m 28 480 q 33 491 28 487 q 44 496 37 494 q 59 498 52 498 q 71 498 66 498 q 87 497 78 498 q 104 495 96 497 q 118 487 113 492 q 124 473 124 482 q 124 459 124 470 q 123 435 123 448 q 122 411 123 422 q 121 400 122 401 q 107 392 116 393 q 92 391 99 391 q 60 393 71 391 q 45 401 50 395 q 40 418 41 407 q 36 446 39 429 q 31 463 34 454 q 28 480 28 471 z "},"‚":{"ha":132,"x_min":-28,"x_max":116,"o":"m 116 65 q 102 -16 116 23 q 64 -90 89 -55 q 57 -99 61 -94 q 49 -110 54 -105 q 39 -119 44 -115 q 28 -122 33 -122 q 11 -116 20 -122 q -8 -102 1 -111 q -22 -85 -16 -94 q -28 -68 -28 -75 q -24 -55 -28 -62 q -15 -41 -20 -48 q -4 -27 -9 -34 q 5 -15 1 -20 q 18 14 14 1 q 25 41 23 28 q 28 68 27 54 q 32 99 29 82 q 40 115 33 111 q 58 118 46 118 q 101 107 85 118 q 116 65 116 97 z "},"„":{"ha":267,"x_min":-28,"x_max":252,"o":"m 116 65 q 102 -16 116 23 q 64 -90 89 -55 q 57 -99 61 -94 q 49 -110 54 -105 q 39 -119 44 -115 q 28 -122 33 -122 q 11 -116 20 -122 q -8 -102 1 -111 q -22 -85 -16 -94 q -28 -68 -28 -75 q -24 -55 -28 -62 q -15 -41 -20 -48 q -4 -27 -9 -34 q 5 -15 1 -20 q 18 14 14 1 q 25 41 23 28 q 28 68 27 54 q 32 99 29 82 q 40 115 33 111 q 58 118 46 118 q 101 107 85 118 q 116 65 116 97 m 252 65 q 238 -16 252 23 q 200 -90 224 -55 q 193 -99 197 -94 q 184 -110 189 -105 q 174 -119 180 -115 q 163 -122 169 -122 q 146 -116 156 -122 q 128 -102 136 -111 q 114 -85 119 -94 q 108 -68 108 -75 q 112 -55 108 -62 q 121 -41 116 -48 q 132 -27 126 -34 q 140 -15 137 -20 q 154 14 149 1 q 161 41 159 28 q 164 68 163 54 q 168 99 165 82 q 175 115 169 111 q 193 118 182 118 q 236 107 221 118 q 252 65 252 97 z "},"‰":{"ha":939,"x_min":19,"x_max":924,"o":"m 259 627 q 258 582 259 607 q 252 530 256 557 q 240 478 248 504 q 219 433 233 453 q 187 400 206 412 q 141 388 168 388 q 93 401 113 388 q 61 434 74 414 q 42 479 49 454 q 31 528 35 504 q 22 592 25 559 q 19 658 19 625 q 22 723 19 690 q 35 787 25 755 q 32 794 33 790 q 30 802 30 798 q 30 806 30 804 q 31 811 30 808 q 48 843 38 827 q 72 871 58 859 q 101 891 85 884 q 137 899 117 899 q 185 885 165 899 q 218 846 205 870 q 240 793 232 823 q 252 733 248 763 q 258 674 256 703 q 259 627 259 646 m 183 604 q 182 637 183 617 q 180 680 182 657 q 174 725 178 702 q 166 770 171 749 q 155 810 161 792 q 138 838 148 827 q 113 795 123 815 q 99 756 104 776 q 92 714 94 736 q 91 665 91 692 q 92 636 91 656 q 95 592 93 616 q 101 541 97 567 q 110 492 104 514 q 122 456 115 471 q 140 442 130 442 q 146 446 143 442 q 153 455 150 450 q 159 466 156 460 q 163 475 161 471 q 179 538 174 505 q 183 604 183 571 m 479 785 q 472 755 479 770 q 460 726 466 740 q 355 441 406 583 q 256 156 304 299 q 251 137 254 150 q 243 111 247 124 q 235 85 239 97 q 228 71 231 74 q 214 64 223 64 q 198 67 208 64 q 181 75 189 70 q 167 87 173 80 q 161 102 161 94 q 169 132 161 108 q 190 194 177 157 q 220 277 203 231 q 256 372 237 323 q 292 469 274 421 q 326 558 311 517 q 353 630 342 599 q 370 674 365 661 l 406 765 q 414 788 410 777 q 423 810 418 800 q 431 820 427 816 q 442 825 435 825 q 468 812 458 825 q 479 785 479 800 m 639 274 q 637 229 639 254 q 632 178 636 204 q 620 126 628 151 q 599 80 612 100 q 567 47 586 60 q 521 35 547 35 q 473 48 492 35 q 441 81 454 61 q 421 126 429 102 q 411 175 414 151 q 402 240 405 207 q 399 305 399 273 q 402 370 399 338 q 415 434 405 402 q 411 441 413 437 q 410 449 410 445 q 410 453 410 451 q 411 458 410 455 q 428 491 418 475 q 451 519 438 507 q 481 539 465 531 q 517 547 497 547 q 565 532 545 547 q 598 494 585 517 q 620 440 612 470 q 632 380 628 410 q 637 322 636 350 q 639 274 639 294 m 563 251 q 562 284 563 264 q 559 327 562 304 q 554 373 557 349 q 546 418 551 396 q 534 457 541 439 q 518 486 527 475 q 493 443 503 463 q 478 403 484 423 q 472 361 473 383 q 471 312 471 339 q 472 283 471 303 q 475 239 473 264 q 480 188 477 214 q 490 140 484 161 q 502 104 495 118 q 519 90 509 90 q 526 94 523 90 q 533 103 530 98 q 538 113 536 108 q 543 122 541 119 q 558 185 554 153 q 563 251 563 218 m 924 274 q 922 229 924 254 q 917 178 921 204 q 905 126 913 151 q 884 80 897 100 q 851 47 871 60 q 806 35 832 35 q 758 48 777 35 q 726 81 739 61 q 706 126 713 102 q 696 175 699 151 q 687 240 690 207 q 684 305 684 273 q 687 370 684 338 q 700 434 690 402 q 696 441 698 437 q 694 449 694 445 q 694 453 694 451 q 696 458 694 455 q 713 491 703 475 q 736 519 723 507 q 766 539 749 531 q 802 547 782 547 q 849 532 829 547 q 883 494 869 517 q 905 440 897 470 q 917 380 913 410 q 922 322 921 350 q 924 274 924 294 m 848 251 q 847 284 848 264 q 844 327 846 304 q 839 373 842 349 q 831 418 836 396 q 819 457 826 439 q 803 486 812 475 q 778 443 787 463 q 763 403 768 423 q 757 361 758 383 q 755 312 755 339 q 756 283 755 303 q 760 239 758 264 q 765 188 762 214 q 774 140 769 161 q 787 104 780 118 q 804 90 794 90 q 811 94 808 90 q 818 103 814 98 q 823 113 821 108 q 827 122 826 119 q 843 185 839 153 q 848 251 848 218 z "},"ˆ":{"ha":168,"x_min":-20,"x_max":189,"o":"m 189 711 q 184 702 189 705 q 175 697 180 699 q 163 695 170 695 q 153 694 157 694 q 140 695 147 694 q 127 699 133 695 q 114 710 118 703 q 107 724 111 717 q 91 766 99 746 q 73 807 83 787 q 54 760 64 783 q 35 713 45 737 q 31 703 33 707 q 23 694 28 699 q 16 693 22 693 q 4 696 11 693 q -7 704 -2 699 q -17 715 -13 709 q -20 727 -20 721 q -14 751 -20 732 q 1 794 -7 770 q 17 838 9 817 q 28 867 25 859 q 43 888 35 880 q 68 895 52 895 q 102 880 87 895 q 122 852 114 868 q 138 821 130 836 q 150 799 141 815 q 166 764 158 782 q 182 730 175 745 q 189 711 189 714 z "},"˜":{"ha":227,"x_min":-20,"x_max":247,"o":"m 247 784 q 227 730 247 750 q 168 709 206 709 q 123 718 139 709 q 98 740 106 726 q 87 768 90 753 q 82 796 84 783 q 76 818 79 809 q 62 826 72 826 q 42 808 42 826 q 47 781 42 795 q 59 753 53 766 q 71 731 65 741 q 76 718 76 721 q 66 707 76 709 q 50 704 56 704 q 22 711 33 704 q 4 731 12 718 q -13 767 -5 749 q -20 806 -20 786 q 4 857 -20 840 q 64 873 28 873 q 112 861 90 873 q 141 825 133 848 q 144 809 142 820 q 148 787 145 798 q 155 767 151 776 q 167 758 159 758 q 172 761 170 758 q 175 768 174 764 q 176 775 176 772 q 176 780 176 779 q 174 809 176 794 q 165 837 171 823 q 160 848 163 843 q 157 859 157 853 q 167 870 157 867 q 184 873 177 873 q 216 865 203 873 q 235 844 228 857 q 244 815 242 831 q 247 784 247 800 z "},"¯":{"ha":231,"x_min":-20,"x_max":251,"o":"m 251 818 q 239 777 251 792 q 201 762 227 762 q 114 763 157 762 q 27 764 71 764 q 14 764 22 764 q -2 765 5 764 q -15 770 -9 766 q -20 781 -20 774 q -13 807 -20 793 q 5 825 -6 821 q 24 828 9 826 q 62 832 40 830 q 109 835 83 833 q 156 837 134 836 q 197 839 179 838 q 221 840 214 840 q 242 836 233 840 q 251 818 251 832 z "},"˘":{"ha":146,"x_min":-20,"x_max":167,"o":"m 167 803 q 161 760 167 780 q 143 726 155 741 q 114 704 132 712 q 72 696 96 696 q 25 707 43 696 q -3 737 7 719 q -17 779 -13 755 q -20 825 -20 802 q -20 836 -20 829 q -18 847 -20 842 q -12 857 -16 853 q -1 861 -8 861 q 14 857 5 861 q 34 840 28 851 q 41 814 39 828 q 44 787 43 801 q 52 761 45 772 q 71 747 58 747 q 85 752 79 747 q 94 765 91 758 q 98 780 97 772 q 99 795 99 788 q 96 826 99 811 q 90 856 94 842 q 88 860 88 858 q 88 863 88 861 q 98 876 88 873 q 115 879 108 879 q 148 873 137 879 q 163 845 159 867 q 167 803 167 825 z "},"˙":{"ha":56,"x_min":-20,"x_max":76,"o":"m -20 887 q -16 898 -20 894 q -4 903 -11 901 q 11 905 3 905 q 23 905 18 905 q 39 904 30 905 q 56 902 48 904 q 70 894 64 899 q 76 880 76 889 q 76 866 76 877 q 75 842 75 854 q 74 818 75 829 q 73 807 74 808 q 59 799 68 800 q 43 798 51 798 q 12 800 22 798 q -3 808 2 802 q -8 825 -7 814 q -12 853 -9 836 q -17 869 -14 861 q -20 887 -20 878 z "},"˚":{"ha":152,"x_min":-20,"x_max":172,"o":"m 109 842 q 96 854 101 850 q 79 857 90 857 q 57 851 68 857 q 45 833 45 845 q 55 815 45 821 q 75 810 64 810 q 93 813 87 810 q 100 822 98 817 q 103 833 102 827 q 109 842 104 839 m 172 826 q 163 795 172 808 q 140 773 154 783 q 109 760 125 764 q 77 755 92 755 q 44 760 61 755 q 12 774 26 765 q -11 798 -2 784 q -20 831 -20 812 q -12 864 -20 850 q 12 887 -3 878 q 43 901 26 897 q 76 906 60 906 q 112 901 94 906 q 142 886 129 896 q 164 861 156 876 q 172 826 172 846 z "},"¸":{"ha":178,"x_min":-20,"x_max":198,"o":"m 198 -107 q 189 -141 198 -126 q 164 -168 179 -157 q 132 -184 149 -178 q 98 -190 114 -190 q 57 -184 77 -190 q 19 -168 37 -178 q 8 -163 15 -167 q -5 -156 1 -160 q -16 -146 -11 -151 q -20 -137 -20 -142 q -15 -127 -20 -132 q -1 -120 -9 -123 q 14 -115 6 -117 q 26 -114 22 -114 q 43 -117 35 -114 q 59 -123 51 -119 q 75 -129 67 -126 q 92 -132 83 -132 q 113 -126 102 -132 q 123 -109 123 -120 q 118 -100 123 -102 q 106 -98 112 -98 q 92 -99 98 -98 q 77 -100 85 -100 q 42 -88 57 -100 q 27 -54 27 -76 q 30 -32 27 -48 q 38 1 33 -16 q 47 34 42 19 q 56 53 52 49 q 64 60 60 58 q 73 61 68 61 q 89 58 80 61 q 106 48 98 54 q 119 35 114 43 q 125 20 125 28 q 124 7 125 15 q 121 -8 123 0 q 117 -23 119 -16 q 114 -34 115 -31 q 144 -42 129 -36 q 171 -57 159 -47 q 191 -78 183 -66 q 198 -107 198 -91 z "},"˝":{"ha":328,"x_min":-20,"x_max":349,"o":"m -20 791 q -15 806 -20 798 q -1 821 -9 814 q 15 835 7 829 q 28 846 23 842 l 88 905 q 105 919 96 911 q 125 926 115 926 q 140 921 132 926 q 156 909 149 916 q 168 893 163 902 q 172 878 172 884 q 172 875 172 876 q 171 872 172 873 q 163 858 169 864 q 149 846 157 852 q 118 821 128 829 q 100 807 108 813 q 81 792 92 800 q 49 769 70 785 q 34 760 41 764 q 19 757 27 757 q 6 760 13 757 q -7 767 -1 762 q -17 778 -13 772 q -20 791 -20 784 m 156 791 q 162 806 156 798 q 175 821 168 814 q 191 835 183 829 q 205 846 199 842 l 264 905 q 282 919 273 911 q 301 926 291 926 q 316 921 308 926 q 332 909 325 916 q 344 893 339 902 q 349 878 349 884 q 349 875 349 876 q 347 872 349 873 q 339 858 345 864 q 326 846 333 852 q 294 821 304 829 q 276 807 284 813 q 257 792 268 800 q 225 769 246 785 q 211 760 218 764 q 195 757 203 757 q 182 760 189 757 q 170 767 176 762 q 160 778 163 772 q 156 791 156 784 z "},"˛":{"ha":145,"x_min":-20,"x_max":165,"o":"m 165 -119 q 156 -137 165 -130 q 133 -149 146 -144 q 106 -155 119 -153 q 84 -157 92 -157 q 47 -151 66 -157 q 14 -133 28 -144 q -11 -105 -1 -121 q -20 -69 -20 -89 q -12 -28 -20 -50 q 10 15 -3 -6 q 39 52 23 35 q 68 79 54 69 q 83 88 75 84 q 99 92 91 92 q 111 88 106 92 q 119 77 116 83 q 124 64 123 71 q 126 52 126 57 q 115 25 126 40 q 89 -6 103 11 q 63 -40 75 -22 q 52 -73 52 -57 q 64 -96 52 -87 q 88 -104 76 -104 q 105 -102 97 -104 q 119 -97 113 -100 q 132 -91 126 -94 q 142 -88 138 -88 q 160 -99 155 -88 q 165 -119 165 -109 z "},"ˇ":{"ha":174,"x_min":-20,"x_max":194,"o":"m -20 883 q -16 892 -20 888 q -6 897 -12 895 q 6 899 0 899 q 16 899 12 899 q 30 899 22 899 q 43 895 37 899 q 55 884 52 891 q 62 868 58 876 q 80 825 71 846 q 99 784 89 804 q 118 832 109 808 q 137 880 127 856 q 141 891 139 886 q 149 899 144 895 q 156 902 151 902 q 169 899 162 902 q 181 890 176 895 q 190 879 186 885 q 194 867 194 873 q 187 841 194 861 q 172 798 180 821 q 154 752 163 774 q 142 723 146 730 q 129 701 137 709 q 104 693 120 693 q 85 697 94 693 q 69 708 77 702 q 48 738 57 722 q 31 769 39 753 q 20 792 28 775 q 2 828 12 809 q -14 863 -7 847 q -20 883 -20 879 z "},"ﬁ":{"ha":448,"x_min":-1,"x_max":423,"o":"m 423 30 q 416 8 423 14 q 393 1 408 1 q 375 3 385 1 q 356 9 366 5 q 338 18 346 13 q 326 31 330 24 q 321 54 323 35 q 318 102 319 73 q 316 167 317 131 q 315 240 315 203 q 315 313 315 277 q 315 377 315 349 l 315 429 q 279 426 298 427 q 240 424 260 425 q 203 422 221 423 q 170 420 184 420 l 127 417 q 150 220 140 300 q 166 88 160 140 q 177 6 173 35 q 182 -38 180 -24 q 184 -57 184 -53 q 184 -64 184 -61 q 176 -84 184 -78 q 154 -90 167 -90 q 134 -88 145 -90 q 113 -83 123 -86 q 95 -73 103 -79 q 83 -58 87 -67 q 72 54 79 -6 q 59 174 66 113 q 46 294 52 235 q 35 406 39 354 q 30 406 33 406 q 24 406 27 406 q 6 411 14 406 q -1 430 -1 416 q 7 458 -1 446 q 30 475 14 471 q 25 558 28 513 q 23 651 22 604 q 31 742 24 698 q 57 821 39 787 q 107 876 75 855 q 189 897 139 897 q 218 894 199 897 q 255 883 237 890 q 288 866 274 876 q 302 843 302 856 q 296 830 302 836 q 281 822 290 825 q 263 818 272 819 q 250 817 254 817 q 220 821 234 817 q 191 827 205 826 q 154 803 169 821 q 129 759 138 785 q 116 701 120 732 q 112 639 112 670 l 121 493 q 152 497 132 495 q 197 502 172 500 q 248 507 222 505 q 299 511 275 509 q 341 514 323 513 q 368 515 359 515 q 390 506 383 515 q 396 484 396 497 q 402 298 396 393 q 415 112 408 204 q 416 98 416 104 q 418 84 417 91 q 421 57 420 71 q 423 30 423 44 m 397 570 q 392 554 397 559 q 374 549 387 549 q 355 550 368 549 q 329 555 342 552 q 306 565 315 559 q 296 580 296 571 q 298 595 296 583 q 303 622 300 608 q 309 648 306 636 q 313 661 311 659 l 313 660 q 320 667 316 665 q 330 668 325 668 q 346 666 336 668 q 365 662 355 665 q 383 654 375 659 q 393 644 391 649 q 396 629 395 638 q 395 612 396 620 q 395 606 395 610 q 395 600 395 602 q 395 593 395 597 q 396 587 395 590 q 397 579 397 583 q 397 570 397 575 z "},"ﬂ":{"ha":457,"x_min":-1,"x_max":472,"o":"m 472 -20 q 467 -35 472 -29 q 455 -45 463 -41 q 440 -51 448 -49 q 425 -52 431 -52 q 383 -39 401 -52 q 353 -4 366 -25 q 332 45 340 18 q 318 100 323 73 q 310 153 313 127 q 306 197 307 178 q 297 325 300 260 q 295 454 295 390 q 298 620 295 538 q 306 786 300 702 q 290 799 300 792 q 267 812 281 806 q 234 823 252 819 q 191 827 215 827 q 153 803 168 821 q 129 759 138 785 q 115 701 119 732 q 111 639 111 670 l 120 493 q 177 507 149 498 q 234 515 205 515 q 257 506 250 515 q 263 484 263 497 q 260 458 263 470 q 245 439 256 447 q 224 432 239 435 q 192 426 209 429 q 158 421 174 423 q 130 418 141 419 l 127 418 q 150 221 140 301 q 166 88 159 140 q 176 6 172 35 q 181 -38 180 -24 q 183 -57 183 -53 q 184 -64 184 -61 q 175 -84 184 -78 q 153 -90 166 -90 q 134 -88 144 -90 q 113 -83 123 -86 q 95 -73 102 -79 q 83 -58 87 -67 q 72 63 79 0 q 57 186 64 125 q 43 304 50 248 q 35 406 37 360 q 30 406 32 406 q 24 406 27 406 q 6 411 13 406 q -1 430 -1 416 q 6 458 -1 446 q 29 475 14 471 q 25 558 28 513 q 23 651 22 604 q 32 742 24 698 q 57 821 39 787 q 106 876 75 855 q 189 897 138 897 q 257 891 227 897 q 310 872 286 884 q 314 912 312 895 q 319 937 316 929 l 319 936 q 327 950 322 945 q 342 955 331 955 q 384 939 368 955 q 401 898 401 922 q 398 804 401 850 q 394 710 396 757 q 389 616 391 663 q 387 522 387 570 q 387 456 387 497 q 390 368 388 416 q 396 269 392 320 q 405 172 399 218 q 419 89 411 126 q 440 31 428 52 q 451 23 446 28 q 461 10 457 17 q 469 -5 466 3 q 472 -20 472 -13 z "},"ÿ":{"ha":334,"x_min":-75,"x_max":304,"o":"m 297 -46 q 295 -104 297 -74 q 288 -166 293 -135 q 275 -227 283 -197 q 255 -282 267 -256 q 204 -349 235 -320 q 136 -397 173 -378 q 58 -427 100 -417 q -25 -437 17 -437 q -40 -437 -31 -437 q -56 -434 -48 -436 q -70 -426 -64 -431 q -75 -411 -75 -420 q -73 -403 -75 -407 q -73 -400 -73 -401 q -73 -399 -73 -399 q -62 -377 -68 -385 q -48 -365 -56 -369 q -30 -358 -40 -360 q -5 -355 -19 -357 q 77 -335 38 -353 l 77 -336 q 146 -282 121 -314 q 185 -211 172 -250 q 201 -128 198 -172 q 205 -41 205 -85 q 205 -26 205 -31 q 205 -17 205 -21 q 205 -9 205 -14 q 204 6 205 -4 q 155 -12 180 -12 q 104 4 125 -12 q 70 48 83 21 q 48 109 56 75 q 36 179 40 143 q 32 248 33 214 q 31 309 31 282 l 31 337 q 31 408 31 373 q 33 477 31 442 l 33 487 q 33 503 33 495 q 35 519 33 511 q 42 534 37 530 q 59 539 47 539 q 70 538 64 539 q 80 536 75 538 q 100 525 93 531 q 112 512 108 519 q 116 494 115 504 q 117 470 117 484 l 117 379 q 118 339 117 363 q 119 286 118 315 q 123 227 121 258 q 129 168 125 197 q 138 116 133 140 q 152 77 144 92 q 173 139 164 103 q 188 215 182 174 q 196 300 193 256 q 201 385 199 343 q 203 463 203 426 q 203 528 203 500 q 204 542 203 534 q 207 556 204 550 q 215 567 210 563 q 230 571 220 571 q 240 570 235 571 q 250 567 246 568 q 253 567 252 567 q 256 566 255 566 q 275 559 266 563 q 290 551 283 556 q 300 538 296 546 q 304 517 304 530 q 303 481 304 501 q 302 439 303 461 q 300 397 301 418 q 297 360 298 376 l 294 336 q 292 317 293 327 q 292 300 292 308 q 292 213 292 256 q 294 127 293 170 q 296 40 296 83 q 297 -46 297 -3 m 24 718 q 29 729 24 725 q 41 734 34 732 q 55 736 48 736 q 68 736 62 736 q 84 735 75 736 q 101 733 93 735 q 115 725 109 730 q 121 711 121 720 q 120 697 121 708 q 120 673 120 686 q 119 649 119 660 q 118 638 119 639 q 104 630 113 631 q 88 629 96 629 q 57 631 67 629 q 42 639 47 633 q 36 656 37 645 q 33 684 35 667 q 27 701 31 692 q 24 718 24 709 m 201 718 q 205 729 201 725 q 217 734 210 732 q 232 736 224 736 q 244 736 239 736 q 260 735 251 736 q 277 733 269 735 q 291 725 286 730 q 297 711 297 720 q 297 697 297 708 q 296 673 296 686 q 295 649 296 660 q 294 638 295 639 q 280 630 289 631 q 264 629 272 629 q 233 631 243 629 q 218 639 223 633 q 213 656 214 645 q 209 684 212 667 q 204 701 207 692 q 201 718 201 709 z "},"Ÿ":{"ha":397,"x_min":-10,"x_max":395,"o":"m 395 972 q 387 921 395 958 q 364 833 378 883 q 334 727 351 783 q 300 620 317 671 q 271 529 284 569 q 250 471 257 489 q 260 351 258 410 q 267 231 263 291 q 273 128 270 180 q 276 26 276 77 q 268 2 276 10 q 245 -7 260 -7 q 229 -5 239 -7 q 208 0 218 -3 q 188 7 197 3 q 176 15 179 11 q 165 33 168 24 q 163 53 163 41 q 161 262 163 158 q 159 471 159 366 l 154 476 q 145 493 150 482 q 135 517 140 505 q 125 541 130 529 q 119 559 121 552 q 77 684 96 621 q 35 808 57 746 q 24 838 31 819 q 9 877 16 857 q -4 915 1 897 q -10 943 -10 933 q -6 955 -10 950 q 4 962 -2 960 q 17 965 10 964 q 29 966 24 966 q 62 964 47 966 q 93 952 77 962 q 106 927 97 949 q 125 871 115 905 q 148 800 136 838 q 170 725 160 761 q 189 661 180 689 q 200 623 197 633 q 245 795 222 709 q 284 968 268 880 q 287 986 286 977 q 292 1004 289 996 q 301 1018 295 1013 q 318 1024 307 1024 q 340 1020 327 1024 q 366 1009 353 1016 q 387 992 378 1002 q 395 972 395 983 m 39 1153 q 43 1163 39 1160 q 55 1169 48 1167 q 70 1171 62 1171 q 82 1171 77 1171 q 98 1170 89 1171 q 115 1167 107 1170 q 129 1160 123 1165 q 135 1146 135 1155 q 135 1132 135 1143 q 134 1107 134 1120 q 133 1084 134 1095 q 132 1073 133 1074 q 118 1064 127 1065 q 102 1063 110 1063 q 71 1065 81 1063 q 56 1074 61 1067 q 51 1090 52 1080 q 47 1119 50 1101 q 42 1135 45 1127 q 39 1153 39 1143 m 215 1153 q 220 1163 215 1160 q 232 1169 224 1167 q 246 1171 239 1171 q 258 1171 253 1171 q 274 1170 265 1171 q 292 1167 283 1170 q 306 1160 300 1165 q 311 1146 311 1155 q 311 1132 311 1143 q 310 1107 311 1120 q 310 1084 310 1095 q 309 1073 309 1074 q 295 1064 303 1065 q 279 1063 286 1063 q 248 1065 258 1063 q 233 1074 237 1067 q 227 1090 228 1080 q 223 1119 226 1101 q 218 1135 221 1127 q 215 1153 215 1143 z "},"À":{"ha":503,"x_min":5,"x_max":530,"o":"m 530 373 q 520 343 530 359 q 498 320 510 328 q 486 316 494 318 q 469 312 478 314 q 451 309 460 311 q 438 307 443 307 l 454 206 q 466 112 462 159 q 483 19 469 65 q 486 12 484 15 q 487 3 487 8 q 482 -11 487 -6 q 470 -18 477 -16 q 454 -21 463 -20 q 439 -22 446 -22 l 430 -22 q 398 -18 409 -22 q 380 -7 387 -15 q 372 14 374 1 q 368 45 370 26 q 331 293 351 169 q 247 283 289 288 q 161 274 204 278 l 140 141 q 136 108 138 129 q 131 65 134 87 q 124 24 127 43 q 115 -4 120 5 q 108 -16 111 -12 q 95 -19 104 -19 q 71 -15 83 -19 q 50 -2 59 -10 q 35 16 41 5 q 30 41 30 27 q 33 68 30 54 q 38 95 36 81 q 52 184 45 140 q 65 273 58 229 q 54 275 60 273 q 42 279 48 277 q 33 286 37 282 q 28 296 28 290 q 34 308 28 302 q 46 319 39 314 q 60 328 53 324 q 73 334 68 332 q 100 523 87 429 q 123 713 113 617 q 128 766 126 739 q 133 819 130 792 q 139 871 135 845 q 149 922 142 897 q 170 962 155 947 q 212 977 184 977 q 228 975 220 977 q 241 970 235 974 q 278 922 259 961 q 316 826 297 882 q 352 705 335 770 q 384 579 370 640 q 408 469 398 518 q 423 396 418 420 q 452 400 437 398 q 480 401 466 401 q 496 401 487 401 q 512 397 505 400 q 525 388 520 394 q 530 373 530 382 m 317 378 q 279 569 300 475 q 231 758 258 664 q 204 555 218 656 q 174 353 190 454 q 246 365 210 358 q 317 378 281 371 m 194 1042 q 190 1029 194 1035 q 180 1018 186 1023 q 168 1010 174 1013 q 155 1008 161 1008 q 139 1011 146 1008 q 125 1020 131 1015 q 93 1043 103 1036 q 75 1058 83 1051 q 58 1072 67 1064 q 27 1097 48 1080 q 15 1109 21 1103 q 5 1123 9 1115 l 5 1128 q 10 1144 5 1135 q 21 1160 14 1153 q 37 1172 28 1167 q 53 1177 45 1177 q 72 1170 63 1177 q 88 1156 81 1162 l 145 1097 q 158 1086 150 1093 q 175 1072 167 1080 q 188 1057 182 1065 q 194 1042 194 1048 z "},"Ã":{"ha":503,"x_min":28,"x_max":530,"o":"m 530 373 q 520 343 530 359 q 498 320 510 328 q 486 316 494 318 q 469 312 478 314 q 451 309 460 311 q 438 307 443 307 l 454 206 q 466 112 462 159 q 483 19 469 65 q 486 12 484 15 q 487 3 487 8 q 482 -11 487 -6 q 470 -18 477 -16 q 454 -21 463 -20 q 439 -22 446 -22 l 430 -22 q 398 -18 409 -22 q 380 -7 387 -15 q 372 14 374 1 q 368 45 370 26 q 331 293 351 169 q 247 283 289 288 q 161 274 204 278 l 140 141 q 136 108 138 129 q 131 65 134 87 q 124 24 127 43 q 115 -4 120 5 q 108 -16 111 -12 q 95 -19 104 -19 q 71 -15 83 -19 q 50 -2 59 -10 q 35 16 41 5 q 30 41 30 27 q 33 68 30 54 q 38 95 36 81 q 52 184 45 140 q 65 273 58 229 q 54 275 60 273 q 42 279 48 277 q 33 286 37 282 q 28 296 28 290 q 34 308 28 302 q 46 319 39 314 q 60 328 53 324 q 73 334 68 332 q 100 523 87 429 q 123 713 113 617 q 128 766 126 739 q 133 819 130 792 q 139 871 135 845 q 149 922 142 897 q 170 962 155 947 q 212 977 184 977 q 228 975 220 977 q 241 970 235 974 q 278 922 259 961 q 316 826 297 882 q 352 705 335 770 q 384 579 370 640 q 408 469 398 518 q 423 396 418 420 q 452 400 437 398 q 480 401 466 401 q 496 401 487 401 q 512 397 505 400 q 525 388 520 394 q 530 373 530 382 m 317 378 q 279 569 300 475 q 231 758 258 664 q 204 555 218 656 q 174 353 190 454 q 246 365 210 358 q 317 378 281 371 m 331 1085 q 311 1031 331 1051 q 252 1010 290 1010 q 207 1019 223 1010 q 182 1041 191 1027 q 171 1069 174 1054 q 166 1097 168 1084 q 160 1119 163 1110 q 146 1127 156 1127 q 126 1109 126 1127 q 132 1082 126 1096 q 143 1055 137 1067 q 155 1032 149 1042 q 160 1019 160 1022 q 150 1008 160 1010 q 134 1005 140 1005 q 106 1012 117 1005 q 88 1032 96 1019 q 71 1068 79 1050 q 64 1107 64 1087 q 88 1158 64 1141 q 148 1175 112 1175 q 196 1162 174 1175 q 225 1126 217 1149 q 228 1110 227 1121 q 232 1088 229 1099 q 239 1068 235 1077 q 251 1059 243 1059 q 256 1062 254 1059 q 259 1069 258 1065 q 260 1076 260 1073 q 260 1081 260 1080 q 258 1110 260 1095 q 250 1138 255 1124 q 244 1149 248 1144 q 241 1160 241 1154 q 251 1172 241 1168 q 269 1175 261 1175 q 300 1166 288 1175 q 319 1145 312 1158 q 329 1117 326 1133 q 331 1085 331 1101 z "},"Õ":{"ha":534,"x_min":40,"x_max":493,"o":"m 493 521 q 492 455 493 492 q 487 374 491 417 q 476 287 484 332 q 458 199 469 242 q 429 119 446 157 q 389 52 412 81 q 334 7 365 24 q 262 -9 302 -9 q 190 9 222 -9 q 135 58 157 28 q 103 118 117 83 q 78 196 89 154 q 60 283 68 238 q 48 373 53 329 q 42 457 44 417 q 40 526 40 496 q 44 631 40 576 q 61 740 49 686 q 94 844 73 794 q 149 935 115 895 q 157 944 152 939 q 168 955 162 949 q 181 963 174 960 q 193 967 187 967 q 205 964 199 967 q 215 955 211 960 q 245 966 229 963 q 277 970 261 970 q 362 946 327 970 q 422 885 398 923 q 460 799 446 847 q 481 701 474 751 q 491 604 489 650 q 493 521 493 557 m 387 491 q 386 545 387 509 q 381 625 385 581 q 370 715 377 669 q 351 799 363 761 q 320 860 338 836 q 277 884 302 884 q 259 875 267 884 q 243 850 251 865 q 230 818 236 836 q 218 784 224 800 q 206 755 212 768 q 195 736 201 742 q 188 734 193 734 q 180 734 184 734 q 158 738 168 734 q 142 646 146 692 q 138 553 138 600 q 139 511 138 539 q 143 446 140 482 q 151 367 146 409 q 162 283 155 325 q 178 203 169 241 q 199 135 187 165 q 227 88 212 106 q 260 71 241 71 q 278 76 270 71 q 294 88 286 82 q 329 136 314 106 q 354 202 344 166 q 371 278 364 238 q 381 356 378 317 q 386 430 385 395 q 387 491 387 465 m 379 1080 q 359 1025 379 1046 q 300 1005 338 1005 q 255 1014 271 1005 q 230 1035 239 1022 q 219 1063 222 1048 q 214 1092 216 1078 q 208 1113 212 1105 q 195 1122 204 1122 q 174 1104 174 1122 q 180 1076 174 1090 q 191 1049 185 1062 q 203 1026 197 1036 q 208 1013 208 1017 q 198 1002 208 1005 q 182 1000 189 1000 q 155 1006 165 1000 q 136 1027 144 1013 q 119 1063 127 1044 q 112 1101 112 1082 q 136 1152 112 1135 q 196 1169 160 1169 q 244 1157 222 1169 q 273 1120 265 1144 q 276 1105 275 1116 q 280 1083 277 1094 q 287 1063 283 1072 q 299 1054 292 1054 q 304 1057 302 1054 q 308 1064 307 1060 q 309 1071 309 1067 q 309 1076 309 1074 q 306 1104 309 1090 q 298 1133 303 1119 q 293 1144 296 1139 q 290 1154 290 1149 q 299 1166 290 1163 q 317 1169 309 1169 q 348 1161 336 1169 q 367 1140 360 1153 q 377 1111 374 1127 q 379 1080 379 1095 z "},"Š":{"ha":483,"x_min":18,"x_max":462,"o":"m 462 214 q 446 119 462 164 q 399 41 429 75 q 326 -13 369 7 q 231 -33 283 -33 q 146 -18 185 -33 q 79 23 107 -3 q 34 87 50 50 q 18 172 18 125 q 19 196 18 182 q 23 223 20 210 q 34 246 27 237 q 55 255 41 255 q 79 251 66 255 q 104 239 92 246 q 123 221 115 231 q 131 198 131 210 l 131 159 q 156 82 131 112 q 230 53 182 53 q 288 68 264 53 q 328 109 313 84 q 350 163 343 133 q 357 222 357 193 q 334 333 357 279 q 275 438 311 387 q 199 538 240 489 q 122 637 157 588 q 63 734 87 686 q 40 834 40 783 q 57 906 40 876 q 101 955 73 936 q 163 984 128 975 q 235 993 198 993 q 317 980 281 993 q 378 943 353 967 q 416 883 403 918 q 429 802 429 847 q 429 785 429 795 q 425 765 428 774 q 417 748 422 755 q 402 741 412 741 q 375 747 389 741 q 356 759 363 753 q 345 772 349 765 q 339 788 341 779 q 336 810 337 797 q 327 854 332 834 q 311 887 321 873 q 282 908 300 901 q 237 916 264 916 q 199 911 217 916 q 168 898 181 907 q 147 873 155 888 q 139 836 139 858 q 153 772 139 804 q 190 705 167 739 q 241 636 212 671 q 300 562 270 600 q 360 484 331 524 q 411 400 389 444 q 448 310 434 357 q 462 214 462 264 m 109 1230 q 113 1239 109 1236 q 123 1244 117 1242 q 136 1246 130 1246 q 146 1246 142 1246 q 159 1246 152 1246 q 173 1242 167 1246 q 184 1231 181 1238 q 192 1215 188 1223 q 209 1173 200 1194 q 229 1131 218 1152 q 248 1179 238 1155 q 267 1227 257 1203 q 271 1238 269 1234 q 279 1246 273 1242 q 286 1249 280 1249 q 298 1246 292 1249 q 311 1237 305 1242 q 320 1226 316 1232 q 323 1214 323 1220 q 317 1188 323 1208 q 301 1145 310 1168 q 284 1099 292 1121 q 272 1070 275 1078 q 258 1048 267 1056 q 234 1040 250 1040 q 215 1045 224 1040 q 199 1055 206 1049 q 178 1085 186 1069 q 161 1116 169 1101 q 149 1139 157 1122 q 132 1175 141 1156 q 116 1210 123 1194 q 109 1230 109 1226 z "},"š":{"ha":290,"x_min":9,"x_max":290,"o":"m 262 497 q 257 484 262 489 q 243 474 251 478 q 226 469 235 471 q 212 468 218 468 q 197 470 204 468 q 182 473 189 471 q 168 477 174 475 q 153 479 161 479 q 133 475 143 479 q 115 466 123 472 q 101 451 106 460 q 96 431 96 442 q 103 399 96 415 q 121 367 110 383 q 147 334 132 351 q 178 300 161 317 q 217 256 197 279 q 253 210 237 234 q 279 158 269 185 q 290 101 290 131 q 281 55 290 75 q 257 20 273 35 q 221 -2 242 6 q 174 -9 199 -9 q 154 -7 168 -9 q 122 1 140 -4 q 86 12 104 6 q 52 25 67 18 q 27 40 37 33 q 17 53 17 47 q 24 70 17 61 q 42 85 32 78 q 63 97 52 92 q 82 102 75 102 q 103 97 92 102 q 126 86 115 92 q 152 74 139 79 q 180 68 165 68 q 192 76 191 68 q 194 93 194 83 q 186 138 194 117 q 165 180 178 159 q 135 219 152 200 q 101 258 118 239 q 67 296 83 277 q 37 335 50 315 q 17 376 24 355 q 9 420 9 397 q 22 473 9 450 q 55 513 35 496 q 102 539 76 530 q 155 549 128 549 q 182 545 163 549 q 218 534 200 541 q 249 518 235 528 q 262 497 262 509 m 25 789 q 29 798 25 794 q 39 803 33 801 q 52 805 45 804 q 62 805 58 805 q 75 805 68 805 q 89 801 83 804 q 100 789 97 797 q 108 774 104 782 q 125 731 116 752 q 144 690 134 710 q 163 738 154 713 q 182 786 173 762 q 187 797 184 792 q 195 805 189 801 q 201 808 196 808 q 214 804 208 808 q 227 796 221 801 q 236 785 232 791 q 239 772 239 779 q 233 747 239 767 q 217 703 226 727 q 200 658 208 680 q 188 629 191 636 q 174 607 182 614 q 150 599 165 599 q 131 603 140 599 q 115 614 122 608 q 94 643 102 627 q 77 675 85 659 q 65 698 73 681 q 48 734 57 715 q 32 769 39 753 q 25 789 25 785 z "},"Ý":{"ha":397,"x_min":-10,"x_max":395,"o":"m 395 972 q 387 921 395 958 q 364 833 378 883 q 334 727 351 783 q 300 620 317 671 q 271 529 284 569 q 250 471 257 489 q 260 351 258 410 q 267 231 263 291 q 273 128 270 180 q 276 26 276 77 q 268 2 276 10 q 245 -7 260 -7 q 229 -5 239 -7 q 208 0 218 -3 q 188 7 197 3 q 176 15 179 11 q 165 33 168 24 q 163 53 163 41 q 161 262 163 158 q 159 471 159 366 l 154 476 q 145 493 150 482 q 135 517 140 505 q 125 541 130 529 q 119 559 121 552 q 77 684 96 621 q 35 808 57 746 q 24 838 31 819 q 9 877 16 857 q -4 915 1 897 q -10 943 -10 933 q -6 955 -10 950 q 4 962 -2 960 q 17 965 10 964 q 29 966 24 966 q 62 964 47 966 q 93 952 77 962 q 106 927 97 949 q 125 871 115 905 q 148 800 136 838 q 170 725 160 761 q 189 661 180 689 q 200 623 197 633 q 245 795 222 709 q 284 968 268 880 q 287 986 286 977 q 292 1004 289 996 q 301 1018 295 1013 q 318 1024 307 1024 q 340 1020 327 1024 q 366 1009 353 1016 q 387 992 378 1002 q 395 972 395 983 m 154 1046 q 160 1061 154 1053 q 173 1076 165 1069 q 189 1090 181 1084 q 203 1101 197 1097 l 269 1162 q 287 1176 277 1168 q 306 1184 296 1184 q 321 1179 313 1184 q 337 1167 330 1174 q 349 1151 344 1160 q 353 1135 353 1142 q 353 1133 353 1134 q 352 1130 353 1131 q 344 1116 350 1122 q 330 1104 338 1109 q 298 1079 309 1087 q 277 1063 287 1070 q 256 1048 268 1056 q 223 1024 244 1040 q 209 1015 216 1019 q 193 1012 201 1012 q 180 1015 187 1012 q 168 1022 174 1017 q 158 1033 161 1027 q 154 1046 154 1039 z "},"ý":{"ha":334,"x_min":-75,"x_max":319,"o":"m 297 -46 q 295 -104 297 -74 q 288 -166 293 -135 q 275 -227 283 -197 q 255 -282 267 -256 q 204 -349 235 -320 q 136 -397 173 -378 q 58 -427 100 -417 q -25 -437 17 -437 q -40 -437 -31 -437 q -56 -434 -48 -436 q -70 -426 -64 -431 q -75 -411 -75 -420 q -73 -403 -75 -407 q -73 -400 -73 -401 q -73 -399 -73 -399 q -62 -377 -68 -385 q -48 -365 -56 -369 q -30 -358 -40 -360 q -5 -355 -19 -357 q 77 -335 38 -353 l 77 -336 q 146 -282 121 -314 q 185 -211 172 -250 q 201 -128 198 -172 q 205 -41 205 -85 q 205 -26 205 -31 q 205 -17 205 -21 q 205 -9 205 -14 q 204 6 205 -4 q 155 -12 180 -12 q 104 4 125 -12 q 70 48 83 21 q 48 109 56 75 q 36 179 40 143 q 32 248 33 214 q 31 309 31 282 l 31 337 q 31 408 31 373 q 33 477 31 442 l 33 487 q 33 503 33 495 q 35 519 33 511 q 42 534 37 530 q 59 539 47 539 q 70 538 64 539 q 80 536 75 538 q 100 525 93 531 q 112 512 108 519 q 116 494 115 504 q 117 470 117 484 l 117 379 q 118 339 117 363 q 119 286 118 315 q 123 227 121 258 q 129 168 125 197 q 138 116 133 140 q 152 77 144 92 q 173 139 164 103 q 188 215 182 174 q 196 300 193 256 q 201 385 199 343 q 203 463 203 426 q 203 528 203 500 q 204 542 203 534 q 207 556 204 550 q 215 567 210 563 q 230 571 220 571 q 240 570 235 571 q 250 567 246 568 q 253 567 252 567 q 256 566 255 566 q 275 559 266 563 q 290 551 283 556 q 300 538 296 546 q 304 517 304 530 q 303 481 304 501 q 302 439 303 461 q 300 397 301 418 q 297 360 298 376 l 294 336 q 292 317 293 327 q 292 300 292 308 q 292 213 292 256 q 294 127 293 170 q 296 40 296 83 q 297 -46 297 -3 m 119 621 q 125 635 119 627 q 139 651 131 644 q 155 665 146 659 q 168 676 163 671 l 235 737 q 252 751 243 743 q 271 759 261 759 q 287 754 278 759 q 302 742 295 749 q 314 726 309 734 q 319 710 319 717 q 319 707 319 709 q 317 705 319 706 q 309 690 315 696 q 296 679 303 684 q 263 653 275 662 q 243 638 252 645 q 221 623 233 631 q 189 599 210 614 q 174 590 181 593 q 159 587 167 587 q 146 589 153 587 q 133 597 139 592 q 123 608 127 602 q 119 621 119 614 z "},"":{"ha":424,"x_min":1,"x_max":425,"o":"m 425 76 q 415 39 425 56 q 387 15 405 22 q 360 11 380 12 q 311 7 340 9 q 250 5 283 6 q 188 4 218 5 q 135 4 158 4 q 102 4 112 4 q 90 -8 98 -3 q 73 -14 83 -14 q 52 -9 64 -14 q 29 3 40 -5 q 9 20 18 10 q 1 39 1 29 q 5 62 1 48 q 15 92 9 77 q 26 122 21 107 q 35 146 32 137 l 171 543 l 243 750 q 266 820 255 785 q 293 888 277 854 q 250 886 271 887 q 206 886 228 886 q 185 886 200 886 q 150 886 170 886 q 110 887 131 886 q 70 888 88 887 q 38 890 51 889 q 22 894 24 892 q 12 909 12 899 q 25 940 12 928 q 56 956 38 951 q 95 963 75 962 q 129 964 115 964 q 161 963 145 964 q 194 962 178 962 q 261 964 228 962 q 327 967 294 967 q 352 965 338 967 q 377 957 366 962 q 395 941 388 951 q 403 917 403 932 q 398 895 403 905 q 388 873 393 885 q 346 758 364 816 q 308 642 328 700 q 217 362 261 501 q 126 81 172 222 q 182 84 154 83 q 237 87 210 85 q 315 96 276 90 q 393 102 353 102 q 415 96 406 102 q 425 76 425 90 m 91 1199 q 95 1208 91 1204 q 105 1213 99 1211 q 117 1215 111 1215 q 127 1215 123 1215 q 141 1215 134 1215 q 155 1211 149 1215 q 166 1200 163 1207 q 174 1184 170 1192 q 191 1141 182 1162 q 210 1100 200 1120 q 229 1148 220 1124 q 248 1196 239 1172 q 253 1207 250 1202 q 260 1215 255 1211 q 267 1218 262 1218 q 280 1215 273 1218 q 292 1206 287 1211 q 301 1195 298 1201 q 305 1183 305 1189 q 298 1157 305 1177 q 283 1114 292 1137 q 266 1068 274 1090 q 254 1039 257 1046 q 240 1017 248 1025 q 216 1009 231 1009 q 197 1014 205 1009 q 180 1024 188 1018 q 159 1054 168 1038 q 142 1085 151 1069 q 131 1108 139 1091 q 114 1144 123 1125 q 98 1179 104 1163 q 91 1199 91 1195 z "},"":{"ha":311,"x_min":-7,"x_max":315,"o":"m 315 76 q 305 54 315 64 q 279 36 295 43 q 243 22 263 28 q 204 12 223 16 q 169 6 185 8 q 144 4 153 4 q 109 7 127 4 q 71 15 90 9 q 37 30 53 21 q 9 52 20 39 l 9 52 q -2 64 3 57 q -7 81 -7 72 q -2 92 -7 87 q 9 99 3 97 q 23 132 16 115 q 38 163 31 148 l 48 187 q 115 327 84 258 q 176 470 146 396 l 149 469 l 116 467 l 94 464 q 76 462 84 463 q 58 461 67 461 q 33 486 33 461 q 35 507 33 498 q 45 524 38 516 q 63 531 49 528 q 98 538 78 535 q 140 544 117 541 q 184 549 163 547 q 221 552 205 551 q 245 553 238 553 q 268 549 257 553 q 278 529 278 546 q 273 508 278 519 q 263 488 269 497 q 264 478 264 485 q 259 453 264 471 q 244 410 254 435 q 223 355 235 385 q 198 292 211 324 q 171 229 184 260 q 145 169 157 197 l 107 81 q 134 78 119 78 q 192 90 164 78 q 239 113 219 101 q 259 123 250 119 q 273 127 268 127 q 290 122 282 127 q 303 110 298 117 q 312 93 309 102 q 315 76 315 84 m 43 782 q 47 791 43 787 q 58 796 52 794 q 70 798 64 798 q 80 798 76 798 q 94 798 86 798 q 107 794 101 798 q 119 783 115 790 q 126 767 122 775 q 143 724 134 745 q 163 683 153 703 q 182 731 172 707 q 201 779 191 755 q 205 790 203 785 q 213 798 208 794 q 220 801 214 801 q 233 798 226 801 q 245 789 239 794 q 254 778 250 784 q 258 766 258 772 q 251 740 258 760 q 235 696 244 720 q 218 651 227 673 q 206 622 210 629 q 192 600 201 608 q 168 592 184 592 q 149 596 158 592 q 133 607 140 601 q 112 636 121 621 q 95 668 103 652 q 83 691 92 674 q 66 727 75 708 q 50 762 57 746 q 43 782 43 778 z "}}}
